<?xml version="1.0" encoding="UTF-8" standalone="no"?>
<!-- Created with Inkscape (http://www.inkscape.org/) -->

<svg
   xmlns:dc="http://purl.org/dc/elements/1.1/"
   xmlns:cc="http://creativecommons.org/ns#"
   xmlns:rdf="http://www.w3.org/1999/02/22-rdf-syntax-ns#"
   xmlns:svg="http://www.w3.org/2000/svg"
   xmlns="http://www.w3.org/2000/svg"
   xmlns:sodipodi="http://sodipodi.sourceforge.net/DTD/sodipodi-0.dtd"
   xmlns:inkscape="http://www.inkscape.org/namespaces/inkscape"
   width="63mm"
   height="88mm"
   viewBox="0 0 63 88"
   version="1.1"
   id="svg818"
   inkscape:version="0.92.1 r15371"
   sodipodi:docname="c01.svg">
  <defs
     id="defs812" />
  <sodipodi:namedview
     id="base"
     pagecolor="#ffffff"
     bordercolor="#666666"
     borderopacity="1.0"
     inkscape:pageopacity="0.0"
     inkscape:pageshadow="2"
     inkscape:zoom="0.35"
     inkscape:cx="370.46119"
     inkscape:cy="95.025413"
     inkscape:document-units="mm"
     inkscape:current-layer="layer1"
     showgrid="false"
     inkscape:window-width="659"
     inkscape:window-height="433"
     inkscape:window-x="577"
     inkscape:window-y="323"
     inkscape:window-maximized="0"
     fit-margin-top="0"
     fit-margin-left="0"
     fit-margin-right="0"
     fit-margin-bottom="0" />
  <metadata
     id="metadata815">
    <rdf:RDF>
      <cc:Work
         rdf:about="">
        <dc:format>image/svg+xml</dc:format>
        <dc:type
           rdf:resource="http://purl.org/dc/dcmitype/StillImage" />
        <dc:title></dc:title>
      </cc:Work>
    </rdf:RDF>
  </metadata>
  <g
     inkscape:label="レイヤー 1"
     inkscape:groupmode="layer"
     id="layer1"
     transform="translate(301.375,95.494049)">
    <g
       id="g25">
      <rect
         y="-95.353401"
         x="-301.23434"
         height="87.718697"
         width="62.7187"
         id="rect6355-6-85-9-3-2"
         style="display:inline;fill:#ffffff;fill-opacity:1;stroke:#000000;stroke-width:0.28129992;stroke-miterlimit:4;stroke-dasharray:none;stroke-opacity:1"
         rx="2.9999995"
         ry="2.9999995" />
      <path
         style="display:inline;opacity:1;stroke-width:0.28222209"
         sodipodi:nodetypes="ccccccccccccccc"
         inkscape:connector-curvature="0"
         id="path147-6-9-8-7-0-5-0-8-3"
         d="m -243.35244,-21.693158 c 1.10342,-0.02495 1.59822,-1.319073 0.78102,-2.32402 -0.11854,-0.146584 -0.13076,-0.230706 0.0863,-0.0899 0.55021,0.383258 1.60519,0.131307 1.65922,-1.040378 0.0667,-1.44368 -1.86977,-1.859642 -2.23337,-0.324517 -0.0191,0.161971 -0.14556,0.158274 -0.11508,-0.07163 0.0332,-0.623997 0.22022,-1.207216 0.47736,-1.775949 -0.43724,0 -0.8745,0 -1.31173,0 0.25713,0.568733 0.4442,1.151952 0.47735,1.775949 0.0305,0.229905 -0.0959,0.233602 -0.11508,0.07163 -0.36359,-1.535125 -2.3001,-1.119163 -2.23337,0.324517 0.054,1.171685 1.10902,1.423636 1.65923,1.040378 0.21707,-0.140801 0.20485,-0.05668 0.0863,0.0899 -0.81721,1.004947 -0.32241,2.299054 0.78099,2.32402 2.8e-4,5e-6 0,-6e-6 0,0 z" />
      <path
         style="display:inline;opacity:1;stroke-width:0.28222209"
         inkscape:connector-curvature="0"
         id="path41-6-3-5-1"
         d="m -299.23283,-82.177007 v -0.793808 h 0.75643 l 1.61144,-8.489742 h 0.91717 l 1.77509,8.489742 h 0.61084 v 0.793808 h -2.08142 v -0.793808 h 0.56172 l -0.22432,-1.301019 h -2.09982 l -0.1622,1.301019 h 0.56169 v 0.793808 z m 3.74778,-3.021591 -0.91284,-4.543984 -0.85503,4.543984 z m 0,0" />
      <path
         style="display:inline;opacity:1;stroke-width:0.28222209"
         inkscape:connector-curvature="0"
         id="path41-6-4-0-2-8"
         d="m -246.18874,-20.811074 v 0.793797 h 0.75643 l 1.61144,8.489764 h 0.91717 l 1.77509,-8.489764 h 0.61084 v -0.793797 h -2.08142 v 0.793797 h 0.56172 l -0.22432,1.301016 h -2.09982 l -0.1622,-1.301016 h 0.56169 v -0.793797 z m 3.74778,3.021585 -0.91284,4.543987 -0.85503,-4.543987 z m 0,0" />
      <path
         style="display:inline;opacity:1;stroke-width:0.28222209"
         sodipodi:nodetypes="ccccccccccccccc"
         inkscape:connector-curvature="0"
         id="path147-6-9-8-7-4-5-6-8-9"
         d="m -296.39735,-81.29492 c -1.10342,0.02484 -1.59822,1.319053 -0.78102,2.32402 0.11854,0.146586 0.13076,0.230689 -0.0863,0.08989 -0.55021,-0.383259 -1.60519,-0.13129 -1.65922,1.040386 -0.0667,1.443682 1.86977,1.859651 2.23337,0.324528 0.0191,-0.161968 0.14557,-0.158271 0.11508,0.07163 -0.0332,0.623995 -0.22022,1.207208 -0.47736,1.775943 0.43724,0 0.8745,0 1.31173,0 -0.25713,-0.568735 -0.4442,-1.151948 -0.47735,-1.775943 -0.0305,-0.229899 0.0959,-0.233596 0.11508,-0.07163 0.36359,1.535123 2.3001,1.119154 2.23337,-0.324528 -0.054,-1.171676 -1.10901,-1.423645 -1.65922,-1.040386 -0.21708,0.140801 -0.20485,0.0567 -0.0863,-0.08989 0.8172,-1.004967 0.3224,-2.299072 -0.781,-2.32402 -2.8e-4,0 0,0 0,0 z" />
    </g>
  </g>
</svg>
