<?xml version="1.0" encoding="UTF-8" standalone="no"?>
<!-- Created with Inkscape (http://www.inkscape.org/) -->

<svg
   xmlns:dc="http://purl.org/dc/elements/1.1/"
   xmlns:cc="http://creativecommons.org/ns#"
   xmlns:rdf="http://www.w3.org/1999/02/22-rdf-syntax-ns#"
   xmlns:svg="http://www.w3.org/2000/svg"
   xmlns="http://www.w3.org/2000/svg"
   xmlns:sodipodi="http://sodipodi.sourceforge.net/DTD/sodipodi-0.dtd"
   xmlns:inkscape="http://www.inkscape.org/namespaces/inkscape"
   width="63mm"
   height="88mm"
   viewBox="0 0 63 88"
   version="1.1"
   id="svg818"
   inkscape:version="0.92.1 r15371"
   sodipodi:docname="c02.svg">
  <defs
     id="defs812" />
  <sodipodi:namedview
     id="base"
     pagecolor="#ffffff"
     bordercolor="#666666"
     borderopacity="1.0"
     inkscape:pageopacity="0.0"
     inkscape:pageshadow="2"
     inkscape:zoom="1"
     inkscape:cx="275.67541"
     inkscape:cy="96.232004"
     inkscape:document-units="mm"
     inkscape:current-layer="layer1"
     showgrid="false"
     inkscape:window-width="880"
     inkscape:window-height="780"
     inkscape:window-x="78"
     inkscape:window-y="78"
     inkscape:window-maximized="0"
     fit-margin-top="0"
     fit-margin-left="0"
     fit-margin-right="0"
     fit-margin-bottom="0" />
  <metadata
     id="metadata815">
    <rdf:RDF>
      <cc:Work
         rdf:about="">
        <dc:format>image/svg+xml</dc:format>
        <dc:type
           rdf:resource="http://purl.org/dc/dcmitype/StillImage" />
        <dc:title></dc:title>
      </cc:Work>
    </rdf:RDF>
  </metadata>
  <g
     inkscape:label="レイヤー 1"
     inkscape:groupmode="layer"
     id="layer1"
     transform="translate(298.47917,131.39822)">
    <g
       id="g3764">
      <g
         transform="matrix(0.28096288,0,0,0.2813195,-371.51062,-235.42322)"
         inkscape:label="5D"
         id="layer1-33-1-8-0-7">
        <rect
           ry="10.664032"
           rx="10.677567"
           style="display:inline;fill:#ffffff;fill-opacity:1;stroke:#000000;stroke-width:1.0005666;stroke-miterlimit:4;stroke-dasharray:none;stroke-opacity:1"
           id="rect6355-6-85-4-0-5"
           width="223.22835"
           height="311.81104"
           x="260.43304"
           y="370.27557" />
      </g>
      <path
         style="display:inline;opacity:1;stroke-width:0.28222224"
         sodipodi:nodetypes="ccccccccccccccc"
         inkscape:connector-curvature="0"
         id="path147-6-9-8-7-0-5-4-9-1"
         d="m -240.45653,-57.597374 c 1.10342,-0.02495 1.59823,-1.319067 0.78102,-2.324015 -0.11854,-0.146584 -0.13076,-0.230703 0.0863,-0.0899 0.55021,0.383258 1.6052,0.131304 1.65923,-1.040378 0.0667,-1.443677 -1.86978,-1.859639 -2.23338,-0.324516 -0.0191,0.16197 -0.14557,0.158275 -0.11508,-0.07163 0.0331,-0.623996 0.22022,-1.207212 0.47736,-1.775946 -0.43724,0 -0.8745,0 -1.31174,0 0.25714,0.568734 0.44421,1.15195 0.47736,1.775946 0.0305,0.229906 -0.0959,0.233601 -0.11508,0.07163 -0.3636,-1.535123 -2.3001,-1.119161 -2.23337,0.324516 0.054,1.171682 1.10901,1.423636 1.65922,1.040378 0.21707,-0.140801 0.20485,-0.05668 0.0863,0.0899 -0.81721,1.004948 -0.3224,2.29905 0.78099,2.324015 2.8e-4,6e-6 0,-5e-6 0,0 z" />
      <path
         style="display:inline;opacity:1;stroke-width:0.28222224"
         sodipodi:nodetypes="ccccccccccccccc"
         inkscape:connector-curvature="0"
         id="path147-6-9-8-7-4-5-9-2-7"
         d="m -293.50159,-117.19903 c -1.10343,0.0248 -1.59823,1.31908 -0.78103,2.32402 0.11854,0.14658 0.13077,0.23071 -0.0863,0.0899 -0.55021,-0.38325 -1.60519,-0.13132 -1.65922,1.04036 -0.0667,1.44368 1.86978,1.85965 2.23337,0.32453 0.0191,-0.16197 0.14557,-0.15827 0.11508,0.0716 -0.0331,0.624 -0.22021,1.20721 -0.47735,1.77594 0.43723,0 0.87449,0 1.31173,0 -0.25714,-0.56873 -0.4442,-1.15194 -0.47736,-1.77594 -0.0305,-0.22989 0.0959,-0.23359 0.11509,-0.0716 0.36359,1.53512 2.3001,1.11915 2.23337,-0.32453 -0.054,-1.17168 -1.10902,-1.42361 -1.65923,-1.04036 -0.21707,0.1408 -0.20485,0.0567 -0.0863,-0.0899 0.81721,-1.00494 0.32241,-2.29904 -0.78099,-2.32402 -2.8e-4,0 0,0 0,0 z" />
      <path
         style="opacity:1;stroke-width:0.28222224"
         inkscape:connector-curvature="0"
         id="path15-9-1-0-1"
         d="m -296.28086,-118.10101 0.0452,-0.57246 c 0.14268,-1.76903 0.52231,-2.36581 2.67561,-4.21256 1.04541,-0.89518 1.38821,-1.33689 1.43626,-1.84932 0.13691,-1.20867 -0.93125,-1.58592 -1.62697,-1.59145 -0.90164,-0.008 -1.92176,0.54116 -1.43483,1.81802 l -1.0118,0.30319 c -0.20336,-1.19103 0.006,-2.30835 0.95258,-2.80419 1.2643,-0.64654 2.88549,-0.39308 3.70404,0.62552 0.55016,0.68337 0.67586,1.62901 0.38074,2.36911 -0.86225,1.89058 -3.78713,2.7224 -4.02845,4.90991 h 3.23265 v -1.21788 h 0.95257 v 2.24201 l -5.27757,-0.0198 z m 0,0" />
      <path
         style="opacity:1;stroke-width:0.28222224"
         inkscape:connector-curvature="0"
         id="path15-5-7-4-9-4"
         d="m -237.81856,-56.695394 -0.0452,0.572485 c -0.14267,1.768994 -0.52231,2.365784 -2.67561,4.212536 -1.0454,0.895187 -1.38821,1.336887 -1.43625,1.849338 -0.13691,1.20869 0.93125,1.585911 1.62697,1.591451 0.90164,0.0082 1.92176,-0.541173 1.43482,-1.818025 l 1.0118,-0.30318 c 0.20337,1.190995 -0.006,2.308341 -0.95257,2.804194 -1.26431,0.646529 -2.88549,0.393059 -3.70405,-0.625543 -0.55015,-0.683353 -0.67585,-1.629009 -0.38073,-2.369103 0.86225,-1.890582 3.78713,-2.722415 4.02845,-4.909928 h -3.23265 v 1.217919 h -0.95258 v -2.242032 l 5.27758,0.01998 z m 0,0" />
    </g>
  </g>
</svg>
