<?xml version="1.0" encoding="UTF-8" standalone="no"?>
<!-- Created with Inkscape (http://www.inkscape.org/) -->

<svg
   xmlns:dc="http://purl.org/dc/elements/1.1/"
   xmlns:cc="http://creativecommons.org/ns#"
   xmlns:rdf="http://www.w3.org/1999/02/22-rdf-syntax-ns#"
   xmlns:svg="http://www.w3.org/2000/svg"
   xmlns="http://www.w3.org/2000/svg"
   xmlns:sodipodi="http://sodipodi.sourceforge.net/DTD/sodipodi-0.dtd"
   xmlns:inkscape="http://www.inkscape.org/namespaces/inkscape"
   width="63mm"
   height="88mm"
   viewBox="0 0 63 88"
   version="1.1"
   id="svg818"
   inkscape:version="0.92.1 r15371"
   sodipodi:docname="c03z.svg">
  <defs
     id="defs812" />
  <sodipodi:namedview
     id="base"
     pagecolor="#ffffff"
     bordercolor="#666666"
     borderopacity="1.0"
     inkscape:pageopacity="0.0"
     inkscape:pageshadow="2"
     inkscape:zoom="1"
     inkscape:cx="0.73052752"
     inkscape:cy="133.74781"
     inkscape:document-units="mm"
     inkscape:current-layer="layer1"
     showgrid="false"
     inkscape:window-width="880"
     inkscape:window-height="780"
     inkscape:window-x="78"
     inkscape:window-y="78"
     inkscape:window-maximized="0"
     fit-margin-top="0"
     fit-margin-left="0"
     fit-margin-right="0"
     fit-margin-bottom="0" />
  <metadata
     id="metadata815">
    <rdf:RDF>
      <cc:Work
         rdf:about="">
        <dc:format>image/svg+xml</dc:format>
        <dc:type
           rdf:resource="http://purl.org/dc/dcmitype/StillImage" />
        <dc:title></dc:title>
      </cc:Work>
    </rdf:RDF>
  </metadata>
  <g
     inkscape:label="レイヤー 1"
     inkscape:groupmode="layer"
     id="layer1"
     transform="translate(225.73334,148.51697)">
    <g
       id="g3805">
      <g
         transform="matrix(0.28096288,0,0,0.2813195,-298.76479,-252.54197)"
         inkscape:label="5D"
         id="layer1-33-1-4-5-7">
        <rect
           ry="10.664032"
           rx="10.677567"
           style="display:inline;fill:#ffffff;fill-opacity:1;stroke:#000000;stroke-width:1.0005666;stroke-miterlimit:4;stroke-dasharray:none;stroke-opacity:1"
           id="rect6355-6-85-2-7-5"
           width="223.22835"
           height="311.81104"
           x="260.43304"
           y="370.27557" />
      </g>
      <path
         style="display:inline;opacity:1;stroke-width:0.28222224"
         sodipodi:nodetypes="ccccccccccccccc"
         inkscape:connector-curvature="0"
         id="path147-6-9-8-7-0-5-5-1-4"
         d="m -167.71069,-74.716124 c 1.1034,-0.02495 1.59822,-1.319067 0.78102,-2.324012 -0.11856,-0.146587 -0.13078,-0.230706 0.0863,-0.08991 0.55019,0.383258 1.60519,0.131307 1.65921,-1.040376 0.0667,-1.443679 -1.86978,-1.859641 -2.23337,-0.324516 -0.0192,0.161971 -0.14557,0.158273 -0.11509,-0.07163 0.0332,-0.623994 0.22022,-1.207212 0.47735,-1.775943 -0.43722,0 -0.87449,0 -1.31171,0 0.25713,0.568731 0.44419,1.151949 0.47735,1.775943 0.0305,0.229906 -0.0959,0.233604 -0.11509,0.07163 -0.36359,-1.535125 -2.30008,-1.119163 -2.23336,0.324516 0.054,1.171683 1.10902,1.423634 1.65921,1.040376 0.21708,-0.140801 0.20486,-0.05668 0.0863,0.08991 -0.8172,1.004945 -0.32241,2.29905 0.78099,2.324012 2.9e-4,6e-6 0,-5e-6 0,0 z" />
      <path
         style="display:inline;opacity:1;stroke-width:0.28222224"
         sodipodi:nodetypes="ccccccccccccccc"
         inkscape:connector-curvature="0"
         id="path147-6-9-8-7-4-5-8-2-3"
         d="m -220.75577,-134.31778 c -1.10343,0.0248 -1.59822,1.31908 -0.78102,2.32402 0.11853,0.14658 0.13075,0.23071 -0.0863,0.0899 -0.55023,-0.38325 -1.6052,-0.13132 -1.65925,1.04036 -0.0667,1.44368 1.86978,1.85965 2.2334,0.32453 0.0192,-0.16197 0.14557,-0.15827 0.11506,0.0716 -0.0331,0.624 -0.22022,1.20721 -0.47735,1.77594 0.43725,0 0.87449,0 1.31174,0 -0.25713,-0.56873 -0.44422,-1.15194 -0.47735,-1.77594 -0.0305,-0.22989 0.0959,-0.23359 0.11506,-0.0716 0.36362,1.53512 2.30011,1.11915 2.2334,-0.32453 -0.0541,-1.17168 -1.10903,-1.42361 -1.65925,-1.04036 -0.21705,0.1408 -0.20483,0.0567 -0.0863,-0.0899 0.8172,-1.00494 0.32241,-2.29904 -0.78099,-2.32402 -2.9e-4,0 0,0 0,0 z" />
      <path
         style="opacity:1;stroke-width:0.28222224"
         inkscape:connector-curvature="0"
         id="path17-9-7-6-4"
         d="m -223.76468,-137.23483 0.71379,-0.52566 c 0.61951,1.01004 1.31234,1.67529 2.3722,1.56111 1.59012,-0.10939 2.24902,-1.77843 1.91631,-3.03601 -0.32182,-1.12829 -1.63852,-1.67787 -2.68537,-1.07634 -0.24709,0.14255 -0.48548,0.25894 -0.5321,0.25894 -0.10979,0 -0.35834,-0.49507 -0.32436,-0.64609 0.70256,-1.02734 2.40865,-2.82716 2.40865,-2.82716 h -2.6655 v 1.20529 h -1.02299 v -2.16265 h 5.20964 v 0.73378 c 0,0 -1.39581,1.44947 -1.85708,2.2433 1.13606,0.0416 2.05179,0.76251 2.38052,1.90221 0.1918,0.60006 0.10583,1.97256 -0.14523,2.56413 -0.41938,0.98611 -1.56487,1.78618 -2.61202,1.83221 -1.75814,0.11825 -2.69082,-1.115 -3.15646,-2.02706 z m 0,0" />
      <path
         style="opacity:1;stroke-width:0.28222224"
         inkscape:connector-curvature="0"
         id="path17-5-0-1-5-7"
         d="m -164.7024,-71.799058 -0.7138,0.525645 c -0.6195,-1.010051 -1.31233,-1.675314 -2.37219,-1.561098 -1.59012,0.109403 -2.249,1.778417 -1.91631,3.036 0.32184,1.128287 1.63855,1.677873 2.68537,1.076356 0.24709,-0.142573 0.48548,-0.258956 0.5321,-0.258956 0.10979,0 0.35834,0.495068 0.32436,0.64608 -0.70256,1.027379 -2.40865,2.827175 -2.40865,2.827175 h 2.6655 v -1.205283 h 1.023 v 2.162643 h -5.20965 v -0.733766 c 0,0 1.39581,-1.449499 1.85707,-2.243326 -1.13605,-0.04161 -2.05178,-0.762488 -2.38048,-1.902197 -0.19183,-0.600056 -0.10586,-1.972559 0.1452,-2.564144 0.41938,-0.986082 1.56487,-1.786182 2.61205,-1.832207 1.7581,-0.118237 2.69079,1.115012 3.15643,2.027078 z m 0,0" />
    </g>
  </g>
</svg>
