<?xml version="1.0" encoding="UTF-8" standalone="no"?>
<!-- Created with Inkscape (http://www.inkscape.org/) -->

<svg
   xmlns:dc="http://purl.org/dc/elements/1.1/"
   xmlns:cc="http://creativecommons.org/ns#"
   xmlns:rdf="http://www.w3.org/1999/02/22-rdf-syntax-ns#"
   xmlns:svg="http://www.w3.org/2000/svg"
   xmlns="http://www.w3.org/2000/svg"
   xmlns:sodipodi="http://sodipodi.sourceforge.net/DTD/sodipodi-0.dtd"
   xmlns:inkscape="http://www.inkscape.org/namespaces/inkscape"
   width="63.000004mm"
   height="88mm"
   viewBox="0 0 63.000004 88"
   version="1.1"
   id="svg818"
   inkscape:version="0.92.1 r15371"
   sodipodi:docname="c04.svg">
  <defs
     id="defs812" />
  <sodipodi:namedview
     id="base"
     pagecolor="#ffffff"
     bordercolor="#666666"
     borderopacity="1.0"
     inkscape:pageopacity="0.0"
     inkscape:pageshadow="2"
     inkscape:zoom="1"
     inkscape:cx="-84.214337"
     inkscape:cy="143.61187"
     inkscape:document-units="mm"
     inkscape:current-layer="layer1"
     showgrid="false"
     inkscape:window-width="880"
     inkscape:window-height="780"
     inkscape:window-x="78"
     inkscape:window-y="78"
     inkscape:window-maximized="0"
     fit-margin-top="0"
     fit-margin-left="0"
     fit-margin-right="0"
     fit-margin-bottom="0" />
  <metadata
     id="metadata815">
    <rdf:RDF>
      <cc:Work
         rdf:about="">
        <dc:format>image/svg+xml</dc:format>
        <dc:type
           rdf:resource="http://purl.org/dc/dcmitype/StillImage" />
        <dc:title></dc:title>
      </cc:Work>
    </rdf:RDF>
  </metadata>
  <g
     inkscape:label="レイヤー 1"
     inkscape:groupmode="layer"
     id="layer1"
     transform="translate(203.25834,178.6003)">
    <g
       id="g3845">
      <rect
         ry="2.9999998"
         rx="2.9999998"
         style="display:inline;fill:#ffffff;fill-opacity:1;stroke:#000000;stroke-width:0.28130031;stroke-miterlimit:4;stroke-dasharray:none;stroke-opacity:1"
         id="rect6355-6-85-3-72-9"
         width="62.718704"
         height="87.718697"
         x="-203.11769"
         y="-178.45966" />
      <path
         style="display:inline;opacity:1;stroke-width:0.28222212"
         sodipodi:nodetypes="ccccccccccccccc"
         inkscape:connector-curvature="0"
         id="path147-6-9-8-7-0-5-6-17-9"
         d="m -145.23578,-104.79941 c 1.10343,-0.025 1.59822,-1.31907 0.78102,-2.32402 -0.11853,-0.14658 -0.13075,-0.2307 0.0863,-0.0899 0.55022,0.38326 1.60519,0.13131 1.65923,-1.04038 0.0667,-1.44368 -1.86977,-1.85964 -2.23338,-0.32451 -0.0192,0.16197 -0.14557,0.15827 -0.11507,-0.0716 0.0331,-0.62399 0.22022,-1.20721 0.47735,-1.77594 -0.43724,0 -0.87449,0 -1.31173,0 0.25713,0.56873 0.44421,1.15195 0.47735,1.77594 0.0305,0.22991 -0.0959,0.23361 -0.11507,0.0716 -0.36361,-1.53513 -2.3001,-1.11917 -2.23338,0.32451 0.054,1.17169 1.10901,1.42364 1.65923,1.04038 0.21706,-0.1408 0.20484,-0.0567 0.0863,0.0899 -0.8172,1.00495 -0.32241,2.29906 0.78099,2.32402 2.8e-4,10e-6 0,0 0,0 z" />
      <path
         style="display:inline;opacity:1;stroke-width:0.28222212"
         sodipodi:nodetypes="ccccccccccccccc"
         inkscape:connector-curvature="0"
         id="path147-6-9-8-7-4-5-62-79-3"
         d="m -198.28068,-164.40117 c -1.10343,0.0248 -1.59825,1.31905 -0.78102,2.32402 0.11853,0.14659 0.13076,0.23069 -0.0863,0.0899 -0.55019,-0.38326 -1.60519,-0.13129 -1.65921,1.04038 -0.0667,1.44369 1.86978,1.85965 2.23336,0.32453 0.0192,-0.16197 0.14557,-0.15827 0.11509,0.0716 -0.0332,0.62399 -0.22022,1.20721 -0.47735,1.77594 0.43722,0 0.87449,0 1.31171,0 -0.25713,-0.56873 -0.44419,-1.15195 -0.47735,-1.77594 -0.0305,-0.2299 0.0959,-0.2336 0.11509,-0.0716 0.36359,1.53512 2.30011,1.11916 2.23336,-0.32453 -0.054,-1.17167 -1.10902,-1.42364 -1.65921,-1.04038 -0.21708,0.1408 -0.20486,0.0567 -0.0863,-0.0899 0.81723,-1.00497 0.32241,-2.29907 -0.78099,-2.32402 -2.8e-4,0 0,0 0,0 z" />
      <path
         style="opacity:1;stroke-width:0.28222212"
         inkscape:connector-curvature="0"
         id="path19-0-7-3"
         d="m -198.21565,-165.28436 v -0.81997 h 0.73905 v -1.35258 h -3.69682 v -0.95439 l 4.00026,-6.15551 0.65346,0.003 v 6.1522 h 1.13173 v 0.9544 h -1.13173 l -0.0214,1.3526 h 0.61948 v 0.82105 h -2.29413 z m 0.73905,-7.0289 -2.53977,3.90232 h 2.53977 z m 0,0" />
      <path
         style="opacity:1;stroke-width:0.28222212"
         inkscape:connector-curvature="0"
         id="path19-4-4-9-1"
         d="m -145.30162,-103.91619 v 0.81996 h -0.73908 v 1.35259 h 3.69682 v 0.95437 l -4.00024,6.155541 -0.65348,-0.0034 v -6.152211 h -1.13171 v -0.95438 h 1.13171 l 0.0215,-1.35259 h -0.61951 v -0.82106 h 2.29415 z m -0.73908,7.028889 2.5398,-3.902329 h -2.5398 z m 0,0" />
    </g>
  </g>
</svg>
