<?xml version="1.0" encoding="UTF-8" standalone="no"?>
<!-- Created with Inkscape (http://www.inkscape.org/) -->

<svg
   xmlns:dc="http://purl.org/dc/elements/1.1/"
   xmlns:cc="http://creativecommons.org/ns#"
   xmlns:rdf="http://www.w3.org/1999/02/22-rdf-syntax-ns#"
   xmlns:svg="http://www.w3.org/2000/svg"
   xmlns="http://www.w3.org/2000/svg"
   xmlns:sodipodi="http://sodipodi.sourceforge.net/DTD/sodipodi-0.dtd"
   xmlns:inkscape="http://www.inkscape.org/namespaces/inkscape"
   width="63mm"
   height="88mm"
   viewBox="0 0 63 88"
   version="1.1"
   id="svg818"
   inkscape:version="0.92.1 r15371"
   sodipodi:docname="c05.svg">
  <defs
     id="defs812" />
  <sodipodi:namedview
     id="base"
     pagecolor="#ffffff"
     bordercolor="#666666"
     borderopacity="1.0"
     inkscape:pageopacity="0.0"
     inkscape:pageshadow="2"
     inkscape:zoom="1"
     inkscape:cx="-53.213574"
     inkscape:cy="196.8778"
     inkscape:document-units="mm"
     inkscape:current-layer="layer1"
     showgrid="false"
     inkscape:window-width="880"
     inkscape:window-height="780"
     inkscape:window-x="78"
     inkscape:window-y="78"
     inkscape:window-maximized="0"
     fit-margin-top="0"
     fit-margin-left="0"
     fit-margin-right="0"
     fit-margin-bottom="0" />
  <metadata
     id="metadata815">
    <rdf:RDF>
      <cc:Work
         rdf:about="">
        <dc:format>image/svg+xml</dc:format>
        <dc:type
           rdf:resource="http://purl.org/dc/dcmitype/StillImage" />
        <dc:title></dc:title>
      </cc:Work>
    </rdf:RDF>
  </metadata>
  <g
     inkscape:label="レイヤー 1"
     inkscape:groupmode="layer"
     id="layer1"
     transform="translate(189.51459,203.92114)">
    <g
       id="g3892">
      <g
         transform="matrix(0.28096288,0,0,0.2813195,-262.54604,-307.94614)"
         id="layer1-33-1-41-1-2-6"
         inkscape:label="5D"
         style="display:inline;opacity:1">
        <rect
           y="370.27557"
           x="260.43304"
           height="311.81104"
           width="223.22835"
           id="rect6355-6-85-3-7-9-4"
           style="display:inline;fill:#ffffff;fill-opacity:1;stroke:#000000;stroke-width:1.0005666;stroke-miterlimit:4;stroke-dasharray:none;stroke-opacity:1"
           rx="10.677567"
           ry="10.664032" />
      </g>
      <path
         style="display:inline;opacity:1;stroke-width:0.28222224"
         sodipodi:nodetypes="ccccccccccccccc"
         inkscape:connector-curvature="0"
         id="path147-6-9-8-7-0-5-6-7-4-6"
         d="m -131.49195,-130.12029 c 1.10341,-0.0249 1.59823,-1.31907 0.781,-2.32401 -0.11854,-0.14659 -0.13076,-0.23071 0.0863,-0.0899 0.55019,0.38326 1.60519,0.13131 1.65921,-1.04037 0.0667,-1.44368 -1.86978,-1.85965 -2.23336,-0.32452 -0.0192,0.16197 -0.14557,0.15827 -0.11509,-0.0716 0.0332,-0.624 0.22021,-1.20722 0.47735,-1.77595 -0.43722,0 -0.8745,0 -1.31172,0 0.25714,0.56873 0.44419,1.15195 0.47735,1.77595 0.0305,0.2299 -0.0959,0.2336 -0.11509,0.0716 -0.36358,-1.53513 -2.30008,-1.11916 -2.23336,0.32452 0.054,1.17168 1.10902,1.42363 1.65921,1.04037 0.21709,-0.1408 0.20487,-0.0567 0.0863,0.0899 -0.81723,1.00494 -0.32241,2.29905 0.781,2.32401 2.8e-4,0 0,-10e-6 0,0 z" />
      <path
         style="display:inline;opacity:1;stroke-width:0.28222224"
         sodipodi:nodetypes="ccccccccccccccc"
         inkscape:connector-curvature="0"
         id="path147-6-9-8-7-4-5-62-2-3-8"
         d="m -184.53703,-189.72195 c -1.10343,0.0248 -1.59822,1.31908 -0.78102,2.32402 0.11854,0.14658 0.13076,0.23072 -0.0863,0.0899 -0.55022,-0.38325 -1.6052,-0.13131 -1.65921,1.04039 -0.0668,1.44365 1.86975,1.85962 2.23336,0.3245 0.0192,-0.16197 0.14557,-0.15827 0.11506,0.0716 -0.0331,0.62399 -0.22021,1.20723 -0.47735,1.77594 0.43725,0 0.8745,0 1.31174,0 -0.25713,-0.56871 -0.44421,-1.15195 -0.47735,-1.77594 -0.0305,-0.2299 0.0959,-0.2336 0.11507,-0.0716 0.36361,1.53512 2.30011,1.11915 2.23339,-0.3245 -0.0541,-1.1717 -1.10902,-1.42364 -1.65924,-1.04039 -0.21706,0.14081 -0.20484,0.0567 -0.0863,-0.0899 0.81721,-1.00494 0.32242,-2.29904 -0.78099,-2.32402 -2.8e-4,0 0,0 0,0 z" />
      <path
         style="opacity:1;stroke-width:0.28222224"
         inkscape:connector-curvature="0"
         id="path21-39-8-1"
         d="m -187.45947,-193.0073 0.90887,-0.009 c 0.17337,0.56032 0.557,1.12987 1.07792,1.28792 1.47162,0.35258 2.41842,-0.4863 2.73016,-1.45334 0.37821,-1.173 -0.008,-2.82013 -1.02158,-3.40478 -0.83947,-0.4848 -2.08681,-0.0759 -2.65969,0.96116 l -0.6365,-0.39714 0.34171,-3.86526 h 4.1581 v 0.91364 h -3.36954 l -0.0534,1.61027 c 0.72537,-0.51945 1.84012,-0.51392 2.56506,-0.14957 1.37304,0.66793 2.01097,2.18649 1.74439,3.97617 -0.36988,1.78012 -1.18553,2.78881 -3.02528,2.93285 -2.04637,0.0189 -2.76886,-1.41613 -2.76017,-2.40309 v 0 z m 0,0" />
      <path
         style="opacity:1;stroke-width:0.28222224"
         inkscape:connector-curvature="0"
         id="path21-3-4-1-8"
         d="m -128.57035,-126.8348 -0.90887,0.009 c -0.1734,-0.56036 -0.55702,-1.12989 -1.07792,-1.28793 -1.47162,-0.35258 -2.41842,0.48629 -2.73016,1.45332 -0.37821,1.17302 0.008,2.82012 1.02156,3.40478 0.83949,0.48483 2.08683,0.0759 2.65972,-0.96115 l 0.63649,0.39713 -0.34171,3.86528 h -4.1581 v -0.91364 h 3.36954 l 0.0534,-1.6103 c -0.72537,0.51945 -1.84011,0.51394 -2.56509,0.14957 -1.37304,-0.66791 -2.01094,-2.18647 -1.74438,-3.97614 0.3699,-1.78013 1.18555,-2.7888 3.0253,-2.93287 2.04637,-0.0188 2.76883,1.41614 2.76017,2.40309 v 0 z m 0,0" />
    </g>
  </g>
</svg>
