<?xml version="1.0" encoding="UTF-8" standalone="no"?>
<!-- Created with Inkscape (http://www.inkscape.org/) -->

<svg
   xmlns:dc="http://purl.org/dc/elements/1.1/"
   xmlns:cc="http://creativecommons.org/ns#"
   xmlns:rdf="http://www.w3.org/1999/02/22-rdf-syntax-ns#"
   xmlns:svg="http://www.w3.org/2000/svg"
   xmlns="http://www.w3.org/2000/svg"
   xmlns:sodipodi="http://sodipodi.sourceforge.net/DTD/sodipodi-0.dtd"
   xmlns:inkscape="http://www.inkscape.org/namespaces/inkscape"
   width="63.000004mm"
   height="88mm"
   viewBox="0 0 63.000004 88"
   version="1.1"
   id="svg818"
   inkscape:version="0.92.1 r15371"
   sodipodi:docname="c06.svg">
  <defs
     id="defs812" />
  <sodipodi:namedview
     id="base"
     pagecolor="#ffffff"
     bordercolor="#666666"
     borderopacity="1.0"
     inkscape:pageopacity="0.0"
     inkscape:pageshadow="2"
     inkscape:zoom="1"
     inkscape:cx="119.05514"
     inkscape:cy="166.29921"
     inkscape:document-units="mm"
     inkscape:current-layer="layer1"
     showgrid="false"
     inkscape:window-width="880"
     inkscape:window-height="780"
     inkscape:window-x="78"
     inkscape:window-y="78"
     inkscape:window-maximized="0"
     fit-margin-top="0"
     fit-margin-left="0"
     fit-margin-right="0"
     fit-margin-bottom="0" />
  <metadata
     id="metadata815">
    <rdf:RDF>
      <cc:Work
         rdf:about="">
        <dc:format>image/svg+xml</dc:format>
        <dc:type
           rdf:resource="http://purl.org/dc/dcmitype/StillImage" />
        <dc:title />
      </cc:Work>
    </rdf:RDF>
  </metadata>
  <g
     inkscape:label="レイヤー 1"
     inkscape:groupmode="layer"
     id="layer1"
     transform="translate(235.09402,212.01173)">
    <g
       id="g35">
      <rect
         ry="2.9999998"
         rx="2.9999998"
         style="display:inline;opacity:1;fill:#ffffff;fill-opacity:1;stroke:#000000;stroke-width:0.28130031;stroke-miterlimit:4;stroke-dasharray:none;stroke-opacity:1"
         id="rect6355-6-85-3-2-3-6"
         width="62.718704"
         height="87.718697"
         x="-234.95337"
         y="-211.87108" />
      <path
         style="display:inline;opacity:1;stroke-width:0.28222212"
         sodipodi:nodetypes="ccccccccccccccc"
         inkscape:connector-curvature="0"
         id="path147-6-9-8-7-0-5-6-4-2-8"
         d="m -177.07142,-138.2108 c 1.1034,-0.0249 1.59822,-1.31907 0.78099,-2.32402 -0.11853,-0.14658 -0.13075,-0.2307 0.0863,-0.0899 0.55019,0.38326 1.60519,0.1313 1.65921,-1.04038 0.0668,-1.44368 -1.86977,-1.85965 -2.23336,-0.32452 -0.0192,0.16197 -0.14557,0.15828 -0.11509,-0.0716 0.0332,-0.624 0.22022,-1.20721 0.47735,-1.77595 -0.43722,0 -0.87449,0 -1.31171,0 0.25713,0.56874 0.44419,1.15195 0.47735,1.77595 0.0305,0.22991 -0.0959,0.2336 -0.11509,0.0716 -0.36359,-1.53513 -2.30008,-1.11916 -2.23336,0.32452 0.054,1.17168 1.10902,1.42364 1.65921,1.04038 0.21708,-0.1408 0.20486,-0.0567 0.0863,0.0899 -0.81723,1.00495 -0.32241,2.29905 0.78099,2.32402 2.8e-4,1e-5 0,-1e-5 0,0 z" />
      <path
         style="display:inline;opacity:1;stroke-width:0.28222212"
         sodipodi:nodetypes="ccccccccccccccc"
         inkscape:connector-curvature="0"
         id="path147-6-9-8-7-4-5-62-0-2-9"
         d="m -230.11635,-197.81256 c -1.10343,0.0248 -1.59825,1.31905 -0.78102,2.32402 0.11853,0.14658 0.13075,0.23069 -0.0863,0.0899 -0.55019,-0.38326 -1.60519,-0.13129 -1.65921,1.04038 -0.0667,1.44368 1.86977,1.85965 2.23336,0.32453 0.0192,-0.16197 0.14557,-0.15827 0.11509,0.0716 -0.0332,0.62399 -0.22022,1.20721 -0.47735,1.77594 0.43722,0 0.87449,0 1.31171,0 -0.25713,-0.56873 -0.44419,-1.15195 -0.47735,-1.77594 -0.0305,-0.2299 0.0959,-0.2336 0.11509,-0.0716 0.36358,1.53512 2.3001,1.11915 2.23336,-0.32453 -0.054,-1.17167 -1.10902,-1.42364 -1.65921,-1.04038 -0.21709,0.1408 -0.20487,0.0567 -0.0863,-0.0899 0.81723,-1.00497 0.32241,-2.29907 -0.78097,-2.32402 -2.8e-4,0 0,0 0,0 z" />
      <path
         style="opacity:1;stroke-width:0.28222212"
         inkscape:connector-curvature="0"
         id="path23-8-1-4"
         d="m -232.83914,-201.55077 c -0.11416,-0.78134 -0.11128,-2.80123 -0.0181,-3.39875 0.28789,-1.83053 0.98614,-2.66822 2.15577,-2.94158 1.13609,-0.26634 2.73199,0.0302 3.08203,1.56012 l -0.94967,0.0183 c -0.51367,-1.03443 -1.81339,-0.75814 -2.54558,-0.30796 -0.58409,0.35842 -0.84819,1.85519 -0.73511,1.94728 0,0 1.10465,-0.8193 1.97558,-0.75887 1.86103,0.19414 2.62864,1.81026 2.56362,3.33613 -0.0592,1.83566 -0.64048,3.3037 -2.61312,3.40132 -1.8755,-0.0726 -2.73487,-1.09633 -2.91546,-2.85613 v 0 z m 4.6255,-0.4848 c 0.0102,-1.27351 -0.56713,-2.22801 -1.66054,-2.33263 -1.09236,-0.10536 -2.1945,0.96224 -2.11827,2.26043 0.0762,1.30373 0.58014,2.40042 1.90514,2.39452 1.42502,-0.006 1.86681,-1.41571 1.87367,-2.32232 z m 0,0" />
      <path
         style="opacity:1;stroke-width:0.28222212"
         inkscape:connector-curvature="0"
         id="path23-6-8-9-6"
         d="m -174.34948,-134.47268 c 0.11416,0.78137 0.11125,2.80125 0.0181,3.39877 -0.28789,1.83052 -0.98614,2.66821 -2.15577,2.94157 -1.13609,0.26635 -2.73199,-0.0302 -3.08203,-1.56012 l 0.94967,-0.0183 c 0.51367,1.03442 1.81336,0.75813 2.54558,0.30796 0.58409,-0.35842 0.84816,-1.85519 0.73511,-1.94729 0,0 -1.10465,0.81929 -1.97558,0.75889 -1.86103,-0.19414 -2.62864,-1.81027 -2.56362,-3.33612 0.0592,-1.8357 0.64045,-3.30371 2.61312,-3.40133 1.8755,0.0726 2.73487,1.09633 2.91546,2.8561 v 0 z m -4.6255,0.4848 c -0.0102,1.27354 0.56713,2.22803 1.66054,2.33265 1.09236,0.10535 2.19447,-0.96223 2.11827,-2.26044 -0.0762,-1.30372 -0.58014,-2.40041 -1.90514,-2.39451 -1.42505,0.006 -1.86681,1.41572 -1.87367,2.3223 z m 0,0" />
    </g>
  </g>
</svg>
