<?xml version="1.0" encoding="UTF-8" standalone="no"?>
<!-- Created with Inkscape (http://www.inkscape.org/) -->

<svg
   xmlns:dc="http://purl.org/dc/elements/1.1/"
   xmlns:cc="http://creativecommons.org/ns#"
   xmlns:rdf="http://www.w3.org/1999/02/22-rdf-syntax-ns#"
   xmlns:svg="http://www.w3.org/2000/svg"
   xmlns="http://www.w3.org/2000/svg"
   xmlns:sodipodi="http://sodipodi.sourceforge.net/DTD/sodipodi-0.dtd"
   xmlns:inkscape="http://www.inkscape.org/namespaces/inkscape"
   width="63.000004mm"
   height="88mm"
   viewBox="0 0 63.000004 88"
   version="1.1"
   id="svg818"
   inkscape:version="0.92.1 r15371"
   sodipodi:docname="c07.svg">
  <defs
     id="defs812" />
  <sodipodi:namedview
     id="base"
     pagecolor="#ffffff"
     bordercolor="#666666"
     borderopacity="1.0"
     inkscape:pageopacity="0.0"
     inkscape:pageshadow="2"
     inkscape:zoom="1"
     inkscape:cx="119.05513"
     inkscape:cy="166.29921"
     inkscape:document-units="mm"
     inkscape:current-layer="layer1"
     showgrid="false"
     inkscape:window-width="880"
     inkscape:window-height="780"
     inkscape:window-x="78"
     inkscape:window-y="78"
     inkscape:window-maximized="0"
     fit-margin-top="0"
     fit-margin-left="0"
     fit-margin-right="0"
     fit-margin-bottom="0" />
  <metadata
     id="metadata815">
    <rdf:RDF>
      <cc:Work
         rdf:about="">
        <dc:format>image/svg+xml</dc:format>
        <dc:type
           rdf:resource="http://purl.org/dc/dcmitype/StillImage" />
        <dc:title />
      </cc:Work>
    </rdf:RDF>
  </metadata>
  <g
     inkscape:label="レイヤー 1"
     inkscape:groupmode="layer"
     id="layer1"
     transform="translate(235.09402,212.01173)">
    <g
       id="g37">
      <rect
         ry="2.9999998"
         rx="2.9999998"
         style="display:inline;opacity:1;fill:#ffffff;fill-opacity:1;stroke:#000000;stroke-width:0.28130031;stroke-miterlimit:4;stroke-dasharray:none;stroke-opacity:1"
         id="rect6355-6-85-3-1-8-1"
         width="62.718704"
         height="87.718697"
         x="-234.95337"
         y="-211.87108" />
      <path
         style="display:inline;opacity:1;stroke-width:0.28222212"
         sodipodi:nodetypes="ccccccccccccccc"
         inkscape:connector-curvature="0"
         id="path147-6-9-8-7-0-5-6-8-4-3"
         d="m -177.07148,-138.2108 c 1.1034,-0.0249 1.59822,-1.31907 0.78102,-2.32402 -0.11856,-0.14658 -0.13078,-0.2307 0.0863,-0.0899 0.55022,0.38326 1.60519,0.1313 1.65921,-1.04038 0.0668,-1.44368 -1.86977,-1.85964 -2.23336,-0.32452 -0.0192,0.16197 -0.14557,0.15828 -0.11509,-0.0716 0.0332,-0.624 0.22022,-1.20721 0.47738,-1.77595 -0.43725,0 -0.87452,0 -1.31174,0 0.25713,0.56874 0.44419,1.15195 0.47735,1.77595 0.0305,0.22991 -0.0959,0.2336 -0.11509,0.0716 -0.36359,-1.53512 -2.30008,-1.11916 -2.23336,0.32452 0.054,1.17168 1.10902,1.42364 1.65924,1.04038 0.21705,-0.1408 0.20483,-0.0567 0.0863,0.0899 -0.8172,1.00495 -0.32241,2.29906 0.78099,2.32402 2.8e-4,1e-5 0,0 0,0 z" />
      <path
         style="display:inline;opacity:1;stroke-width:0.28222212"
         sodipodi:nodetypes="ccccccccccccccc"
         inkscape:connector-curvature="0"
         id="path147-6-9-8-7-4-5-62-5-2-9"
         d="m -230.11641,-197.81257 c -1.1034,0.0248 -1.59822,1.31909 -0.78102,2.32402 0.11853,0.14659 0.13075,0.23072 -0.0863,0.0899 -0.55024,-0.38326 -1.60519,-0.13132 -1.6592,1.04036 -0.0667,1.44368 1.86977,1.85965 2.23333,0.32453 0.0192,-0.16197 0.1456,-0.15827 0.11512,0.0716 -0.0332,0.62399 -0.22022,1.2072 -0.47738,1.77594 0.43724,0 0.87449,0 1.31174,0 -0.25714,-0.56874 -0.44419,-1.15195 -0.47738,-1.77594 -0.0305,-0.2299 0.0959,-0.2336 0.11512,-0.0716 0.36355,1.53512 2.30007,1.11915 2.23333,-0.32453 -0.054,-1.17168 -1.10899,-1.42362 -1.65921,-1.04036 -0.21706,0.1408 -0.20484,0.0567 -0.0863,-0.0899 0.81723,-1.00493 0.32241,-2.29904 -0.78097,-2.32402 0,0 0,0 0,0 z" />
      <path
         style="opacity:1;stroke-width:0.28222212"
         inkscape:connector-curvature="0"
         id="path25-6-8-8"
         d="m -231.54163,-198.69567 c 0.60977,-3.22767 1.25888,-5.65078 2.96316,-8.28058 h -3.46419 v 1.13199 h -0.9197 v -2.13394 h 5.06695 l 0.62495,1.00195 c -1.81011,1.97852 -3.46673,8.37414 -3.17341,8.28058 z m 0,0" />
      <path
         style="opacity:1;stroke-width:0.28222212"
         inkscape:connector-curvature="0"
         id="path25-7-7-3-9"
         d="m -175.64708,-137.32769 c -0.60977,3.22764 -1.25888,5.65079 -2.96316,8.28056 h 3.46419 v -1.132 h 0.9197 v 2.13398 h -5.06698 l -0.62492,-1.00198 c 1.81011,-1.97849 3.46672,-8.37413 3.17341,-8.28056 z m 0,0" />
    </g>
  </g>
</svg>
