<?xml version="1.0" encoding="UTF-8" standalone="no"?>
<!-- Created with Inkscape (http://www.inkscape.org/) -->

<svg
   xmlns:dc="http://purl.org/dc/elements/1.1/"
   xmlns:cc="http://creativecommons.org/ns#"
   xmlns:rdf="http://www.w3.org/1999/02/22-rdf-syntax-ns#"
   xmlns:svg="http://www.w3.org/2000/svg"
   xmlns="http://www.w3.org/2000/svg"
   xmlns:sodipodi="http://sodipodi.sourceforge.net/DTD/sodipodi-0.dtd"
   xmlns:inkscape="http://www.inkscape.org/namespaces/inkscape"
   width="63.000004mm"
   height="88mm"
   viewBox="0 0 63.000004 88"
   version="1.1"
   id="svg818"
   inkscape:version="0.92.1 r15371"
   sodipodi:docname="c08.svg">
  <defs
     id="defs812" />
  <sodipodi:namedview
     id="base"
     pagecolor="#ffffff"
     bordercolor="#666666"
     borderopacity="1.0"
     inkscape:pageopacity="0.0"
     inkscape:pageshadow="2"
     inkscape:zoom="1"
     inkscape:cx="42.055119"
     inkscape:cy="149.29921"
     inkscape:document-units="mm"
     inkscape:current-layer="layer1"
     showgrid="false"
     inkscape:window-width="880"
     inkscape:window-height="780"
     inkscape:window-x="78"
     inkscape:window-y="78"
     inkscape:window-maximized="0"
     fit-margin-top="0"
     fit-margin-left="0"
     fit-margin-right="0"
     fit-margin-bottom="0" />
  <metadata
     id="metadata815">
    <rdf:RDF>
      <cc:Work
         rdf:about="">
        <dc:format>image/svg+xml</dc:format>
        <dc:type
           rdf:resource="http://purl.org/dc/dcmitype/StillImage" />
        <dc:title />
      </cc:Work>
    </rdf:RDF>
  </metadata>
  <g
     inkscape:label="レイヤー 1"
     inkscape:groupmode="layer"
     id="layer1"
     transform="translate(214.7211,216.50964)">
    <g
       id="g39">
      <rect
         ry="2.9999998"
         rx="2.9999998"
         style="display:inline;opacity:1;fill:#ffffff;fill-opacity:1;stroke:#000000;stroke-width:0.28130031;stroke-miterlimit:4;stroke-dasharray:none;stroke-opacity:1"
         id="rect6355-6-85-3-3-4-3"
         width="62.718704"
         height="87.718697"
         x="-214.58044"
         y="-216.36899" />
      <path
         style="display:inline;opacity:1;stroke-width:0.28222212"
         sodipodi:nodetypes="ccccccccccccccc"
         inkscape:connector-curvature="0"
         id="path147-6-9-8-7-0-5-6-1-6-9"
         d="m -156.69849,-142.70872 c 1.1034,-0.0249 1.59822,-1.31907 0.78102,-2.32401 -0.11856,-0.14659 -0.13078,-0.23071 0.0863,-0.0899 0.55019,0.38326 1.60519,0.13131 1.65921,-1.04038 0.0667,-1.44368 -1.86978,-1.85964 -2.23336,-0.32451 -0.0192,0.16197 -0.14557,0.15827 -0.11509,-0.0716 0.0332,-0.62399 0.22022,-1.20721 0.47735,-1.77594 -0.43722,0 -0.87449,0 -1.31171,0 0.25713,0.56873 0.44419,1.15195 0.47735,1.77594 0.0305,0.22991 -0.0959,0.23361 -0.11509,0.0716 -0.36359,-1.53513 -2.30008,-1.11917 -2.23336,0.32451 0.054,1.17169 1.10902,1.42364 1.65921,1.04038 0.21708,-0.1408 0.20486,-0.0567 0.0863,0.0899 -0.8172,1.00494 -0.32241,2.29905 0.78099,2.32401 0,1e-5 0,0 0,0 z" />
      <path
         style="display:inline;opacity:1;stroke-width:0.28222212"
         sodipodi:nodetypes="ccccccccccccccc"
         inkscape:connector-curvature="0"
         id="path147-6-9-8-7-4-5-62-4-0-0"
         d="m -209.74342,-202.31048 c -1.10343,0.0248 -1.59822,1.31908 -0.78102,2.32402 0.11853,0.14659 0.13072,0.23069 -0.0863,0.0899 -0.55024,-0.38326 -1.60519,-0.13129 -1.65923,1.04038 -0.0667,1.44369 1.86977,1.85965 2.23336,0.32453 0.0192,-0.16197 0.14559,-0.15827 0.11509,0.0716 -0.0332,0.62399 -0.22022,1.20721 -0.47735,1.77594 0.43724,0 0.87449,0 1.31173,0 -0.25713,-0.56873 -0.44421,-1.15195 -0.47737,-1.77594 -0.0305,-0.2299 0.0959,-0.2336 0.11509,-0.0716 0.36358,1.53512 2.3001,1.11916 2.23336,-0.32453 -0.054,-1.17167 -1.10899,-1.42364 -1.65921,-1.04038 -0.21706,0.1408 -0.20484,0.0567 -0.0863,-0.0899 0.81722,-1.00494 0.32241,-2.29904 -0.78097,-2.32402 0,0 0,0 0,0 z" />
      <path
         style="opacity:1;stroke-width:0.28222212"
         inkscape:connector-curvature="0"
         id="path27-3-3-2"
         d="m -212.75526,-205.91187 c 0.044,-1.24627 0.49417,-1.71374 1.38026,-2.36582 -0.70694,-0.51057 -1.00494,-1.2632 -0.94426,-1.90381 0.14557,-1.5513 1.34196,-2.32676 2.64746,-2.2936 1.30655,0.0346 2.43106,1.07163 2.51883,2.19891 0.0762,0.97991 -0.21457,1.45294 -0.90887,1.96831 0.82398,0.69664 1.35029,1.15417 1.33079,2.38165 -0.0195,1.22747 -1.06239,2.68814 -2.8801,2.7327 -1.81767,0.0446 -3.18927,-1.47207 -3.14411,-2.71834 z m 5.0742,0.005 c 0.0776,-1.12839 -0.91863,-1.88946 -2.04314,-1.90052 -1.09488,-0.0118 -2.07419,0.92391 -2.07419,1.93701 0,1.08785 1.27406,1.67911 2.09693,1.68168 1.00028,0.005 1.95281,-0.74673 2.0204,-1.71817 z m -0.35981,-4.03644 c 0.0215,-0.94934 -0.8536,-1.63048 -1.75666,-1.60322 -0.803,0.0246 -1.65226,0.63768 -1.6537,1.43191 0,0.9943 0.96666,1.49087 1.79208,1.51004 0.74918,0.0169 1.60129,-0.62075 1.61828,-1.33873 z m 0,0" />
      <path
         style="opacity:1;stroke-width:0.28222212"
         inkscape:connector-curvature="0"
         id="path27-0-0-5-0"
         d="m -159.71115,-139.10732 c 0.044,1.24627 0.49414,1.71375 1.38026,2.36582 -0.70694,0.51057 -1.00496,1.26318 -0.94426,1.90383 0.14557,1.55128 1.34197,2.32674 2.64744,2.29358 1.30657,-0.0346 2.43105,-1.07164 2.51882,-2.19892 0.0762,-0.97992 -0.21457,-1.45293 -0.90883,-1.96831 0.82397,-0.6966 1.35026,-1.15414 1.33076,-2.38162 -0.0195,-1.22749 -1.06237,-2.68816 -2.88007,-2.73272 -1.81771,-0.0446 -3.1893,1.47209 -3.14412,2.71834 z m 5.07417,-0.004 c 0.0777,1.12838 -0.9186,1.88949 -2.04311,1.90054 -1.09491,0.0118 -2.07419,-0.92393 -2.07419,-1.937 0,-1.08786 1.27406,-1.67911 2.09693,-1.6817 1.00025,-0.004 1.95281,0.74674 2.02037,1.71816 z m -0.3598,4.03647 c 0.0214,0.94931 -0.85358,1.63047 -1.75666,1.60321 -0.80298,-0.0248 -1.65224,-0.63767 -1.65368,-1.43192 0,-0.99429 0.96664,-1.49088 1.79205,-1.51004 0.74919,-0.0169 1.60133,0.62073 1.61829,1.33875 z m 0,0" />
    </g>
  </g>
</svg>
