<?xml version="1.0" encoding="UTF-8" standalone="no"?>
<!-- Created with Inkscape (http://www.inkscape.org/) -->

<svg
   xmlns:dc="http://purl.org/dc/elements/1.1/"
   xmlns:cc="http://creativecommons.org/ns#"
   xmlns:rdf="http://www.w3.org/1999/02/22-rdf-syntax-ns#"
   xmlns:svg="http://www.w3.org/2000/svg"
   xmlns="http://www.w3.org/2000/svg"
   xmlns:sodipodi="http://sodipodi.sourceforge.net/DTD/sodipodi-0.dtd"
   xmlns:inkscape="http://www.inkscape.org/namespaces/inkscape"
   width="63.000004mm"
   height="88mm"
   viewBox="0 0 63.000004 88"
   version="1.1"
   id="svg818"
   inkscape:version="0.92.1 r15371"
   sodipodi:docname="c09.svg">
  <defs
     id="defs812" />
  <sodipodi:namedview
     id="base"
     pagecolor="#ffffff"
     bordercolor="#666666"
     borderopacity="1.0"
     inkscape:pageopacity="0.0"
     inkscape:pageshadow="2"
     inkscape:zoom="1"
     inkscape:cx="1.8225626"
     inkscape:cy="262.59843"
     inkscape:document-units="mm"
     inkscape:current-layer="layer1"
     showgrid="false"
     inkscape:window-width="880"
     inkscape:window-height="780"
     inkscape:window-x="78"
     inkscape:window-y="78"
     inkscape:window-maximized="0"
     fit-margin-top="0"
     fit-margin-left="0"
     fit-margin-right="0"
     fit-margin-bottom="0" />
  <metadata
     id="metadata815">
    <rdf:RDF>
      <cc:Work
         rdf:about="">
        <dc:format>image/svg+xml</dc:format>
        <dc:type
           rdf:resource="http://purl.org/dc/dcmitype/StillImage" />
        <dc:title />
      </cc:Work>
    </rdf:RDF>
  </metadata>
  <g
     inkscape:label="レイヤー 1"
     inkscape:groupmode="layer"
     id="layer1"
     transform="translate(166.05235,186.53255)">
    <g
       id="g121">
      <rect
         ry="2.9999998"
         rx="2.9999998"
         style="display:inline;opacity:1;fill:#ffffff;fill-opacity:1;stroke:#000000;stroke-width:0.28130031;stroke-miterlimit:4;stroke-dasharray:none;stroke-opacity:1"
         id="rect6355-6-85-3-78-4-6"
         width="62.718704"
         height="87.718697"
         x="-165.9117"
         y="-186.39191" />
      <path
         style="display:inline;opacity:1;stroke-width:0.28222212"
         sodipodi:nodetypes="ccccccccccccccc"
         inkscape:connector-curvature="0"
         id="path147-6-9-8-7-0-5-6-5-2-8"
         d="m -108.02977,-112.73163 c 1.1034,-0.025 1.59825,-1.31907 0.78102,-2.32402 -0.11854,-0.14658 -0.13076,-0.2307 0.0863,-0.0899 0.55019,0.38326 1.60519,0.1313 1.65921,-1.04038 0.0667,-1.44368 -1.86981,-1.85964 -2.23336,-0.32451 -0.0192,0.16196 -0.14557,0.15827 -0.11512,-0.0716 0.0332,-0.62399 0.22024,-1.20721 0.47735,-1.77595 -0.43722,0 -0.87447,0 -1.31168,0 0.25713,0.56874 0.44419,1.15196 0.47735,1.77595 0.0305,0.22991 -0.0959,0.2336 -0.11512,0.0716 -0.36356,-1.53513 -2.30008,-1.11917 -2.23333,0.32451 0.054,1.17168 1.10899,1.42364 1.65921,1.04038 0.21708,-0.1408 0.20486,-0.0567 0.0863,0.0899 -0.81723,1.00495 -0.32241,2.29906 0.78096,2.32402 0,10e-6 0,0 0,0 z" />
      <path
         style="display:inline;opacity:1;stroke-width:0.28222212"
         sodipodi:nodetypes="ccccccccccccccc"
         inkscape:connector-curvature="0"
         id="path147-6-9-8-7-4-5-62-7-8-4"
         d="m -161.07468,-172.33339 c -1.10343,0.0248 -1.59822,1.31905 -0.78102,2.32402 0.11854,0.14659 0.13073,0.23069 -0.0863,0.0899 -0.55025,-0.38326 -1.60519,-0.13129 -1.65923,1.04038 -0.0667,1.44369 1.86977,1.85965 2.23335,0.32453 0.0192,-0.16197 0.14557,-0.15827 0.11509,0.0716 -0.0332,0.62399 -0.22021,1.20721 -0.47734,1.77594 0.43724,0 0.87449,0 1.31173,0 -0.25713,-0.56873 -0.44421,-1.15195 -0.47738,-1.77594 -0.0305,-0.2299 0.0959,-0.2336 0.11509,-0.0716 0.36359,1.53512 2.30011,1.11916 2.23336,-0.32453 -0.054,-1.17167 -1.10899,-1.42364 -1.6592,-1.04038 -0.21706,0.1408 -0.20484,0.0567 -0.0863,-0.0899 0.81723,-1.00497 0.32241,-2.29907 -0.78096,-2.32402 0,0 0,0 0,0 z" />
      <path
         style="opacity:1;stroke-width:0.28222212"
         inkscape:connector-curvature="0"
         id="path29-2-3-4"
         d="m -163.66468,-175.00508 0.84819,-0.26927 c 0.32041,0.85607 0.96664,1.1095 1.6508,1.05461 1.22746,-0.098 1.6353,-1.47196 1.72705,-2.68645 -0.47828,0.50797 -1.19676,0.76581 -1.80904,0.73968 -1.95715,-0.10499 -2.45815,-1.67347 -2.47621,-3.31527 -0.0535,-1.38431 0.51799,-2.38699 1.49837,-2.84743 0.51943,-0.23318 1.7086,-0.23318 2.23093,0.0431 1.19928,0.63359 1.64394,1.728 1.5634,4.34115 0,2.14975 -0.45587,4.65349 -2.75725,4.70802 -1.32895,0.18417 -2.33933,-0.85164 -2.47624,-1.76813 z m 3.33163,-2.35569 c 0.39917,-0.25304 0.62385,-0.49064 0.80303,-0.8461 0.14664,-0.29213 0.19755,-0.44461 0.15531,-1.04874 -0.10874,-1.55852 -0.92436,-2.44334 -2.10811,-2.268 -0.66035,0.0995 -1.02156,0.46931 -1.22891,1.15703 -0.38255,1.27195 0.10296,2.75977 1.01179,3.10233 0.40891,0.15545 1.04106,0.11089 1.36689,-0.0965 z m 0,0" />
      <path
         style="opacity:1;stroke-width:0.28222212"
         inkscape:connector-curvature="0"
         id="path29-6-1-3-7"
         d="m -105.44062,-110.05995 -0.84816,0.26928 c -0.3204,-0.85605 -0.96666,-1.10949 -1.65082,-1.05461 -1.22747,0.098 -1.63528,1.47198 -1.72706,2.68647 0.47828,-0.50798 1.19676,-0.76584 1.80904,-0.73968 1.95715,0.10499 2.45818,1.67346 2.47624,3.31525 0.0534,1.38429 -0.51802,2.38697 -1.49837,2.84743 -0.51946,0.23316 -1.70862,0.23316 -2.23096,-0.0431 -1.1993,-0.63359 -1.64394,-1.72799 -1.56339,-4.34114 0,-2.14976 0.45587,-4.65351 2.75724,-4.70803 1.32896,-0.18418 2.33934,0.85164 2.47624,1.76812 z m -3.33162,2.35569 c -0.39915,0.25305 -0.62385,0.49065 -0.80301,0.84613 -0.14667,0.2921 -0.19761,0.4446 -0.15533,1.0487 0.10874,1.55855 0.92439,2.44335 2.10814,2.26801 0.66034,-0.0995 1.02153,-0.4693 1.22887,-1.15702 0.38258,-1.27196 -0.10292,-2.75977 -1.01179,-3.10234 -0.40891,-0.15546 -1.04106,-0.11086 -1.36688,0.0965 z m 0,0" />
    </g>
  </g>
</svg>
