<?xml version="1.0" encoding="UTF-8" standalone="no"?>
<!-- Created with Inkscape (http://www.inkscape.org/) -->

<svg
   xmlns:dc="http://purl.org/dc/elements/1.1/"
   xmlns:cc="http://creativecommons.org/ns#"
   xmlns:rdf="http://www.w3.org/1999/02/22-rdf-syntax-ns#"
   xmlns:svg="http://www.w3.org/2000/svg"
   xmlns="http://www.w3.org/2000/svg"
   xmlns:sodipodi="http://sodipodi.sourceforge.net/DTD/sodipodi-0.dtd"
   xmlns:inkscape="http://www.inkscape.org/namespaces/inkscape"
   width="63.000004mm"
   height="88mm"
   viewBox="0 0 63.000004 88"
   version="1.1"
   id="svg818"
   inkscape:version="0.92.1 r15371"
   sodipodi:docname="c10.svg">
  <defs
     id="defs812" />
  <sodipodi:namedview
     id="base"
     pagecolor="#ffffff"
     bordercolor="#666666"
     borderopacity="1.0"
     inkscape:pageopacity="0.0"
     inkscape:pageshadow="2"
     inkscape:zoom="1"
     inkscape:cx="-30.706779"
     inkscape:cy="131.775"
     inkscape:document-units="mm"
     inkscape:current-layer="layer1"
     showgrid="false"
     inkscape:window-width="880"
     inkscape:window-height="780"
     inkscape:window-x="78"
     inkscape:window-y="78"
     inkscape:window-maximized="0"
     fit-margin-top="0"
     fit-margin-left="0"
     fit-margin-right="0"
     fit-margin-bottom="0" />
  <metadata
     id="metadata815">
    <rdf:RDF>
      <cc:Work
         rdf:about="">
        <dc:format>image/svg+xml</dc:format>
        <dc:type
           rdf:resource="http://purl.org/dc/dcmitype/StillImage" />
        <dc:title />
      </cc:Work>
    </rdf:RDF>
  </metadata>
  <g
     inkscape:label="レイヤー 1"
     inkscape:groupmode="layer"
     id="layer1"
     transform="translate(156.01276,252.59922)">
    <g
       id="g49">
      <rect
         y="-252.45857"
         x="-155.87212"
         height="87.718697"
         width="62.718704"
         id="rect6355-6-85-3-6-8-7"
         style="display:inline;opacity:1;fill:#ffffff;fill-opacity:1;stroke:#000000;stroke-width:0.28130031;stroke-miterlimit:4;stroke-dasharray:none;stroke-opacity:1"
         rx="2.9999998"
         ry="2.9999998" />
      <path
         d="m -97.990157,-178.79833 c 1.103401,-0.025 1.59822,-1.31907 0.780992,-2.32402 -0.118533,-0.14658 -0.130754,-0.2307 0.08633,-0.0899 0.550191,0.38326 1.605191,0.13131 1.659208,-1.04038 0.06675,-1.44368 -1.869773,-1.85964 -2.233359,-0.32451 -0.01919,0.16197 -0.14557,0.15827 -0.11509,-0.0716 0.03316,-0.62399 0.220217,-1.20721 0.477349,-1.77594 -0.437217,0 -0.874491,0 -1.311708,0 0.257132,0.56873 0.444188,1.15195 0.477349,1.77594 0.03048,0.22991 -0.0959,0.23361 -0.11509,0.0716 -0.363586,-1.53513 -2.300074,-1.11917 -2.233354,0.32451 0.054,1.17169 1.109012,1.42364 1.659203,1.04038 0.217084,-0.1408 0.204864,-0.0567 0.08633,0.0899 -0.817228,1.00495 -0.32241,2.29906 0.780992,2.32402 2.82e-4,1e-5 0,0 0,0 z"
         id="path147-6-9-8-7-0-5-6-83-3-7"
         inkscape:connector-curvature="0"
         sodipodi:nodetypes="ccccccccccccccc"
         style="display:inline;opacity:1;stroke-width:0.28222212" />
      <path
         d="m -151.03509,-238.40009 c -1.10343,0.0248 -1.59822,1.31906 -0.78102,2.32402 0.11854,0.14659 0.13076,0.23069 -0.0863,0.0899 -0.55022,-0.38326 -1.60519,-0.13129 -1.65921,1.04039 -0.0667,1.44368 1.86975,1.85965 2.23336,0.32452 0.0192,-0.16196 0.14557,-0.15827 0.11506,0.0716 -0.0331,0.624 -0.22021,1.20721 -0.47735,1.77595 0.43725,0 0.87449,0 1.31174,0 -0.25713,-0.56874 -0.44422,-1.15195 -0.47735,-1.77595 -0.0305,-0.2299 0.0959,-0.23359 0.11506,-0.0716 0.36362,1.53513 2.30011,1.11916 2.23339,-0.32452 -0.054,-1.17168 -1.10902,-1.42365 -1.65924,-1.04039 -0.21705,0.1408 -0.20483,0.0567 -0.0863,-0.0899 0.8172,-1.00496 0.32241,-2.29907 -0.78099,-2.32402 -2.8e-4,0 0,0 0,0 z"
         id="path147-6-9-8-7-4-5-62-52-8-0"
         inkscape:connector-curvature="0"
         sodipodi:nodetypes="ccccccccccccccc"
         style="display:inline;opacity:1;stroke-width:0.28222212" />
      <path
         style="opacity:1;stroke-width:0.28222212"
         inkscape:connector-curvature="0"
         id="path31-6-7-6"
         d="m -153.84996,-239.28217 v -9.28338 h 0.89876 v 9.28338 z m 0,0" />
      <path
         style="opacity:1;stroke-width:0.28222212"
         inkscape:connector-curvature="0"
         id="path33-9-3-6"
         d="m -150.28714,-248.56572 c -0.86518,0 -1.56055,0.79124 -1.56055,1.77402 v 5.7357 c 0,0.98278 0.69573,1.77366 1.56055,1.77366 h 0.50497 c 0.86515,0 1.56196,-0.79088 1.56196,-1.77366 v -5.7357 c 0,-0.98278 -0.69717,-1.77402 -1.56196,-1.77402 z m 0.26114,0.87779 c 0.51079,0 0.9215,0.39229 0.9215,0.88297 v 5.81158 c 0,0.49065 -0.41071,0.88664 -0.9215,0.88664 -0.51077,0 -0.92293,-0.39599 -0.92293,-0.88664 v -5.81158 c 0,-0.49031 0.41216,-0.88297 0.92293,-0.88297 z m 0,0" />
      <path
         style="opacity:1;stroke-width:0.28222212"
         inkscape:connector-curvature="0"
         id="path31-1-4-0-7"
         d="m -95.176099,-177.91624 v 9.28338 h -0.898734 v -9.28338 z m 0,0" />
      <path
         style="opacity:1;stroke-width:0.28222212"
         inkscape:connector-curvature="0"
         id="path33-5-7-4-0"
         d="m -98.73889,-168.63268 c 0.86515,0 1.560515,-0.79123 1.560515,-1.77402 v -5.73571 c 0,-0.98278 -0.695732,-1.77365 -1.560515,-1.77365 h -0.505007 c -0.865153,0 -1.561953,0.79087 -1.561953,1.77365 v 5.73571 c 0,0.98279 0.69717,1.77402 1.561953,1.77402 z m -0.261168,-0.8778 c -0.510793,0 -0.921509,-0.3923 -0.921509,-0.88296 v -5.81159 c 0,-0.49066 0.410716,-0.88664 0.921509,-0.88664 0.510764,0 0.922949,0.39598 0.922949,0.88664 v 5.81159 c 0,0.49029 -0.412185,0.88296 -0.922949,0.88296 z m 0,0" />
    </g>
  </g>
</svg>
