<?xml version="1.0" encoding="UTF-8" standalone="no"?>
<!-- Created with Inkscape (http://www.inkscape.org/) -->

<svg
   xmlns:dc="http://purl.org/dc/elements/1.1/"
   xmlns:cc="http://creativecommons.org/ns#"
   xmlns:rdf="http://www.w3.org/1999/02/22-rdf-syntax-ns#"
   xmlns:svg="http://www.w3.org/2000/svg"
   xmlns="http://www.w3.org/2000/svg"
   xmlns:sodipodi="http://sodipodi.sourceforge.net/DTD/sodipodi-0.dtd"
   xmlns:inkscape="http://www.inkscape.org/namespaces/inkscape"
   width="63mm"
   height="88mm"
   viewBox="0 0 63 88"
   version="1.1"
   id="svg818"
   inkscape:version="0.92.1 r15371"
   sodipodi:docname="c11.svg">
  <defs
     id="defs812" />
  <sodipodi:namedview
     id="base"
     pagecolor="#ffffff"
     bordercolor="#666666"
     borderopacity="1.0"
     inkscape:pageopacity="0.0"
     inkscape:pageshadow="2"
     inkscape:zoom="1"
     inkscape:cx="7.5164302"
     inkscape:cy="198.85062"
     inkscape:document-units="mm"
     inkscape:current-layer="layer1"
     showgrid="false"
     inkscape:window-width="880"
     inkscape:window-height="780"
     inkscape:window-x="78"
     inkscape:window-y="78"
     inkscape:window-maximized="0"
     fit-margin-top="0"
     fit-margin-left="0"
     fit-margin-right="0"
     fit-margin-bottom="0" />
  <metadata
     id="metadata815">
    <rdf:RDF>
      <cc:Work
         rdf:about="">
        <dc:format>image/svg+xml</dc:format>
        <dc:type
           rdf:resource="http://purl.org/dc/dcmitype/StillImage" />
        <dc:title />
      </cc:Work>
    </rdf:RDF>
  </metadata>
  <g
     inkscape:label="レイヤー 1"
     inkscape:groupmode="layer"
     id="layer1"
     transform="translate(112.90026,291.14922)">
    <g
       id="g46">
      <g
         transform="matrix(0.28096288,0,0,0.2813195,-860.18963,-58.762719)"
         id="g11322-4-2">
        <rect
           transform="translate(7.6293945e-6)"
           y="-825.55872"
           x="2660.2444"
           height="311.81104"
           width="223.22835"
           id="rect6355-6-85-3-39-1-8"
           style="display:inline;opacity:1;fill:#ffffff;fill-opacity:1;stroke:#000000;stroke-width:1.0005666;stroke-miterlimit:4;stroke-dasharray:none;stroke-opacity:1"
           rx="10.677567"
           ry="10.664032" />
        <path
           transform="translate(7.6293945e-6)"
           d="m 2866.2577,-563.72081 c 3.9272,-0.0887 5.6884,-4.68886 2.7797,-8.26112 -0.4218,-0.52106 -0.4653,-0.82008 0.3073,-0.31958 1.9583,1.36236 5.7132,0.46675 5.9054,-3.6982 0.2376,-5.13181 -6.6548,-6.61042 -7.9489,-1.15355 -0.068,0.57575 -0.5181,0.56261 -0.4096,-0.25463 0.118,-2.2181 0.7838,-4.29125 1.6989,-6.31291 -1.5561,0 -3.1124,0 -4.6686,0 0.9152,2.02166 1.5809,4.09481 1.699,6.31291 0.1085,0.81724 -0.3413,0.83038 -0.4096,0.25463 -1.2941,-5.45687 -8.1865,-3.97826 -7.949,1.15355 0.1923,4.16495 3.9472,5.06056 5.9055,3.6982 0.7725,-0.5005 0.7291,-0.20148 0.3072,0.31958 -2.9086,3.57226 -1.1475,8.17238 2.7796,8.26112 0,2e-5 0,-2e-5 0,0 z"
           id="path147-6-9-8-7-0-5-6-79-2-4"
           inkscape:connector-curvature="0"
           sodipodi:nodetypes="ccccccccccccccc"
           style="display:inline;opacity:1" />
        <path
           transform="translate(7.6293945e-6)"
           d="m 2677.4603,-775.58543 c -3.9274,0.0887 -5.6884,4.68886 -2.7799,8.26112 0.422,0.52106 0.4654,0.82008 -0.3071,0.31958 -1.9584,-1.36236 -5.7132,-0.46675 -5.9055,3.6982 -0.2375,5.13181 6.6549,6.61042 7.9489,1.15355 0.068,-0.57575 0.5182,-0.56261 0.4096,0.25463 -0.118,2.2181 -0.7837,4.29125 -1.699,6.31291 1.5562,0 3.1126,0 4.6688,0 -0.9152,-2.02166 -1.5811,-4.09481 -1.6991,-6.31291 -0.1084,-0.81724 0.3414,-0.83038 0.4096,-0.25463 1.2941,5.45687 8.1866,3.97826 7.949,-1.15355 -0.1922,-4.16495 -3.9472,-5.06056 -5.9054,-3.6982 -0.7727,0.5005 -0.7291,0.20148 -0.3073,-0.31958 2.9087,-3.57226 1.1475,-8.17238 -2.7797,-8.26112 -9e-4,-2e-5 0,2e-5 0,0 z"
           id="path147-6-9-8-7-4-5-62-3-3-7"
           inkscape:connector-curvature="0"
           sodipodi:nodetypes="ccccccccccccccc"
           style="display:inline;opacity:1" />
        <path
           d="m 2677.3535,-811.72095 v 3.45423 h 3.3544 c 0,0 0.081,3.32985 0.1105,10.3928 0.026,6.8587 0.1659,10.26054 -0.2713,12.21419 -1.1751,4.50176 -7.6987,4.52664 -8.9946,1.28979 -0.7534,-1.88294 -0.5529,-3.34687 -0.5876,-5.24291 h -3.6064 c 0,0 0.021,0.95459 0.026,2.12257 0.021,5.06218 1.6971,7.48328 5.6197,8.43784 4.0332,1.08944 8.7491,-0.57221 10.4257,-4.01857 0.9989,-1.96412 0.8845,-2.099 0.9089,-13.97536 0.015,-7.92324 0.135,-11.22035 0.135,-11.22035 h 3.0883 v -3.45423 h -10.2084 z m 0,0"
           id="path35-5-6-2"
           inkscape:connector-curvature="0"
           style="opacity:1" />
        <path
           d="m 2866.3616,-527.58527 v -3.4543 h -3.3544 c 0,0 -0.081,-3.3298 -0.1105,-10.3928 -0.026,-6.8587 -0.1659,-10.2605 0.2713,-12.2141 1.1751,-4.5018 7.6987,-4.5267 8.9946,-1.2898 0.7534,1.8829 0.5529,3.3468 0.5876,5.2429 h 3.6064 c 0,0 -0.021,-0.9546 -0.026,-2.1226 -0.021,-5.0622 -1.6971,-7.4833 -5.6197,-8.4378 -4.0332,-1.0895 -8.7491,0.5722 -10.4257,4.0185 -0.9989,1.9642 -0.8845,2.099 -0.9089,13.9754 -0.015,7.9232 -0.135,11.2203 -0.135,11.2203 h -3.0883 v 3.4543 h 10.2084 z m 0,0"
           id="path35-6-4-1-2"
           inkscape:connector-curvature="0"
           style="opacity:1" />
      </g>
    </g>
  </g>
</svg>
