<?xml version="1.0" encoding="UTF-8" standalone="no"?>
<!-- Created with Inkscape (http://www.inkscape.org/) -->

<svg
   xmlns:dc="http://purl.org/dc/elements/1.1/"
   xmlns:cc="http://creativecommons.org/ns#"
   xmlns:rdf="http://www.w3.org/1999/02/22-rdf-syntax-ns#"
   xmlns:svg="http://www.w3.org/2000/svg"
   xmlns="http://www.w3.org/2000/svg"
   xmlns:sodipodi="http://sodipodi.sourceforge.net/DTD/sodipodi-0.dtd"
   xmlns:inkscape="http://www.inkscape.org/namespaces/inkscape"
   width="63.000004mm"
   height="88mm"
   viewBox="0 0 63.000004 88"
   version="1.1"
   id="svg818"
   inkscape:version="0.92.1 r15371"
   sodipodi:docname="c12.svg">
  <defs
     id="defs812" />
  <sodipodi:namedview
     id="base"
     pagecolor="#ffffff"
     bordercolor="#666666"
     borderopacity="1.0"
     inkscape:pageopacity="0.0"
     inkscape:pageshadow="2"
     inkscape:zoom="1"
     inkscape:cx="119.05517"
     inkscape:cy="166.29921"
     inkscape:document-units="mm"
     inkscape:current-layer="layer1"
     showgrid="false"
     inkscape:window-width="880"
     inkscape:window-height="780"
     inkscape:window-x="78"
     inkscape:window-y="78"
     inkscape:window-maximized="0"
     fit-margin-top="0"
     fit-margin-left="0"
     fit-margin-right="0"
     fit-margin-bottom="0" />
  <metadata
     id="metadata815">
    <rdf:RDF>
      <cc:Work
         rdf:about="">
        <dc:format>image/svg+xml</dc:format>
        <dc:type
           rdf:resource="http://purl.org/dc/dcmitype/StillImage" />
        <dc:title />
      </cc:Work>
    </rdf:RDF>
  </metadata>
  <g
     inkscape:label="レイヤー 1"
     inkscape:groupmode="layer"
     id="layer1"
     transform="translate(195.63728,243.46469)">
    <g
       id="g41">
      <rect
         ry="2.9999998"
         rx="2.9999998"
         style="display:inline;opacity:1;fill:#ffffff;fill-opacity:1;stroke:#000000;stroke-width:0.28130031;stroke-miterlimit:4;stroke-dasharray:none;stroke-opacity:1"
         id="rect6355-6-85-3-5-0-1"
         width="62.718704"
         height="87.718697"
         x="-195.49663"
         y="-243.32404" />
      <path
         style="display:inline;opacity:1;stroke-width:0.28222212"
         sodipodi:nodetypes="ccccccccccccccc"
         inkscape:connector-curvature="0"
         id="path147-6-9-8-7-0-5-6-46-4-5"
         d="m -137.6147,-169.66378 c 1.1034,-0.0249 1.59822,-1.31907 0.78102,-2.32402 -0.11853,-0.14658 -0.13075,-0.23071 0.0863,-0.0899 0.55022,0.38326 1.6052,0.13131 1.65924,-1.04037 0.0667,-1.44368 -1.8698,-1.85965 -2.23339,-0.32452 -0.0192,0.16197 -0.14554,0.15827 -0.11509,-0.0716 0.0332,-0.624 0.22025,-1.20722 0.47735,-1.77595 -0.43724,0 -0.87446,0 -1.31171,0 0.25714,0.56873 0.44422,1.15195 0.47735,1.77595 0.0305,0.2299 -0.0959,0.2336 -0.11509,0.0716 -0.36358,-1.53513 -2.30007,-1.11916 -2.23336,0.32452 0.054,1.17168 1.10899,1.42363 1.65924,1.04037 0.21706,-0.1408 0.20484,-0.0567 0.0863,0.0899 -0.8172,1.00495 -0.32241,2.29905 0.78099,2.32402 0,0 0,-1e-5 0,0 z" />
      <path
         style="display:inline;opacity:1;stroke-width:0.28222212"
         sodipodi:nodetypes="ccccccccccccccc"
         inkscape:connector-curvature="0"
         id="path147-6-9-8-7-4-5-62-9-4-5"
         d="m -190.6596,-229.26555 c -1.10343,0.0248 -1.59825,1.31908 -0.78105,2.32402 0.11856,0.14658 0.13075,0.23071 -0.0863,0.0899 -0.55022,-0.38326 -1.60519,-0.13132 -1.65921,1.04036 -0.0667,1.44368 1.86974,1.85965 2.23333,0.32453 0.0192,-0.16197 0.1456,-0.15827 0.11509,0.0716 -0.0332,0.62399 -0.22019,1.2072 -0.47732,1.77594 0.43722,0 0.87446,0 1.31168,0 -0.2571,-0.56874 -0.44419,-1.15195 -0.47735,-1.77594 -0.0305,-0.2299 0.0959,-0.2336 0.11509,-0.0716 0.36359,1.53512 2.30013,1.11915 2.23336,-0.32453 -0.054,-1.17168 -1.10902,-1.42362 -1.65918,-1.04036 -0.21711,0.1408 -0.20486,0.0567 -0.0864,-0.0899 0.81726,-1.00494 0.32241,-2.29905 -0.78096,-2.32402 -2.6e-4,0 0,0 0,0 z" />
      <path
         style="opacity:1;stroke-width:0.28222212"
         inkscape:connector-curvature="0"
         id="path37-5-2-4"
         d="m -192.70181,-233.21958 h -0.77484 v -1.05763 h 0.77484 c 0,0 0.006,-0.56989 0.0282,-1.57523 0.0481,-2.14289 0.10149,-2.47554 0.72102,-3.06533 1.22349,-1.16558 3.27236,-0.2159 3.24814,1.5369 -0.0354,2.47371 -0.01,4.83211 -0.082,5.16626 -0.12827,0.58829 -0.14125,0.62145 -0.0889,0.72901 0.10727,0.21587 1.03276,0.30945 1.03276,0.24903 v 1.0418 c -0.70694,0.0549 -1.00062,-0.0113 -1.56628,-0.41591 -0.35291,0.34115 -1.42792,0.68374 -2.28297,0.28072 -0.65021,-0.30649 -1.14294,-1.09815 -1.00999,-2.88962 v 0 z m 2.6189,1.84636 c -0.38399,-0.55553 -1.03022,-1.31369 -1.63818,-1.58296 -0.0379,0.63878 0.0172,1.17441 0.24133,1.46248 0.35686,0.45864 0.93375,0.56362 1.39685,0.12048 z m 0.3186,-6.11007 c -0.28499,-0.80823 -1.01721,-1.08232 -1.55219,-0.57652 -0.33449,0.31462 -0.38797,0.64578 -0.39517,2.44461 -0.004,1.10959 -0.004,1.57596 -0.004,1.57596 1.04145,0.33819 2.01495,1.55386 2.00665,1.538 l 0.0254,-3.35563 c 0.0203,-0.54446 -0.007,-1.08969 -0.0802,-1.62642 v 0 z m 0,0" />
      <path
         style="opacity:1;stroke-width:0.28222212"
         inkscape:connector-curvature="0"
         id="path37-3-2-7-4"
         d="m -135.57331,-165.70976 h 0.77484 v 1.05765 h -0.77484 c 0,0 -0.006,0.5699 -0.0282,1.57523 -0.048,2.14289 -0.10149,2.47556 -0.72099,3.06534 -1.22349,1.16557 -3.27239,0.21586 -3.24814,-1.5369 0.0354,-2.47373 0.01,-4.83213 0.082,-5.16628 0.12824,-0.58829 0.14123,-0.62146 0.0888,-0.72901 -0.10728,-0.21588 -1.03276,-0.30945 -1.03276,-0.24903 v -1.04181 c 0.70693,-0.0549 1.00064,0.0115 1.5663,0.41591 0.35291,-0.34113 1.42792,-0.68373 2.28294,-0.28071 0.65024,0.3065 1.14297,1.09817 1.01002,2.88961 v 0 z m -2.6189,-1.84633 c 0.38399,0.55552 1.03022,1.31365 1.63816,1.58293 0.0379,-0.63876 -0.0172,-1.1744 -0.2413,-1.46247 -0.3569,-0.45864 -0.93379,-0.56362 -1.39686,-0.12046 z m -0.31863,6.11005 c 0.28502,0.80823 1.01724,1.08232 1.55222,0.57651 0.33449,-0.3146 0.38794,-0.64578 0.39517,-2.44459 0.004,-1.10958 0.004,-1.57598 0.004,-1.57598 -1.04142,-0.33818 -2.01495,-1.55385 -2.00662,-1.53801 l -0.0254,3.35564 c -0.0203,0.54447 0.007,1.0897 0.0802,1.62643 v 0 z m 0,0" />
    </g>
  </g>
</svg>
