<?xml version="1.0" encoding="UTF-8" standalone="no"?>
<!-- Created with Inkscape (http://www.inkscape.org/) -->

<svg
   xmlns:dc="http://purl.org/dc/elements/1.1/"
   xmlns:cc="http://creativecommons.org/ns#"
   xmlns:rdf="http://www.w3.org/1999/02/22-rdf-syntax-ns#"
   xmlns:svg="http://www.w3.org/2000/svg"
   xmlns="http://www.w3.org/2000/svg"
   xmlns:sodipodi="http://sodipodi.sourceforge.net/DTD/sodipodi-0.dtd"
   xmlns:inkscape="http://www.inkscape.org/namespaces/inkscape"
   width="63.000004mm"
   height="88mm"
   viewBox="0 0 63.000004 88"
   version="1.1"
   id="svg818"
   inkscape:version="0.92.1 r15371"
   sodipodi:docname="c13.svg">
  <defs
     id="defs812" />
  <sodipodi:namedview
     id="base"
     pagecolor="#ffffff"
     bordercolor="#666666"
     borderopacity="1.0"
     inkscape:pageopacity="0.0"
     inkscape:pageshadow="2"
     inkscape:zoom="1"
     inkscape:cx="0.12042839"
     inkscape:cy="171.59842"
     inkscape:document-units="mm"
     inkscape:current-layer="layer1"
     showgrid="false"
     inkscape:window-width="880"
     inkscape:window-height="780"
     inkscape:window-x="78"
     inkscape:window-y="78"
     inkscape:window-maximized="0"
     fit-margin-top="0"
     fit-margin-left="0"
     fit-margin-right="0"
     fit-margin-bottom="0" />
  <metadata
     id="metadata815">
    <rdf:RDF>
      <cc:Work
         rdf:about="">
        <dc:format>image/svg+xml</dc:format>
        <dc:type
           rdf:resource="http://purl.org/dc/dcmitype/StillImage" />
        <dc:title />
      </cc:Work>
    </rdf:RDF>
  </metadata>
  <g
     inkscape:label="レイヤー 1"
     inkscape:groupmode="layer"
     id="layer1"
     transform="translate(109.66229,242.06261)">
    <g
       id="g49">
      <rect
         ry="2.9999998"
         rx="2.9999998"
         style="display:inline;opacity:1;fill:#ffffff;fill-opacity:1;stroke:#000000;stroke-width:0.28130031;stroke-miterlimit:4;stroke-dasharray:none;stroke-opacity:1"
         id="rect6355-6-85-3-64-3-5"
         width="62.718704"
         height="87.718697"
         x="-109.52164"
         y="-241.92195" />
      <path
         style="display:inline;opacity:1;stroke-width:0.28222212"
         sodipodi:nodetypes="ccccccccccccccc"
         inkscape:connector-curvature="0"
         id="path147-6-9-8-7-0-5-6-9-6-3"
         d="m -51.63971,-168.26172 c 1.103429,-0.0249 1.598248,-1.31907 0.781019,-2.32402 -0.118533,-0.14658 -0.130753,-0.2307 0.08633,-0.0899 0.550191,0.38326 1.605191,0.1313 1.659208,-1.04038 0.06675,-1.44368 -1.869774,-1.85964 -2.233359,-0.32451 -0.01919,0.16197 -0.14557,0.15827 -0.11509,-0.0716 0.03316,-0.62399 0.220217,-1.20721 0.477349,-1.77595 -0.437217,0 -0.874491,0 -1.311709,0 0.257132,0.56874 0.444188,1.15196 0.47735,1.77595 0.03048,0.22991 -0.0959,0.23361 -0.11509,0.0716 -0.363586,-1.53513 -2.300105,-1.11917 -2.23336,0.32451 0.05402,1.17168 1.109018,1.42364 1.659208,1.04038 0.217085,-0.1408 0.204865,-0.0567 0.08633,0.0899 -0.817229,1.00495 -0.32241,2.29906 0.780991,2.32402 2.54e-4,1e-5 0,0 0,0 z" />
      <path
         style="display:inline;opacity:1;stroke-width:0.28222212"
         sodipodi:nodetypes="ccccccccccccccc"
         inkscape:connector-curvature="0"
         id="path147-6-9-8-7-4-5-62-08-0-2"
         d="m -104.68461,-227.86348 c -1.10343,0.0248 -1.59822,1.31906 -0.78102,2.32402 0.11853,0.14659 0.13075,0.23069 -0.0863,0.0899 -0.55021,-0.38326 -1.60519,-0.13129 -1.65923,1.04039 -0.0667,1.44368 1.86977,1.85965 2.23339,0.32452 0.0192,-0.16199 0.14554,-0.15829 0.11506,0.0716 -0.0331,0.624 -0.22022,1.20721 -0.47735,1.77595 0.43724,0 0.87449,0 1.31173,0 -0.25713,-0.56874 -0.44421,-1.15195 -0.47734,-1.77595 -0.0305,-0.22992 0.0959,-0.23362 0.11506,-0.0716 0.36361,1.53513 2.3001,1.11916 2.23338,-0.32452 -0.054,-1.17168 -1.10901,-1.42365 -1.65923,-1.04039 -0.21706,0.1408 -0.20484,0.0567 -0.0863,-0.0899 0.8172,-1.00496 0.3224,-2.29907 -0.781,-2.32402 0,0 0,0 0,0 z" />
      <path
         style="opacity:1;stroke-width:0.28222212"
         inkscape:connector-curvature="0"
         id="path39-7-2-1"
         d="m -104.46056,-229.76811 h 0.93272 l -1.37016,-3.42788 -1.04687,1.448 0.007,1.97988 h 0.73513 v 1.02108 h -2.59077 v -1.02108 h 0.85358 v -7.37183 l -0.85358,0.003 v -0.89253 h 2.6287 v 0.92273 h -0.7254 l -0.0155,3.5929 2.29457,-3.6231 h -0.80989 v -0.89253 h 2.7967 v 0.89253 h -0.73798 l -1.8893,2.9608 1.84991,4.40917 h 0.82109 l 0.004,1.02108 h -2.8758 l -0.009,-1.02255 z m 0,0" />
      <path
         style="opacity:1;stroke-width:0.28222212"
         inkscape:connector-curvature="0"
         id="path39-3-8-1-1"
         d="m -51.864584,-166.35703 h -0.932714 l 1.370185,3.42788 1.046844,-1.44801 -0.0073,-1.97987 h -0.73513 v -1.02108 h 2.590793 v 1.02108 h -0.853607 v 7.37182 l 0.853607,-0.003 v 0.89251 h -2.628724 v -0.92273 h 0.725394 l 0.01552,-3.5929 -2.294601,3.62312 h 0.809891 v 0.89251 H -54.7011 v -0.89251 h 0.737953 l 1.889303,-2.96081 -1.849905,-4.40916 h -0.821095 l -0.0042,-1.02108 h 2.875808 l 0.0087,1.02254 z m 0,0" />
    </g>
  </g>
</svg>
