<?xml version="1.0" encoding="UTF-8" standalone="no"?>
<!-- Created with Inkscape (http://www.inkscape.org/) -->

<svg
   xmlns:dc="http://purl.org/dc/elements/1.1/"
   xmlns:cc="http://creativecommons.org/ns#"
   xmlns:rdf="http://www.w3.org/1999/02/22-rdf-syntax-ns#"
   xmlns:svg="http://www.w3.org/2000/svg"
   xmlns="http://www.w3.org/2000/svg"
   xmlns:sodipodi="http://sodipodi.sourceforge.net/DTD/sodipodi-0.dtd"
   xmlns:inkscape="http://www.inkscape.org/namespaces/inkscape"
   width="62.999821mm"
   height="88.000175mm"
   viewBox="0 0 62.999821 88.000175"
   version="1.1"
   id="svg821"
   inkscape:version="0.92.1 r15371"
   sodipodi:docname="d02.svg">
  <defs
     id="defs815" />
  <sodipodi:namedview
     id="base"
     pagecolor="#ffffff"
     bordercolor="#666666"
     borderopacity="1.0"
     inkscape:pageopacity="0.0"
     inkscape:pageshadow="2"
     inkscape:zoom="0.5"
     inkscape:cx="237.16467"
     inkscape:cy="168.89829"
     inkscape:document-units="mm"
     inkscape:current-layer="layer1"
     showgrid="false"
     fit-margin-top="0"
     fit-margin-left="0"
     fit-margin-right="0"
     fit-margin-bottom="0"
     inkscape:window-width="773"
     inkscape:window-height="747"
     inkscape:window-x="736"
     inkscape:window-y="190"
     inkscape:window-maximized="0" />
  <metadata
     id="metadata818">
    <rdf:RDF>
      <cc:Work
         rdf:about="">
        <dc:format>image/svg+xml</dc:format>
        <dc:type
           rdf:resource="http://purl.org/dc/dcmitype/StillImage" />
        <dc:title></dc:title>
      </cc:Work>
    </rdf:RDF>
  </metadata>
  <g
     inkscape:label="レイヤー 1"
     inkscape:groupmode="layer"
     id="layer1"
     transform="translate(-43.083514,-105.52083)">
    <g
       id="g27">
      <rect
         y="105.66158"
         x="43.224075"
         height="87.718697"
         width="62.7187"
         id="rect6486-8"
         style="display:inline;fill:#ffffff;fill-opacity:1;stroke:#000000;stroke-width:0.28130031;stroke-miterlimit:4;stroke-dasharray:none;stroke-opacity:1"
         rx="2.9999998"
         ry="2.9999998" />
      <path
         inkscape:connector-curvature="0"
         id="path6518-2"
         d="m 48.061478,125.34646 c -0.607136,-1.00392 -1.245884,-1.97968 -2.044108,-2.8132 0.798224,-0.8335 1.436972,-1.80925 2.044108,-2.8132 0.607137,1.00395 1.245884,1.9797 2.044109,2.8132 -0.798225,0.83352 -1.436972,1.80928 -2.044109,2.8132 z"
         style="display:inline;opacity:1;fill:#d40000;stroke-width:0.28114101" />
      <path
         style="display:inline;opacity:1;fill:#d40000;stroke-width:0.28114101"
         d="m 101.10557,179.32183 c -0.60713,-1.00392 -1.245882,-1.97968 -2.044107,-2.8132 0.798225,-0.8335 1.436977,-1.80925 2.044107,-2.8132 0.60714,1.00395 1.24589,1.9797 2.04411,2.8132 -0.79822,0.83352 -1.43697,1.80928 -2.04411,2.8132 z"
         id="path6522-0"
         inkscape:connector-curvature="0" />
      <path
         style="opacity:1;fill:#d40000;fill-opacity:1;stroke-width:0.28114101"
         inkscape:connector-curvature="0"
         id="path15-34-1-4-2"
         d="m 45.422278,118.81807 0.04518,-0.57248 c 0.142673,-1.76903 0.522309,-2.36582 2.675602,-4.21255 1.045404,-0.89521 1.388206,-1.33691 1.43625,-1.84934 0.136913,-1.20869 -0.931248,-1.58591 -1.626967,-1.59145 -0.901635,-0.008 -1.921752,0.54117 -1.434817,1.81803 l -1.0118,0.30318 c -0.203361,-1.19103 0.0059,-2.30835 0.952573,-2.8042 1.264302,-0.64653 2.885481,-0.39306 3.704036,0.62554 0.550152,0.68336 0.675854,1.62901 0.380731,2.36911 -0.862244,1.89058 -3.787115,2.72242 -4.028434,4.90994 h 3.232637 v -1.21792 h 0.952574 v 2.24203 l -5.277563,-0.02 z m 0,0" />
      <path
         style="opacity:1;fill:#d40000;fill-opacity:1;stroke-width:0.28114101"
         inkscape:connector-curvature="0"
         id="path15-5-4-6-4"
         d="m 103.74393,180.2238 -0.0452,0.57248 c -0.14268,1.769 -0.52231,2.36579 -2.67561,4.21255 -1.045399,0.89519 -1.388201,1.33689 -1.436246,1.84934 -0.136913,1.20869 0.931246,1.58591 1.626966,1.59146 0.90164,0.008 1.92175,-0.54118 1.43482,-1.81804 l 1.0118,-0.30317 c 0.20336,1.19099 -0.006,2.30834 -0.95257,2.80419 -1.26431,0.64653 -2.885485,0.39306 -3.70404,-0.62554 -0.550152,-0.68335 -0.675854,-1.62901 -0.380732,-2.36911 0.862245,-1.89058 3.787112,-2.72242 4.028432,-4.90993 h -3.232635 v 1.21792 h -0.952574 v -2.24204 l 5.277559,0.02 z m 0,0" />
    </g>
  </g>
</svg>
