<?xml version="1.0" encoding="UTF-8" standalone="no"?>
<!-- Created with Inkscape (http://www.inkscape.org/) -->

<svg
   xmlns:dc="http://purl.org/dc/elements/1.1/"
   xmlns:cc="http://creativecommons.org/ns#"
   xmlns:rdf="http://www.w3.org/1999/02/22-rdf-syntax-ns#"
   xmlns:svg="http://www.w3.org/2000/svg"
   xmlns="http://www.w3.org/2000/svg"
   xmlns:sodipodi="http://sodipodi.sourceforge.net/DTD/sodipodi-0.dtd"
   xmlns:inkscape="http://www.inkscape.org/namespaces/inkscape"
   width="62.999821mm"
   height="88.000175mm"
   viewBox="0 0 62.999821 88.000175"
   version="1.1"
   id="svg821"
   inkscape:version="0.92.1 r15371"
   sodipodi:docname="d03.svg">
  <defs
     id="defs815" />
  <sodipodi:namedview
     id="base"
     pagecolor="#ffffff"
     bordercolor="#666666"
     borderopacity="1.0"
     inkscape:pageopacity="0.0"
     inkscape:pageshadow="2"
     inkscape:zoom="0.5"
     inkscape:cx="119.05477"
     inkscape:cy="166.29954"
     inkscape:document-units="mm"
     inkscape:current-layer="layer1"
     showgrid="false"
     fit-margin-top="0"
     fit-margin-left="0"
     fit-margin-right="0"
     fit-margin-bottom="0"
     inkscape:window-width="773"
     inkscape:window-height="747"
     inkscape:window-x="736"
     inkscape:window-y="190"
     inkscape:window-maximized="0" />
  <metadata
     id="metadata818">
    <rdf:RDF>
      <cc:Work
         rdf:about="">
        <dc:format>image/svg+xml</dc:format>
        <dc:type
           rdf:resource="http://purl.org/dc/dcmitype/StillImage" />
        <dc:title></dc:title>
      </cc:Work>
    </rdf:RDF>
  </metadata>
  <g
     inkscape:label="レイヤー 1"
     inkscape:groupmode="layer"
     id="layer1"
     transform="translate(-74.333425,-104.83324)">
    <g
       id="g29">
      <rect
         ry="2.9999998"
         rx="2.9999998"
         style="display:inline;fill:#ffffff;fill-opacity:1;stroke:#000000;stroke-width:0.28130031;stroke-miterlimit:4;stroke-dasharray:none;stroke-opacity:1"
         id="rect6554-0"
         width="62.7187"
         height="87.718697"
         x="74.473984"
         y="104.97398" />
      <path
         style="display:inline;opacity:1;fill:#d40000;stroke-width:0.28114101"
         d="m 79.311395,124.65887 c -0.607131,-1.00392 -1.245898,-1.97968 -2.044112,-2.8132 0.798214,-0.8335 1.436981,-1.80925 2.044112,-2.8132 0.607131,1.00395 1.24587,1.9797 2.044111,2.8132 -0.798241,0.83352 -1.43698,1.80928 -2.044111,2.8132 z"
         id="path6586-2"
         inkscape:connector-curvature="0" />
      <path
         inkscape:connector-curvature="0"
         id="path6590-7"
         d="m 132.35549,178.63424 c -0.60713,-1.00392 -1.2459,-1.97968 -2.04411,-2.8132 0.79821,-0.8335 1.43698,-1.80925 2.04411,-2.8132 0.60713,1.00395 1.24587,1.9797 2.04411,2.8132 -0.79824,0.83352 -1.43698,1.80928 -2.04411,2.8132 z"
         style="display:inline;opacity:1;fill:#d40000;stroke-width:0.28114101" />
      <path
         style="opacity:1;fill:#d40000;fill-opacity:1;stroke-width:0.28114101"
         inkscape:connector-curvature="0"
         id="path17-2-9-4-8"
         d="m 76.301853,116.11542 0.713801,-0.52565 c 0.619493,1.01002 1.312317,1.67529 2.372162,1.5611 1.590133,-0.1094 2.249018,-1.77845 1.91633,-3.03603 -0.321842,-1.12826 -1.638542,-1.67785 -2.685379,-1.07633 -0.247078,0.14254 -0.485474,0.25895 -0.532086,0.25895 -0.1098,0 -0.358339,-0.49507 -0.324371,-0.64611 0.702574,-1.02735 2.40866,-2.82715 2.40866,-2.82715 h -2.665515 v 1.20529 h -1.022972 v -2.16265 h 5.209616 v 0.73377 c 0,0 -1.395792,1.4495 -1.857075,2.2433 1.13607,0.0416 2.051782,0.76252 2.380507,1.9022 0.191813,0.60008 0.105839,1.97259 -0.145229,2.56415 -0.419364,0.98611 -1.564846,1.78618 -2.61202,1.83224 -1.75812,0.11824 -2.690791,-1.11504 -3.156429,-2.02708 z m 0,0" />
      <path
         style="opacity:1;fill:#d40000;fill-opacity:1;stroke-width:0.28114101"
         inkscape:connector-curvature="0"
         id="path17-5-3-3-8"
         d="m 135.36417,181.5513 -0.71381,0.52565 c -0.61949,-1.01005 -1.31232,-1.67532 -2.37216,-1.5611 -1.59014,0.1094 -2.24902,1.77842 -1.91633,3.03601 0.32184,1.12829 1.63854,1.67787 2.68538,1.07635 0.24707,-0.14257 0.48547,-0.25895 0.53208,-0.25895 0.1098,0 0.35834,0.49507 0.32437,0.64608 -0.70257,1.02738 -2.40866,2.82718 -2.40866,2.82718 h 2.66552 v -1.20529 h 1.02298 v 2.16265 h -5.20963 v -0.73377 c 0,0 1.39579,-1.4495 1.85708,-2.24333 -1.13607,-0.0416 -2.05178,-0.76249 -2.38051,-1.9022 -0.19181,-0.60005 -0.10584,-1.97256 0.14523,-2.56415 0.41936,-0.98608 1.56485,-1.78618 2.61202,-1.83221 1.75812,-0.11823 2.6908,1.11502 3.15644,2.02708 z m 0,0" />
    </g>
  </g>
</svg>
