<?xml version="1.0" encoding="UTF-8" standalone="no"?>
<!-- Created with Inkscape (http://www.inkscape.org/) -->

<svg
   xmlns:dc="http://purl.org/dc/elements/1.1/"
   xmlns:cc="http://creativecommons.org/ns#"
   xmlns:rdf="http://www.w3.org/1999/02/22-rdf-syntax-ns#"
   xmlns:svg="http://www.w3.org/2000/svg"
   xmlns="http://www.w3.org/2000/svg"
   xmlns:sodipodi="http://sodipodi.sourceforge.net/DTD/sodipodi-0.dtd"
   xmlns:inkscape="http://www.inkscape.org/namespaces/inkscape"
   width="62.999821mm"
   height="88.000175mm"
   viewBox="0 0 62.999821 88.000175"
   version="1.1"
   id="svg821"
   inkscape:version="0.92.1 r15371"
   sodipodi:docname="d05.svg">
  <defs
     id="defs815" />
  <sodipodi:namedview
     id="base"
     pagecolor="#ffffff"
     bordercolor="#666666"
     borderopacity="1.0"
     inkscape:pageopacity="0.0"
     inkscape:pageshadow="2"
     inkscape:zoom="0.5"
     inkscape:cx="137.1643"
     inkscape:cy="224.89863"
     inkscape:document-units="mm"
     inkscape:current-layer="layer1"
     showgrid="false"
     fit-margin-top="0"
     fit-margin-left="0"
     fit-margin-right="0"
     fit-margin-bottom="0"
     inkscape:window-width="773"
     inkscape:window-height="747"
     inkscape:window-x="736"
     inkscape:window-y="190"
     inkscape:window-maximized="0" />
  <metadata
     id="metadata818">
    <rdf:RDF>
      <cc:Work
         rdf:about="">
        <dc:format>image/svg+xml</dc:format>
        <dc:type
           rdf:resource="http://purl.org/dc/dcmitype/StillImage" />
        <dc:title></dc:title>
      </cc:Work>
    </rdf:RDF>
  </metadata>
  <g
     inkscape:label="レイヤー 1"
     inkscape:groupmode="layer"
     id="layer1"
     transform="translate(-69.541945,-120.33758)">
    <g
       id="g33">
      <rect
         ry="2.9999998"
         rx="2.9999998"
         style="display:inline;fill:#ffffff;fill-opacity:1;stroke:#000000;stroke-width:0.28130031;stroke-miterlimit:4;stroke-dasharray:none;stroke-opacity:1"
         id="rect6690-8"
         width="62.7187"
         height="87.718697"
         x="69.682503"
         y="120.47832" />
      <path
         style="display:inline;opacity:1;fill:#d40000;stroke-width:0.28114101"
         d="m 74.519889,140.16321 c -0.607131,-1.00392 -1.245898,-1.97968 -2.044112,-2.8132 0.798214,-0.8335 1.436981,-1.80925 2.044112,-2.8132 0.607131,1.00395 1.24587,1.9797 2.044111,2.8132 -0.798241,0.83352 -1.43698,1.80928 -2.044111,2.8132 z"
         id="path6722-9"
         inkscape:connector-curvature="0" />
      <path
         inkscape:connector-curvature="0"
         id="path6726-3"
         d="m 127.56398,194.13858 c -0.60713,-1.00392 -1.2459,-1.97968 -2.04411,-2.8132 0.79821,-0.8335 1.43698,-1.80925 2.04411,-2.8132 0.60713,1.00395 1.24587,1.9797 2.04411,2.8132 -0.79824,0.83352 -1.43698,1.80928 -2.04411,2.8132 z"
         style="display:inline;opacity:1;fill:#d40000;stroke-width:0.28114101" />
      <path
         style="opacity:1;fill:#d40000;fill-opacity:1;stroke-width:0.28114101"
         inkscape:connector-curvature="0"
         id="path21-9-8-2-7"
         d="m 71.597068,131.25134 0.908857,-0.009 c 0.173381,0.56033 0.557007,1.12989 1.077911,1.28794 1.471623,0.35255 2.418409,-0.48629 2.730164,-1.45336 0.378203,-1.17299 -0.0084,-2.82012 -1.021578,-3.40476 -0.839486,-0.48482 -2.086818,-0.0759 -2.659699,0.96116 l -0.636492,-0.39714 0.341706,-3.86528 h 4.158099 v 0.91364 h -3.369522 l -0.05347,1.61028 c 0.725359,-0.51943 1.840104,-0.51392 2.565071,-0.14955 1.373033,0.66791 2.010958,2.18645 1.744381,3.97615 -0.369887,1.78011 -1.185548,2.78881 -3.025287,2.93284 -2.046359,0.0189 -2.768825,-1.41613 -2.760144,-2.40309 v 0 z m 0,0" />
      <path
         style="opacity:1;fill:#d40000;fill-opacity:1;stroke-width:0.28114101"
         inkscape:connector-curvature="0"
         id="path21-3-0-8-6"
         d="m 130.48599,197.42406 -0.90886,0.009 c -0.17338,-0.56036 -0.55701,-1.12989 -1.07791,-1.28794 -1.47162,-0.35258 -2.41841,0.48629 -2.73016,1.45333 -0.37821,1.17302 0.008,2.82012 1.02157,3.40479 0.83949,0.48483 2.08682,0.0759 2.6597,-0.96116 l 0.6365,0.39714 -0.34171,3.86528 h -4.1581 v -0.91364 h 3.36952 l 0.0535,-1.61031 c -0.72536,0.51946 -1.84011,0.51395 -2.56507,0.14958 -1.37304,-0.66791 -2.01096,-2.18647 -1.74438,-3.97615 0.36988,-1.78013 1.18554,-2.78881 3.02528,-2.93287 2.04636,-0.0188 2.76883,1.41614 2.76015,2.40309 v 0 z m 0,0" />
    </g>
  </g>
</svg>
