<?xml version="1.0" encoding="UTF-8" standalone="no"?>
<!-- Created with Inkscape (http://www.inkscape.org/) -->

<svg
   xmlns:dc="http://purl.org/dc/elements/1.1/"
   xmlns:cc="http://creativecommons.org/ns#"
   xmlns:rdf="http://www.w3.org/1999/02/22-rdf-syntax-ns#"
   xmlns:svg="http://www.w3.org/2000/svg"
   xmlns="http://www.w3.org/2000/svg"
   xmlns:sodipodi="http://sodipodi.sourceforge.net/DTD/sodipodi-0.dtd"
   xmlns:inkscape="http://www.inkscape.org/namespaces/inkscape"
   width="62.999821mm"
   height="88.000175mm"
   viewBox="0 0 62.999821 88.000175"
   version="1.1"
   id="svg821"
   inkscape:version="0.92.1 r15371"
   sodipodi:docname="d07.svg">
  <defs
     id="defs815" />
  <sodipodi:namedview
     id="base"
     pagecolor="#ffffff"
     bordercolor="#666666"
     borderopacity="1.0"
     inkscape:pageopacity="0.0"
     inkscape:pageshadow="2"
     inkscape:zoom="0.5"
     inkscape:cx="547.27384"
     inkscape:cy="137.4977"
     inkscape:document-units="mm"
     inkscape:current-layer="layer1"
     showgrid="false"
     fit-margin-top="0"
     fit-margin-left="0"
     fit-margin-right="0"
     fit-margin-bottom="0"
     inkscape:window-width="773"
     inkscape:window-height="747"
     inkscape:window-x="736"
     inkscape:window-y="190"
     inkscape:window-maximized="0" />
  <metadata
     id="metadata818">
    <rdf:RDF>
      <cc:Work
         rdf:about="">
        <dc:format>image/svg+xml</dc:format>
        <dc:type
           rdf:resource="http://purl.org/dc/dcmitype/StillImage" />
        <dc:title></dc:title>
      </cc:Work>
    </rdf:RDF>
  </metadata>
  <g
     inkscape:label="レイヤー 1"
     inkscape:groupmode="layer"
     id="layer1"
     transform="translate(38.966202,-97.212752)">
    <g
       id="g37">
      <rect
         ry="2.9999998"
         rx="2.9999998"
         style="display:inline;fill:#ffffff;fill-opacity:1;stroke:#000000;stroke-width:0.28130031;stroke-miterlimit:4;stroke-dasharray:none;stroke-opacity:1"
         id="rect6826-9"
         width="62.7187"
         height="87.718697"
         x="-38.825642"
         y="97.353493" />
      <path
         style="display:inline;opacity:1;fill:#d40000;stroke-width:0.28114101"
         d="m -33.988217,117.03838 c -0.607131,-1.00392 -1.245898,-1.97968 -2.044112,-2.8132 0.798214,-0.8335 1.436981,-1.80925 2.044112,-2.8132 0.607131,1.00395 1.24587,1.9797 2.044111,2.8132 -0.798241,0.83352 -1.43698,1.80928 -2.044111,2.8132 z"
         id="path6858-4"
         inkscape:connector-curvature="0" />
      <path
         inkscape:connector-curvature="0"
         id="path6862-0"
         d="m 19.055876,171.01375 c -0.607131,-1.00392 -1.245898,-1.97968 -2.044111,-2.8132 0.798213,-0.8335 1.43698,-1.80925 2.044111,-2.8132 0.607131,1.00395 1.24587,1.9797 2.044112,2.8132 -0.798242,0.83352 -1.436981,1.80928 -2.044112,2.8132 z"
         style="display:inline;opacity:1;fill:#d40000;stroke-width:0.28114101" />
      <path
         style="opacity:1;fill:#d40000;fill-opacity:1;stroke-width:0.28114101"
         inkscape:connector-curvature="0"
         id="path25-43-4-8-8"
         d="m -35.413875,110.52887 c 0.609772,-3.22767 1.258879,-5.65079 2.963167,-8.28057 h -3.464179 v 1.13197 h -0.919701 v -2.13395 h 5.066954 l 0.624944,1.00198 c -1.810126,1.9785 -3.466734,8.37414 -3.17341,8.28057 z m 0,0" />
      <path
         style="opacity:1;fill:#d40000;fill-opacity:1;stroke-width:0.28114101"
         inkscape:connector-curvature="0"
         id="path25-7-0-7-6"
         d="m 20.480691,171.89684 c -0.609772,3.22764 -1.258879,5.65079 -2.963166,8.28057 h 3.464178 v -1.132 h 0.919701 v 2.13398 H 16.83445 l -0.624944,-1.00198 c 1.810126,-1.97849 3.466735,-8.37413 3.17341,-8.28057 z m 0,0" />
    </g>
  </g>
</svg>
