<?xml version="1.0" encoding="UTF-8" standalone="no"?>
<!-- Created with Inkscape (http://www.inkscape.org/) -->

<svg
   xmlns:dc="http://purl.org/dc/elements/1.1/"
   xmlns:cc="http://creativecommons.org/ns#"
   xmlns:rdf="http://www.w3.org/1999/02/22-rdf-syntax-ns#"
   xmlns:svg="http://www.w3.org/2000/svg"
   xmlns="http://www.w3.org/2000/svg"
   xmlns:sodipodi="http://sodipodi.sourceforge.net/DTD/sodipodi-0.dtd"
   xmlns:inkscape="http://www.inkscape.org/namespaces/inkscape"
   width="62.999821mm"
   height="88.000175mm"
   viewBox="0 0 62.999821 88.000175"
   version="1.1"
   id="svg821"
   inkscape:version="0.92.1 r15371"
   sodipodi:docname="d08.svg">
  <defs
     id="defs815" />
  <sodipodi:namedview
     id="base"
     pagecolor="#ffffff"
     bordercolor="#666666"
     borderopacity="1.0"
     inkscape:pageopacity="0.0"
     inkscape:pageshadow="2"
     inkscape:zoom="0.5"
     inkscape:cx="666.32862"
     inkscape:cy="177.79726"
     inkscape:document-units="mm"
     inkscape:current-layer="layer1"
     showgrid="false"
     fit-margin-top="0"
     fit-margin-left="0"
     fit-margin-right="0"
     fit-margin-bottom="0"
     inkscape:window-width="773"
     inkscape:window-height="747"
     inkscape:window-x="736"
     inkscape:window-y="190"
     inkscape:window-maximized="0" />
  <metadata
     id="metadata818">
    <rdf:RDF>
      <cc:Work
         rdf:about="">
        <dc:format>image/svg+xml</dc:format>
        <dc:type
           rdf:resource="http://purl.org/dc/dcmitype/StillImage" />
        <dc:title></dc:title>
      </cc:Work>
    </rdf:RDF>
  </metadata>
  <g
     inkscape:label="レイヤー 1"
     inkscape:groupmode="layer"
     id="layer1"
     transform="translate(70.466112,-107.87534)">
    <g
       id="g39">
      <rect
         ry="2.9999998"
         rx="2.9999998"
         style="display:inline;fill:#ffffff;fill-opacity:1;stroke:#000000;stroke-width:0.28130031;stroke-miterlimit:4;stroke-dasharray:none;stroke-opacity:1"
         id="rect6894-2"
         width="62.7187"
         height="87.718697"
         x="-70.325554"
         y="108.01608" />
      <path
         style="display:inline;opacity:1;fill:#d40000;stroke-width:0.28114101"
         d="m -65.488098,127.70098 c -0.607131,-1.00392 -1.245898,-1.97968 -2.044112,-2.8132 0.798214,-0.83349 1.436981,-1.80925 2.044112,-2.8132 0.607103,1.00395 1.24587,1.97971 2.044111,2.8132 -0.798241,0.83352 -1.437008,1.80928 -2.044111,2.8132 z"
         id="path6926-2"
         inkscape:connector-curvature="0" />
      <path
         inkscape:connector-curvature="0"
         id="path6930-6"
         d="m -12.444005,181.67634 c -0.60713,-1.00392 -1.245898,-1.97968 -2.044111,-2.8132 0.798213,-0.8335 1.436981,-1.80925 2.044111,-2.8132 0.607103,1.00395 1.245842,1.9797 2.044112,2.8132 -0.79827,0.83352 -1.437009,1.80928 -2.044112,2.8132 z"
         style="display:inline;opacity:1;fill:#d40000;stroke-width:0.28114101" />
      <path
         style="opacity:1;fill:#d40000;fill-opacity:1;stroke-width:0.28114101"
         inkscape:connector-curvature="0"
         id="path27-00-7-8-6"
         d="m -68.500349,118.47321 c 0.04406,-1.24628 0.494156,-1.71378 1.380255,-2.36582 -0.706929,-0.51057 -1.004945,-1.26321 -0.944258,-1.90384 0.145567,-1.55128 1.341959,-2.32674 2.64745,-2.2936 1.306558,0.0346 2.431052,1.07166 2.518825,2.19894 0.07623,0.97992 -0.214571,1.45293 -0.908856,1.96828 0.823977,0.69664 1.350275,1.15418 1.330776,2.38166 -0.01939,1.22748 -1.062373,2.68813 -2.880086,2.73271 -1.817684,0.0446 -3.189284,-1.47209 -3.144106,-2.71833 z m 5.074175,0.005 c 0.07766,-1.12841 -0.918605,-1.88949 -2.043128,-1.90055 -1.094881,-0.0118 -2.074174,0.92394 -2.074174,1.93701 0,1.08786 1.27405,1.67911 2.096932,1.6817 1.000253,0.005 1.952799,-0.74674 2.02037,-1.71816 z m -0.3598,-4.03647 c 0.02135,-0.94931 -0.853591,-1.63047 -1.756659,-1.60321 -0.802989,0.0247 -1.652253,0.63767 -1.653686,1.43192 0,0.99429 0.96665,1.49088 1.79206,1.51004 0.749185,0.0169 1.601315,-0.62073 1.618285,-1.33875 z m 0,0" />
      <path
         style="opacity:1;fill:#d40000;fill-opacity:1;stroke-width:0.28114101"
         inkscape:connector-curvature="0"
         id="path27-0-1-9-8"
         d="m -15.456255,185.27774 c 0.04406,1.24628 0.494156,1.71375 1.380254,2.36582 -0.706929,0.51057 -1.004945,1.26318 -0.944257,1.90383 0.145566,1.55129 1.341959,2.32675 2.647449,2.29358 1.306558,-0.0346 2.4310526,-1.07163 2.5188252,-2.19891 0.076225,-0.97992 -0.2145712,-1.45294 -0.9088562,-1.96831 0.8239775,-0.69661 1.3502757,-1.15415 1.3307769,-2.38163 -0.019386,-1.22748 -1.0623739,-2.68815 -2.8800859,-2.73272 -1.817684,-0.0446 -3.189285,1.4721 -3.144106,2.71834 z m 5.074175,-0.005 c 0.07766,1.12838 -0.918606,1.88949 -2.043128,1.90054 -1.094881,0.0118 -2.074175,-0.92394 -2.074175,-1.937 0,-1.08786 1.274051,-1.67911 2.096933,-1.6817 1.000253,-0.005 1.952798,0.74674 2.02037,1.71816 z m -0.3598,4.03647 c 0.02135,0.94931 -0.853591,1.63047 -1.756659,1.60321 -0.80299,-0.0248 -1.652254,-0.63767 -1.653687,-1.43192 0,-0.9943 0.96665,-1.49088 1.792061,-1.51004 0.749185,-0.0169 1.601315,0.62073 1.618285,1.33875 z m 0,0" />
    </g>
  </g>
</svg>
