<?xml version="1.0" encoding="UTF-8" standalone="no"?>
<!-- Created with Inkscape (http://www.inkscape.org/) -->

<svg
   xmlns:dc="http://purl.org/dc/elements/1.1/"
   xmlns:cc="http://creativecommons.org/ns#"
   xmlns:rdf="http://www.w3.org/1999/02/22-rdf-syntax-ns#"
   xmlns:svg="http://www.w3.org/2000/svg"
   xmlns="http://www.w3.org/2000/svg"
   xmlns:sodipodi="http://sodipodi.sourceforge.net/DTD/sodipodi-0.dtd"
   xmlns:inkscape="http://www.inkscape.org/namespaces/inkscape"
   width="62.999821mm"
   height="88.000175mm"
   viewBox="0 0 62.999821 88.000175"
   version="1.1"
   id="svg821"
   inkscape:version="0.92.1 r15371"
   sodipodi:docname="d09.svg">
  <defs
     id="defs815" />
  <sodipodi:namedview
     id="base"
     pagecolor="#ffffff"
     bordercolor="#666666"
     borderopacity="1.0"
     inkscape:pageopacity="0.0"
     inkscape:pageshadow="2"
     inkscape:zoom="0.5"
     inkscape:cx="611.38339"
     inkscape:cy="176.09681"
     inkscape:document-units="mm"
     inkscape:current-layer="layer1"
     showgrid="false"
     fit-margin-top="0"
     fit-margin-left="0"
     fit-margin-right="0"
     fit-margin-bottom="0"
     inkscape:window-width="773"
     inkscape:window-height="747"
     inkscape:window-x="736"
     inkscape:window-y="190"
     inkscape:window-maximized="0" />
  <metadata
     id="metadata818">
    <rdf:RDF>
      <cc:Work
         rdf:about="">
        <dc:format>image/svg+xml</dc:format>
        <dc:type
           rdf:resource="http://purl.org/dc/dcmitype/StillImage" />
        <dc:title></dc:title>
      </cc:Work>
    </rdf:RDF>
  </metadata>
  <g
     inkscape:label="レイヤー 1"
     inkscape:groupmode="layer"
     id="layer1"
     transform="translate(55.928522,-107.42543)">
    <g
       id="g41">
      <rect
         ry="2.9999998"
         rx="2.9999998"
         style="display:inline;fill:#ffffff;fill-opacity:1;stroke:#000000;stroke-width:0.28130031;stroke-miterlimit:4;stroke-dasharray:none;stroke-opacity:1"
         id="rect6962-4"
         width="62.7187"
         height="87.718697"
         x="-55.78796"
         y="107.56617" />
      <path
         style="display:inline;opacity:1;fill:#d40000;stroke-width:0.28114101"
         d="m -50.950535,127.25106 c -0.607131,-1.00392 -1.245898,-1.97968 -2.044112,-2.8132 0.798214,-0.8335 1.436981,-1.80925 2.044112,-2.8132 0.607131,1.00395 1.24587,1.9797 2.044111,2.8132 -0.798241,0.83352 -1.43698,1.80928 -2.044111,2.8132 z"
         id="path6994-9"
         inkscape:connector-curvature="0" />
      <path
         inkscape:connector-curvature="0"
         id="path6998-7"
         d="m 2.0935584,181.22643 c -0.607131,-1.00392 -1.24589822,-1.97968 -2.04411146,-2.8132 0.79821324,-0.8335 1.43698046,-1.80925 2.04411146,-2.8132 0.6071309,1.00395 1.2458701,1.9797 2.0441114,2.8132 -0.7982413,0.83352 -1.4369805,1.80928 -2.0441114,2.8132 z"
         style="display:inline;opacity:1;fill:#d40000;stroke-width:0.28114101" />
      <path
         style="opacity:1;fill:#d40000;fill-opacity:1;stroke-width:0.28114101"
         inkscape:connector-curvature="0"
         id="path29-5-3-7-8"
         d="m -53.540949,118.95295 0.848168,-0.26926 c 0.320409,0.85606 0.96665,1.1095 1.650821,1.05462 1.227467,-0.098 1.635283,-1.47198 1.727046,-2.68647 -0.478282,0.50798 -1.196758,0.76584 -1.809031,0.73968 -1.957154,-0.10499 -2.458165,-1.67346 -2.476231,-3.31525 -0.05347,-1.38429 0.51801,-2.38697 1.498371,-2.84744 0.519442,-0.23315 1.708614,-0.23315 2.230951,0.0431 1.199286,0.63359 1.643965,1.72798 1.563413,4.34114 0,2.14976 -0.455889,4.65351 -2.757277,4.70803 -1.328951,0.18418 -2.339318,-0.85164 -2.476231,-1.76815 z m 3.33162,-2.35567 c 0.399163,-0.25304 0.623848,-0.49065 0.803018,-0.84612 0.146662,-0.2921 0.1976,-0.4446 0.155315,-1.04871 -0.108732,-1.55854 -0.924365,-2.44335 -2.108114,-2.268 -0.660345,0.0995 -1.02155,0.4693 -1.2289,1.15701 -0.382558,1.27196 0.102944,2.75975 1.0118,3.10235 0.408913,0.15542 1.041049,0.11086 1.366881,-0.0965 z m 0,0" />
      <path
         style="opacity:1;fill:#d40000;fill-opacity:1;stroke-width:0.28114101"
         inkscape:connector-curvature="0"
         id="path29-6-2-9-2"
         d="m 4.6831296,183.8981 -0.8481683,0.26928 c -0.3204092,-0.85606 -0.96665,-1.1095 -1.6508207,-1.05461 -1.22746714,0.098 -1.63528358,1.47197 -1.72704579,2.68646 0.47828173,-0.50798 1.19675789,-0.76584 1.80903049,-0.73967 1.9571537,0.10499 2.4581652,1.67346 2.4762311,3.31524 0.053467,1.38429 -0.5180098,2.38697 -1.4983707,2.84744 -0.5194427,0.23316 -1.7086147,0.23316 -2.2309512,-0.0431 -1.19925855,-0.63359 -1.64393721,-1.72798 -1.56338539,-4.34113 0,-2.14977 0.45586096,-4.65352 2.75724939,-4.70804 1.3289506,-0.18418 2.3393183,0.85164 2.4762311,1.76813 z m -3.3316201,2.35569 c -0.39916285,0.25305 -0.62384822,0.49065 -0.80301773,0.84612 -0.1466622,0.2921 -0.19757253,0.4446 -0.15531583,1.04871 0.10873232,1.55854 0.92436516,2.44335 2.10811456,2.268 0.6603452,-0.0994 1.02155,-0.4693 1.2289,-1.15701 0.382558,-1.27196 -0.1029445,-2.75978 -1.0118006,-3.10234 -0.4089122,-0.15546 -1.0410487,-0.11087 -1.3668804,0.0965 z m 0,0" />
    </g>
  </g>
</svg>
