<?xml version="1.0" encoding="UTF-8" standalone="no"?>
<!-- Created with Inkscape (http://www.inkscape.org/) -->

<svg
   xmlns:dc="http://purl.org/dc/elements/1.1/"
   xmlns:cc="http://creativecommons.org/ns#"
   xmlns:rdf="http://www.w3.org/1999/02/22-rdf-syntax-ns#"
   xmlns:svg="http://www.w3.org/2000/svg"
   xmlns="http://www.w3.org/2000/svg"
   xmlns:sodipodi="http://sodipodi.sourceforge.net/DTD/sodipodi-0.dtd"
   xmlns:inkscape="http://www.inkscape.org/namespaces/inkscape"
   width="62.999821mm"
   height="88.000175mm"
   viewBox="0 0 62.999821 88.000175"
   version="1.1"
   id="svg821"
   inkscape:version="0.92.1 r15371"
   sodipodi:docname="d11.svg">
  <defs
     id="defs815" />
  <sodipodi:namedview
     id="base"
     pagecolor="#ffffff"
     bordercolor="#666666"
     borderopacity="1.0"
     inkscape:pageopacity="0.0"
     inkscape:pageshadow="2"
     inkscape:zoom="0.5"
     inkscape:cx="441.49294"
     inkscape:cy="-75.304097"
     inkscape:document-units="mm"
     inkscape:current-layer="layer1"
     showgrid="false"
     fit-margin-top="0"
     fit-margin-left="0"
     fit-margin-right="0"
     fit-margin-bottom="0"
     inkscape:window-width="773"
     inkscape:window-height="747"
     inkscape:window-x="736"
     inkscape:window-y="190"
     inkscape:window-maximized="0" />
  <metadata
     id="metadata818">
    <rdf:RDF>
      <cc:Work
         rdf:about="">
        <dc:format>image/svg+xml</dc:format>
        <dc:type
           rdf:resource="http://purl.org/dc/dcmitype/StillImage" />
        <dc:title></dc:title>
      </cc:Work>
    </rdf:RDF>
  </metadata>
  <g
     inkscape:label="レイヤー 1"
     inkscape:groupmode="layer"
     id="layer1"
     transform="translate(10.978341,-40.908939)">
    <g
       id="g35">
      <rect
         y="41.049679"
         x="-10.83778"
         height="87.718697"
         width="62.7187"
         id="rect7098-3"
         style="display:inline;fill:#ffffff;fill-opacity:1;stroke:#000000;stroke-width:0.28130031;stroke-miterlimit:4;stroke-dasharray:none;stroke-opacity:1"
         rx="2.9999998"
         ry="2.9999998" />
      <path
         inkscape:connector-curvature="0"
         id="path7130-4"
         d="m -5.8820118,60.734561 c -0.607131,-1.003918 -1.2458701,-1.979677 -2.0441115,-2.8132 0.7982414,-0.833495 1.4369805,-1.809254 2.0441115,-2.813201 0.6071309,1.003947 1.2458982,1.979706 2.0441114,2.813201 -0.7982132,0.833523 -1.4369805,1.809282 -2.0441114,2.8132 z"
         style="opacity:1;fill:#d40000;stroke-width:0.28114101" />
      <path
         style="opacity:1;fill:#d40000;stroke-width:0.28114101"
         d="m 46.925399,114.70993 c -0.607131,-1.00392 -1.245898,-1.97968 -2.044111,-2.8132 0.798213,-0.83349 1.43698,-1.80925 2.044111,-2.8132 0.607131,1.00395 1.24587,1.97971 2.044112,2.8132 -0.798242,0.83352 -1.436981,1.80928 -2.044112,2.8132 z"
         id="path7134-0"
         inkscape:connector-curvature="0" />
      <path
         style="opacity:1;fill:#d40000;fill-opacity:1;stroke-width:0.28114101"
         inkscape:connector-curvature="0"
         id="path35-67-2-1-9"
         d="m -5.9120186,44.942531 v 0.971736 h 0.9424592 c 0,0 0.022758,0.936767 0.031046,2.923703 0.0073,1.929489 0.046612,2.886512 -0.076225,3.436099 -0.3301585,1.266446 -2.1630427,1.273451 -2.5271415,0.362846 -0.2116768,-0.529697 -0.1553439,-0.94155 -0.1650933,-1.474932 h -1.0132616 c 0,0 0.0059,0.268548 0.00731,0.59713 0.0059,1.42407 0.4768208,2.105174 1.5789226,2.373722 1.1331762,0.30647 2.4581652,-0.160971 2.9292262,-1.130513 0.2806531,-0.552541 0.248511,-0.590491 0.2553665,-3.931532 0.00421,-2.228955 0.03793,-3.156523 0.03793,-3.156523 h 0.8676952 v -0.971736 h -2.8681732 z m 0,0" />
      <path
         style="opacity:1;fill:#d40000;fill-opacity:1;stroke-width:0.28114101"
         inkscape:connector-curvature="0"
         id="path35-6-7-1-4"
         d="m 46.955406,124.87557 v -0.97176 h -0.942459 c 0,0 -0.02276,-0.93674 -0.03105,-2.9237 -0.0073,-1.92949 -0.04661,-2.88649 0.07623,-3.43608 0.330158,-1.26644 2.163042,-1.27345 2.527141,-0.36284 0.211677,0.52969 0.155344,0.94152 0.165093,1.47493 h 1.013262 c 0,0 -0.0059,-0.26855 -0.0073,-0.59713 -0.0059,-1.4241 -0.476821,-2.1052 -1.578923,-2.37372 -1.133176,-0.3065 -2.458165,0.16097 -2.929226,1.13048 -0.280653,0.55257 -0.248511,0.59049 -0.255366,3.93156 -0.0042,2.22896 -0.03793,3.1565 -0.03793,3.1565 h -0.867695 v 0.97176 h 2.868173 z m 0,0" />
    </g>
  </g>
</svg>
