<?xml version="1.0" encoding="UTF-8" standalone="no"?>
<!-- Created with Inkscape (http://www.inkscape.org/) -->

<svg
   xmlns:dc="http://purl.org/dc/elements/1.1/"
   xmlns:cc="http://creativecommons.org/ns#"
   xmlns:rdf="http://www.w3.org/1999/02/22-rdf-syntax-ns#"
   xmlns:svg="http://www.w3.org/2000/svg"
   xmlns="http://www.w3.org/2000/svg"
   xmlns:sodipodi="http://sodipodi.sourceforge.net/DTD/sodipodi-0.dtd"
   xmlns:inkscape="http://www.inkscape.org/namespaces/inkscape"
   width="62.999821mm"
   height="88.000175mm"
   viewBox="0 0 62.999821 88.000175"
   version="1.1"
   id="svg821"
   inkscape:version="0.92.1 r15371"
   sodipodi:docname="d12.svg">
  <defs
     id="defs815" />
  <sodipodi:namedview
     id="base"
     pagecolor="#ffffff"
     bordercolor="#666666"
     borderopacity="1.0"
     inkscape:pageopacity="0.0"
     inkscape:pageshadow="2"
     inkscape:zoom="0.5"
     inkscape:cx="508.54773"
     inkscape:cy="376.99544"
     inkscape:document-units="mm"
     inkscape:current-layer="layer1"
     showgrid="false"
     fit-margin-top="0"
     fit-margin-left="0"
     fit-margin-right="0"
     fit-margin-bottom="0"
     inkscape:window-width="773"
     inkscape:window-height="747"
     inkscape:window-x="736"
     inkscape:window-y="190"
     inkscape:window-maximized="0" />
  <metadata
     id="metadata818">
    <rdf:RDF>
      <cc:Work
         rdf:about="">
        <dc:format>image/svg+xml</dc:format>
        <dc:type
           rdf:resource="http://purl.org/dc/dcmitype/StillImage" />
        <dc:title></dc:title>
      </cc:Work>
    </rdf:RDF>
  </metadata>
  <g
     inkscape:label="レイヤー 1"
     inkscape:groupmode="layer"
     id="layer1"
     transform="translate(28.71992,-160.57986)">
    <g
       id="g35">
      <rect
         ry="2.9999998"
         rx="2.9999998"
         style="display:inline;fill:#ffffff;fill-opacity:1;stroke:#000000;stroke-width:0.28130031;stroke-miterlimit:4;stroke-dasharray:none;stroke-opacity:1"
         id="rect7166-7"
         width="62.7187"
         height="87.718697"
         x="-28.579359"
         y="160.7206" />
      <path
         inkscape:connector-curvature="0"
         id="path7198-0"
         d="m -23.623591,180.4055 c -0.607131,-1.00392 -1.245898,-1.97968 -2.044111,-2.8132 0.798213,-0.83349 1.43698,-1.80925 2.044111,-2.8132 0.607131,1.00395 1.24587,1.97971 2.044112,2.8132 -0.798242,0.83352 -1.436981,1.80928 -2.044112,2.8132 z"
         style="display:inline;opacity:1;fill:#d40000;stroke-width:0.28114101" />
      <path
         style="display:inline;opacity:1;fill:#d40000;stroke-width:0.28114101"
         d="m 29.183792,234.38086 c -0.607131,-1.00392 -1.245898,-1.97968 -2.044111,-2.8132 0.798213,-0.8335 1.43698,-1.80925 2.044111,-2.8132 0.607131,1.00395 1.24587,1.9797 2.044112,2.8132 -0.798242,0.83352 -1.436981,1.80928 -2.044112,2.8132 z"
         id="path7202-9"
         inkscape:connector-curvature="0" />
      <path
         style="opacity:1;fill:#d40000;fill-opacity:1;stroke-width:0.28114101"
         inkscape:connector-curvature="0"
         id="path37-2-1-6-5"
         d="m -25.665792,170.82503 h -0.774837 v -1.05762 h 0.774837 c 0,0 0.0059,-0.5699 0.02818,-1.57522 0.04804,-2.1429 0.101483,-2.47556 0.721005,-3.06535 1.223477,-1.16556 3.272365,-0.21586 3.248146,1.53691 -0.0354,2.47373 -0.0098,4.83212 -0.08198,5.16624 -0.128259,0.58833 -0.141239,0.62147 -0.08887,0.72905 0.107271,0.21588 1.03276,0.30945 1.03276,0.24902 v 1.04181 c -0.706928,0.0549 -1.000618,-0.0115 -1.566279,-0.41593 -0.352916,0.34113 -1.427933,0.68375 -2.282957,0.28073 -0.650231,-0.3065 -1.142954,-1.09816 -1.010003,-2.88964 z m 2.618904,1.84636 c -0.383991,-0.55552 -1.030232,-1.31368 -1.638177,-1.58296 -0.03793,0.6388 0.01714,1.17443 0.241318,1.4625 0.356878,0.45864 0.933777,0.56363 1.396859,0.12046 z m 0.318611,-6.11004 c -0.285008,-0.80823 -1.017223,-1.08232 -1.552203,-0.57654 -0.334485,0.31463 -0.387953,0.6458 -0.395173,2.44462 -0.0042,1.10958 -0.0042,1.57595 -0.0042,1.57595 1.041442,0.33818 2.014948,1.55384 2.006631,1.53801 l 0.02529,-3.35562 c 0.02023,-0.54447 -0.0067,-1.08969 -0.08019,-1.62642 v 0 z m 0,0" />
      <path
         style="opacity:1;fill:#d40000;fill-opacity:1;stroke-width:0.28114101"
         inkscape:connector-curvature="0"
         id="path37-3-27-1-5"
         d="m 31.225993,238.33487 h 0.774837 v 1.05765 h -0.774837 c 0,0 -0.0059,0.5699 -0.02818,1.57522 -0.04804,2.1429 -0.101484,2.47556 -0.721005,3.06535 -1.223478,1.16557 -3.272365,0.21586 -3.248147,-1.53691 0.0354,-2.47373 0.0098,-4.83212 0.08198,-5.16627 0.128259,-0.5883 0.14124,-0.62146 0.08887,-0.72901 -0.107271,-0.21589 -1.03276,-0.30945 -1.03276,-0.24903 v -1.04181 c 0.706929,-0.0549 1.000618,0.0115 1.566279,0.4159 0.352917,-0.34112 1.427934,-0.68372 2.282958,-0.2807 0.65023,0.3065 1.142953,1.09816 1.010002,2.88961 z m -2.618904,-1.84633 c 0.383991,0.55552 1.030232,1.31365 1.638178,1.58293 0.03793,-0.63877 -0.01714,-1.1744 -0.241318,-1.46247 -0.356878,-0.45864 -0.933778,-0.56363 -1.39686,-0.12046 z m -0.318611,6.11004 c 0.285008,0.80824 1.017224,1.08233 1.552204,0.57651 0.334485,-0.3146 0.387952,-0.64577 0.395173,-2.44458 0.0042,-1.10959 0.0042,-1.57599 0.0042,-1.57599 -1.041442,-0.33817 -2.014947,-1.55384 -2.006631,-1.538 l -0.02529,3.35564 c -0.02023,0.54447 0.0067,1.08969 0.08019,1.62642 v 0 z m 0,0" />
    </g>
  </g>
</svg>
