<?xml version="1.0" encoding="UTF-8" standalone="no"?>
<!-- Created with Inkscape (http://www.inkscape.org/) -->

<svg
   xmlns:dc="http://purl.org/dc/elements/1.1/"
   xmlns:cc="http://creativecommons.org/ns#"
   xmlns:rdf="http://www.w3.org/1999/02/22-rdf-syntax-ns#"
   xmlns:svg="http://www.w3.org/2000/svg"
   xmlns="http://www.w3.org/2000/svg"
   xmlns:sodipodi="http://sodipodi.sourceforge.net/DTD/sodipodi-0.dtd"
   xmlns:inkscape="http://www.inkscape.org/namespaces/inkscape"
   width="62.999821mm"
   height="88.000175mm"
   viewBox="0 0 62.999821 88.000175"
   version="1.1"
   id="svg821"
   inkscape:version="0.92.1 r15371"
   sodipodi:docname="d13.svg">
  <defs
     id="defs815" />
  <sodipodi:namedview
     id="base"
     pagecolor="#ffffff"
     bordercolor="#666666"
     borderopacity="1.0"
     inkscape:pageopacity="0.0"
     inkscape:pageshadow="2"
     inkscape:zoom="0.5"
     inkscape:cx="465.60232"
     inkscape:cy="77.294989"
     inkscape:document-units="mm"
     inkscape:current-layer="layer1"
     showgrid="false"
     fit-margin-top="0"
     fit-margin-left="0"
     fit-margin-right="0"
     fit-margin-bottom="0"
     inkscape:window-width="773"
     inkscape:window-height="747"
     inkscape:window-x="736"
     inkscape:window-y="190"
     inkscape:window-maximized="0" />
  <metadata
     id="metadata818">
    <rdf:RDF>
      <cc:Work
         rdf:about="">
        <dc:format>image/svg+xml</dc:format>
        <dc:type
           rdf:resource="http://purl.org/dc/dcmitype/StillImage" />
        <dc:title></dc:title>
      </cc:Work>
    </rdf:RDF>
  </metadata>
  <g
     inkscape:label="レイヤー 1"
     inkscape:groupmode="layer"
     id="layer1"
     transform="translate(17.35728,-81.284115)">
    <g
       id="g35">
      <rect
         y="81.424858"
         x="-17.216719"
         height="87.718697"
         width="62.7187"
         id="rect7234-2"
         style="display:inline;fill:#ffffff;fill-opacity:1;stroke:#000000;stroke-width:0.28130031;stroke-miterlimit:4;stroke-dasharray:none;stroke-opacity:1"
         rx="2.9999998"
         ry="2.9999998" />
      <path
         style="fill:#d40000;stroke-width:0.28114101"
         d="m -12.260978,101.10975 c -0.607131,-1.00392 -1.245898,-1.979679 -2.044111,-2.813202 0.798213,-0.833495 1.43698,-1.809254 2.044111,-2.813201 0.607131,1.003947 1.24587,1.979706 2.044112,2.813201 -0.798242,0.833523 -1.436981,1.809282 -2.044112,2.813202 z"
         id="path12538"
         inkscape:connector-curvature="0" />
      <path
         inkscape:connector-curvature="0"
         id="path12542"
         d="m 40.546433,149.45871 c -0.607131,1.00394 -1.245898,1.9797 -2.044111,2.8132 0.798213,0.83352 1.43698,1.80928 2.044111,2.8132 0.607131,-1.00392 1.24587,-1.97968 2.044112,-2.8132 -0.798242,-0.8335 -1.436981,-1.80926 -2.044112,-2.8132 z"
         style="fill:#d40000;stroke-width:0.28114101" />
      <path
         d="m -12.036911,93.57865 h 0.93271 l -1.370168,-3.427884 -1.046864,1.447982 0.0073,1.979902 h 0.735137 v 1.021051 H -15.36957 V 93.57865 h 0.853591 v -7.371831 l -0.853591,0.0034 v -0.892516 h 2.628709 v 0.922729 h -0.725388 l -0.01545,3.592896 2.294589,-3.623109 h -0.809901 v -0.892516 h 2.7966965 v 0.892516 h -0.737975 l -1.8893015,2.960809 1.8499106,4.409166 h 0.8210836 l 0.00421,1.021079 h -2.8758152 l -0.0087,-1.022542 z m 0,0"
         id="path12544"
         inkscape:connector-curvature="0"
         style="fill:#d40000;fill-opacity:1;stroke-width:0.28114101" />
      <path
         d="m 40.322366,156.98978 h -0.93271 l 1.370168,3.42789 1.046865,-1.44801 -0.0073,-1.97988 h -0.735138 v -1.02107 h 2.59078 v 1.02107 H 42.80144 v 7.37183 l 0.853591,-0.003 v 0.89252 h -2.62871 v -0.92273 h 0.725388 l 0.01545,-3.59291 -2.294589,3.62312 h 0.809901 v 0.89252 h -2.796696 v -0.89252 h 0.737975 l 1.889301,-2.96081 -1.84991,-4.40915 h -0.821084 l -0.0042,-1.02108 h 2.875815 l 0.0087,1.02254 z m 0,0"
         id="path12546"
         inkscape:connector-curvature="0"
         style="fill:#d40000;fill-opacity:1;stroke-width:0.28114101" />
    </g>
  </g>
</svg>
