<?xml version="1.0" encoding="UTF-8" standalone="no"?>
<!-- Created with Inkscape (http://www.inkscape.org/) -->

<svg
   xmlns:dc="http://purl.org/dc/elements/1.1/"
   xmlns:cc="http://creativecommons.org/ns#"
   xmlns:rdf="http://www.w3.org/1999/02/22-rdf-syntax-ns#"
   xmlns:svg="http://www.w3.org/2000/svg"
   xmlns="http://www.w3.org/2000/svg"
   xmlns:sodipodi="http://sodipodi.sourceforge.net/DTD/sodipodi-0.dtd"
   xmlns:inkscape="http://www.inkscape.org/namespaces/inkscape"
   width="63mm"
   height="88mm"
   viewBox="0 0 63 88"
   version="1.1"
   id="svg821"
   inkscape:version="0.92.1 r15371"
   sodipodi:docname="h01.svg">
  <defs
     id="defs815" />
  <sodipodi:namedview
     id="base"
     pagecolor="#ffffff"
     bordercolor="#666666"
     borderopacity="1.0"
     inkscape:pageopacity="0.0"
     inkscape:pageshadow="2"
     inkscape:zoom="0.5"
     inkscape:cx="119.05512"
     inkscape:cy="166.29923"
     inkscape:document-units="mm"
     inkscape:current-layer="layer1"
     showgrid="false"
     fit-margin-top="0"
     fit-margin-left="0"
     fit-margin-right="0"
     fit-margin-bottom="0"
     inkscape:window-width="982"
     inkscape:window-height="626"
     inkscape:window-x="819"
     inkscape:window-y="279"
     inkscape:window-maximized="0" />
  <metadata
     id="metadata818">
    <rdf:RDF>
      <cc:Work
         rdf:about="">
        <dc:format>image/svg+xml</dc:format>
        <dc:type
           rdf:resource="http://purl.org/dc/dcmitype/StillImage" />
        <dc:title></dc:title>
      </cc:Work>
    </rdf:RDF>
  </metadata>
  <g
     inkscape:label="レイヤー 1"
     inkscape:groupmode="layer"
     id="layer1"
     transform="translate(-74.333333,-104.83334)">
    <g
       id="g34">
      <g
         transform="matrix(0.28096287,0,0,0.2813195,1.3018787,0.80833535)"
         id="g9664-0-2"
         inkscape:label="5D"
         style="display:inline;opacity:1">
        <rect
           y="370.27557"
           x="260.43304"
           height="311.81104"
           width="223.22835"
           id="rect9666-2-2"
           style="display:inline;fill:#ffffff;fill-opacity:1;stroke:#000000;stroke-width:1.0005666;stroke-miterlimit:4;stroke-dasharray:none;stroke-opacity:1"
           rx="10.677567"
           ry="10.664032" />
      </g>
      <g
         id="g9684-3-0"
         style="display:inline;opacity:1"
         transform="matrix(0.28096287,0,0,0.2813195,74.473901,104.97408)" />
      <g
         transform="matrix(0.28096287,0,0,0.2813195,81.94514,99.374277)"
         id="g9690-5-6"
         style="display:inline;opacity:1" />
      <path
         id="path9698-0-0"
         d="m 79.311315,124.65893 c 0,0 -0.625058,-0.89735 -1.468227,-1.95239 -0.564089,-0.70602 -1.015034,-1.47052 -1.056982,-2.12901 -0.04807,-0.75222 0.407115,-1.50686 1.231207,-1.54344 0.823614,-0.0366 1.157904,0.57999 1.294002,1.08831 0.136099,-0.50832 0.470417,-1.12486 1.294003,-1.08831 0.824092,0.0366 1.279308,0.79122 1.231207,1.54344 -0.04192,0.65849 -0.492893,1.42299 -1.056954,2.12901 -0.843197,1.05504 -1.468256,1.95239 -1.468256,1.95239 z"
         style="display:inline;opacity:1;fill:#d40000;stroke-width:0.28114113"
         inkscape:connector-curvature="0"
         sodipodi:nodetypes="cccscsccc" />
      <path
         id="path9700-3-2"
         d="m 132.35556,173.0078 c 0,0 -0.62506,0.89735 -1.46823,1.95239 -0.56409,0.70602 -1.01503,1.47051 -1.05698,2.12901 -0.0481,0.75221 0.40711,1.50686 1.23121,1.54344 0.82361,0.0365 1.1579,-0.57999 1.294,-1.08831 0.1361,0.50832 0.47042,1.12486 1.294,1.08831 0.82409,-0.0366 1.27931,-0.79123 1.23121,-1.54344 -0.0419,-0.6585 -0.4929,-1.42299 -1.05696,-2.12901 -0.84319,-1.05504 -1.46825,-1.95239 -1.46825,-1.95239 z"
         style="display:inline;opacity:1;fill:#d40000;stroke-width:0.28114113"
         inkscape:connector-curvature="0"
         sodipodi:nodetypes="cccscsccc" />
      <path
         style="opacity:1;fill:#d40000;fill-opacity:1;stroke-width:0.28114113;stroke-miterlimit:4;stroke-dasharray:none"
         inkscape:connector-curvature="0"
         id="path41-87-8-3-9"
         d="m 76.475414,118.15044 v -0.7938 h 0.756436 l 1.611434,-8.48974 h 0.917175 l 1.775096,8.48974 h 0.610841 v 0.7938 h -2.081429 v -0.7938 h 0.561729 l -0.224321,-1.30102 h -2.099832 l -0.1622,1.30102 h 0.561701 v 0.7938 z m 3.747791,-3.02157 -0.912848,-4.54398 -0.855026,4.54398 z m 0,0" />
      <path
         style="opacity:1;fill:#d40000;fill-opacity:1;stroke-width:0.28114113"
         inkscape:connector-curvature="0"
         id="path41-8-5-1-8-7"
         d="m 129.51966,179.51627 v 0.7938 h 0.75644 l 1.61143,8.48974 h 0.91718 l 1.77509,-8.48974 h 0.61084 v -0.7938 h -2.08143 v 0.7938 h 0.56173 l -0.22432,1.30099 h -2.09983 l -0.1622,-1.30099 h 0.5617 v -0.7938 z m 3.74779,3.02157 -0.91285,4.54398 -0.85502,-4.54398 z m 0,0" />
    </g>
  </g>
</svg>
