<?xml version="1.0" encoding="UTF-8" standalone="no"?>
<!-- Created with Inkscape (http://www.inkscape.org/) -->

<svg
   xmlns:dc="http://purl.org/dc/elements/1.1/"
   xmlns:cc="http://creativecommons.org/ns#"
   xmlns:rdf="http://www.w3.org/1999/02/22-rdf-syntax-ns#"
   xmlns:svg="http://www.w3.org/2000/svg"
   xmlns="http://www.w3.org/2000/svg"
   xmlns:sodipodi="http://sodipodi.sourceforge.net/DTD/sodipodi-0.dtd"
   xmlns:inkscape="http://www.inkscape.org/namespaces/inkscape"
   width="63mm"
   height="88mm"
   viewBox="0 0 63 88"
   version="1.1"
   id="svg821"
   inkscape:version="0.92.1 r15371"
   sodipodi:docname="h02.svg">
  <defs
     id="defs815" />
  <sodipodi:namedview
     id="base"
     pagecolor="#ffffff"
     bordercolor="#666666"
     borderopacity="1.0"
     inkscape:pageopacity="0.0"
     inkscape:pageshadow="2"
     inkscape:zoom="0.5"
     inkscape:cx="250.88976"
     inkscape:cy="26.59844"
     inkscape:document-units="mm"
     inkscape:current-layer="layer1"
     showgrid="false"
     fit-margin-top="0"
     fit-margin-left="0"
     fit-margin-right="0"
     fit-margin-bottom="0"
     inkscape:window-width="722"
     inkscape:window-height="643"
     inkscape:window-x="875"
     inkscape:window-y="294"
     inkscape:window-maximized="0" />
  <metadata
     id="metadata818">
    <rdf:RDF>
      <cc:Work
         rdf:about="">
        <dc:format>image/svg+xml</dc:format>
        <dc:type
           rdf:resource="http://purl.org/dc/dcmitype/StillImage" />
        <dc:title></dc:title>
      </cc:Work>
    </rdf:RDF>
  </metadata>
  <g
     inkscape:label="レイヤー 1"
     inkscape:groupmode="layer"
     id="layer1"
     transform="translate(83.637503,-67.870835)">
    <g
       id="g60">
      <g
         transform="matrix(0.28096287,0,0,0.2813195,-156.66896,-36.154165)"
         id="g9732-9-3"
         inkscape:label="5D"
         style="display:inline;opacity:1">
        <rect
           y="370.27557"
           x="260.43304"
           height="311.81104"
           width="223.22835"
           id="rect9734-4-5"
           style="display:inline;fill:#ffffff;fill-opacity:1;stroke:#000000;stroke-width:1.0005666;stroke-miterlimit:4;stroke-dasharray:none;stroke-opacity:1"
           rx="10.677567"
           ry="10.664032" />
      </g>
      <g
         id="g9752-8-0"
         style="display:inline;opacity:1"
         transform="matrix(0.28096287,0,0,0.2813195,-83.496935,68.011582)" />
      <g
         transform="matrix(0.28096287,0,0,0.2813195,-76.025696,62.411777)"
         id="g9758-0-6"
         style="display:inline;opacity:1" />
      <path
         id="path9766-0-8"
         d="m -78.659522,87.696426 c 0,0 -0.625058,-0.897348 -1.468227,-1.952386 -0.564089,-0.706025 -1.015034,-1.470519 -1.056982,-2.129012 -0.04807,-0.752214 0.407115,-1.506862 1.231207,-1.543439 0.823614,-0.03655 1.157904,0.57999 1.294002,1.088309 0.136099,-0.508319 0.470417,-1.124861 1.294003,-1.088309 0.824092,0.03658 1.279308,0.791225 1.231207,1.543439 -0.04192,0.658493 -0.492893,1.422987 -1.056954,2.129012 -0.843197,1.055038 -1.468256,1.952386 -1.468256,1.952386 z"
         style="display:inline;opacity:1;fill:#d40000;stroke-width:0.28114113"
         inkscape:connector-curvature="0"
         sodipodi:nodetypes="cccscsccc" />
      <path
         id="path9768-3-3"
         d="m -25.615278,136.0453 c 0,0 -0.625058,0.89735 -1.468228,1.95239 -0.564089,0.70602 -1.015034,1.47051 -1.056982,2.12901 -0.04807,0.75221 0.407115,1.50686 1.231207,1.54344 0.823615,0.0366 1.157904,-0.57999 1.294003,-1.08831 0.136098,0.50832 0.470416,1.12486 1.294002,1.08831 0.824092,-0.0366 1.279308,-0.79123 1.231207,-1.54344 -0.04192,-0.6585 -0.492893,-1.42299 -1.056953,-2.12901 -0.843198,-1.05504 -1.468256,-1.95239 -1.468256,-1.95239 z"
         style="display:inline;opacity:1;fill:#d40000;stroke:none;stroke-width:0.28114113;stroke-opacity:1"
         inkscape:connector-curvature="0"
         sodipodi:nodetypes="cccscsccc" />
      <path
         style="opacity:1;fill:#d40000;fill-opacity:1;stroke-width:0.28114113;stroke-miterlimit:4;stroke-dasharray:none"
         inkscape:connector-curvature="0"
         id="path15-34-0-0-4"
         d="m -81.29872,81.168051 0.04518,-0.572485 c 0.142673,-1.769022 0.52231,-2.365813 2.67561,-4.212535 1.045406,-0.895214 1.388209,-1.336914 1.436254,-1.849338 0.136913,-1.208689 -0.931252,-1.58591 -1.626972,-1.591452 -0.901638,-0.0082 -1.921758,0.541174 -1.434821,1.818027 l -1.011803,0.303178 c -0.203361,-1.191022 0.0059,-2.308339 0.952576,-2.804193 1.264305,-0.646528 2.885489,-0.393059 3.704046,0.625542 0.550153,0.683382 0.675856,1.629009 0.380733,2.369104 -0.862247,1.89058 -3.787127,2.722414 -4.028446,4.909926 h 3.232646 v -1.217917 h 0.952577 v 2.242032 l -5.277578,-0.01997 z m 0,0" />
      <path
         style="opacity:1;fill:#d40000;fill-opacity:1;stroke-width:0.28114113"
         inkscape:connector-curvature="0"
         id="path15-5-4-5-2-7"
         d="m -22.976895,142.57366 -0.04518,0.57249 c -0.142673,1.76899 -0.52231,2.36578 -2.67561,4.21253 -1.045407,0.89519 -1.388209,1.33689 -1.436254,1.84934 -0.136913,1.20869 0.931251,1.58591 1.626972,1.59145 0.901638,0.008 1.921758,-0.54117 1.434821,-1.81803 l 1.011803,-0.30317 c 0.203361,1.19099 -0.0059,2.30834 -0.952576,2.80419 -1.264305,0.64653 -2.885489,0.39306 -3.704046,-0.62554 -0.550153,-0.68336 -0.675856,-1.62901 -0.380733,-2.36911 0.862247,-1.89058 3.787127,-2.72241 4.028446,-4.90992 h -3.232647 v 1.21791 h -0.952576 v -2.24203 l 5.277578,0.02 z m 0,0" />
    </g>
  </g>
</svg>
