<?xml version="1.0" encoding="UTF-8" standalone="no"?>
<!-- Created with Inkscape (http://www.inkscape.org/) -->

<svg
   xmlns:dc="http://purl.org/dc/elements/1.1/"
   xmlns:cc="http://creativecommons.org/ns#"
   xmlns:rdf="http://www.w3.org/1999/02/22-rdf-syntax-ns#"
   xmlns:svg="http://www.w3.org/2000/svg"
   xmlns="http://www.w3.org/2000/svg"
   xmlns:sodipodi="http://sodipodi.sourceforge.net/DTD/sodipodi-0.dtd"
   xmlns:inkscape="http://www.inkscape.org/namespaces/inkscape"
   width="63mm"
   height="88mm"
   viewBox="0 0 63 88"
   version="1.1"
   id="svg821"
   inkscape:version="0.92.1 r15371"
   sodipodi:docname="h03.svg">
  <defs
     id="defs815" />
  <sodipodi:namedview
     id="base"
     pagecolor="#ffffff"
     bordercolor="#666666"
     borderopacity="1.0"
     inkscape:pageopacity="0.0"
     inkscape:pageshadow="2"
     inkscape:zoom="0.5"
     inkscape:cx="441.16537"
     inkscape:cy="104.89764"
     inkscape:document-units="mm"
     inkscape:current-layer="layer1"
     showgrid="false"
     fit-margin-top="0"
     fit-margin-left="0"
     fit-margin-right="0"
     fit-margin-bottom="0"
     inkscape:window-width="982"
     inkscape:window-height="626"
     inkscape:window-x="631"
     inkscape:window-y="280"
     inkscape:window-maximized="0" />
  <metadata
     id="metadata818">
    <rdf:RDF>
      <cc:Work
         rdf:about="">
        <dc:format>image/svg+xml</dc:format>
        <dc:type
           rdf:resource="http://purl.org/dc/dcmitype/StillImage" />
        <dc:title></dc:title>
      </cc:Work>
    </rdf:RDF>
  </metadata>
  <g
     inkscape:label="レイヤー 1"
     inkscape:groupmode="layer"
     id="layer1"
     transform="translate(10.891671,-88.587495)">
    <g
       id="g98">
      <g
         transform="matrix(0.28096287,0,0,0.2813195,-83.923126,-15.437505)"
         id="g9800-8-2"
         inkscape:label="5D"
         style="display:inline;opacity:1">
        <rect
           y="370.27557"
           x="260.43304"
           height="311.81104"
           width="223.22835"
           id="rect9802-4-3"
           style="display:inline;fill:#ffffff;fill-opacity:1;stroke:#000000;stroke-width:1.0005666;stroke-miterlimit:4;stroke-dasharray:none;stroke-opacity:1"
           rx="10.677567"
           ry="10.664032" />
      </g>
      <g
         id="g9820-5-5"
         style="display:inline;opacity:1"
         transform="matrix(0.28096287,0,0,0.2813195,-10.751117,88.728242)" />
      <g
         transform="matrix(0.28096287,0,0,0.2813195,-3.2798649,83.128437)"
         id="g9826-3-1"
         style="display:inline;opacity:1" />
      <path
         id="path9834-5-2"
         d="m -5.9136926,108.41309 c 0,0 -0.6250581,-0.89735 -1.4682271,-1.95239 -0.5640891,-0.70602 -1.0150345,-1.47052 -1.0569823,-2.12901 -0.048073,-0.75222 0.4071152,-1.50686 1.2312074,-1.54344 0.823614,-0.0366 1.1579036,0.57999 1.294002,1.08831 0.1360984,-0.50832 0.4704162,-1.12486 1.2940026,-1.08831 0.8240922,0.0366 1.2793083,0.79122 1.2312074,1.54344 -0.04192,0.65849 -0.4928931,1.42299 -1.0569542,2.12901 -0.8431977,1.05504 -1.4682558,1.95239 -1.4682558,1.95239 z"
         style="display:inline;opacity:1;fill:#d40000;stroke-width:0.28114113"
         inkscape:connector-curvature="0"
         sodipodi:nodetypes="cccscsccc" />
      <path
         id="path9836-5-8"
         d="m 47.130551,156.76196 c 0,0 -0.625058,0.89735 -1.468228,1.95239 -0.564089,0.70602 -1.015034,1.47051 -1.056982,2.12901 -0.04807,0.75221 0.407115,1.50686 1.231207,1.54344 0.823615,0.0366 1.157904,-0.57999 1.294003,-1.08831 0.136098,0.50832 0.470416,1.12486 1.294002,1.08831 0.824092,-0.0366 1.279308,-0.79123 1.231207,-1.54344 -0.04192,-0.6585 -0.492893,-1.42299 -1.056953,-2.12901 -0.843198,-1.05504 -1.468256,-1.95239 -1.468256,-1.95239 z"
         style="display:inline;opacity:1;fill:#d40000;stroke:none;stroke-width:0.28114113;stroke-opacity:1"
         inkscape:connector-curvature="0"
         sodipodi:nodetypes="cccscsccc" />
      <path
         style="opacity:1;fill:#d40000;fill-opacity:1;stroke-width:0.28114113;stroke-miterlimit:4;stroke-dasharray:none"
         inkscape:connector-curvature="0"
         id="path17-2-9-8-4"
         d="m -8.9232289,99.869648 0.7138143,-0.525646 c 0.619495,1.010048 1.3123213,1.675288 2.3721695,1.561098 1.5901374,-0.1094 2.2490235,-1.778417 1.9163353,-3.036 -0.3218429,-1.128288 -1.6385473,-1.677874 -2.6853869,-1.076356 -0.2470787,0.142572 -0.4854757,0.258954 -0.5320875,0.258954 -0.1098003,0 -0.35834,-0.495066 -0.3243716,-0.646078 0.7025758,-1.027379 2.4086666,-2.827177 2.4086666,-2.827177 h -2.6655229 v 1.205286 h -1.0229858 v -2.162644 h 5.2096417 v 0.733766 c 0,0 -1.3957955,1.449498 -1.8570803,2.243298 1.1360734,0.04163 2.0517875,0.762516 2.3805141,1.902226 0.1918133,0.600054 0.1058387,1.972556 -0.1452297,2.564145 -0.4193652,0.98608 -1.5648508,1.78618 -2.6120275,1.8322 -1.7581252,0.11824 -2.6908095,-1.11501 -3.1564493,-2.027072 z m 0,0" />
      <path
         style="opacity:1;fill:#d40000;fill-opacity:1;stroke-width:0.28114113"
         inkscape:connector-curvature="0"
         id="path17-5-3-9-1-3"
         d="m 50.139268,165.30541 -0.713814,0.52565 c -0.619495,-1.01005 -1.312321,-1.67532 -2.372169,-1.5611 -1.590138,0.1094 -2.249024,1.77841 -1.916336,3.036 0.321843,1.12829 1.638548,1.67787 2.685387,1.07635 0.247079,-0.14257 0.485476,-0.25895 0.532088,-0.25895 0.1098,0 0.35834,0.49507 0.324371,0.64608 -0.702575,1.02738 -2.408666,2.82717 -2.408666,2.82717 h 2.665523 v -1.20528 h 1.022985 v 2.16264 h -5.209641 v -0.73376 c 0,0 1.395795,-1.4495 1.85708,-2.24333 -1.136073,-0.0416 -2.051787,-0.76249 -2.380514,-1.9022 -0.191813,-0.60005 -0.105839,-1.97255 0.14523,-2.56414 0.419365,-0.98608 1.56485,-1.78618 2.612027,-1.83221 1.758125,-0.11823 2.69081,1.11501 3.156449,2.02708 z m 0,0" />
    </g>
  </g>
</svg>
