<?xml version="1.0" encoding="UTF-8" standalone="no"?>
<!-- Created with Inkscape (http://www.inkscape.org/) -->

<svg
   xmlns:dc="http://purl.org/dc/elements/1.1/"
   xmlns:cc="http://creativecommons.org/ns#"
   xmlns:rdf="http://www.w3.org/1999/02/22-rdf-syntax-ns#"
   xmlns:svg="http://www.w3.org/2000/svg"
   xmlns="http://www.w3.org/2000/svg"
   xmlns:sodipodi="http://sodipodi.sourceforge.net/DTD/sodipodi-0.dtd"
   xmlns:inkscape="http://www.inkscape.org/namespaces/inkscape"
   width="63mm"
   height="88mm"
   viewBox="0 0 63 88"
   version="1.1"
   id="svg821"
   inkscape:version="0.92.1 r15371"
   sodipodi:docname="h04.svg">
  <defs
     id="defs815" />
  <sodipodi:namedview
     id="base"
     pagecolor="#ffffff"
     bordercolor="#666666"
     borderopacity="1.0"
     inkscape:pageopacity="0.0"
     inkscape:pageshadow="2"
     inkscape:zoom="0.5"
     inkscape:cx="382.04611"
     inkscape:cy="-36.803146"
     inkscape:document-units="mm"
     inkscape:current-layer="layer1"
     showgrid="false"
     fit-margin-top="0"
     fit-margin-left="0"
     fit-margin-right="0"
     fit-margin-bottom="0"
     inkscape:window-width="816"
     inkscape:window-height="597"
     inkscape:window-x="820"
     inkscape:window-y="279"
     inkscape:window-maximized="0" />
  <metadata
     id="metadata818">
    <rdf:RDF>
      <cc:Work
         rdf:about="">
        <dc:format>image/svg+xml</dc:format>
        <dc:type
           rdf:resource="http://purl.org/dc/dcmitype/StillImage" />
        <dc:title></dc:title>
      </cc:Work>
    </rdf:RDF>
  </metadata>
  <g
     inkscape:label="レイヤー 1"
     inkscape:groupmode="layer"
     id="layer1"
     transform="translate(122.29584,-51.095825)">
    <g
       id="g40">
      <g
         transform="matrix(0.28096287,0,0,0.2813195,-195.32729,-52.929175)"
         id="g9868-8-1"
         inkscape:label="5D"
         style="display:inline;opacity:1">
        <rect
           y="370.27557"
           x="260.43304"
           height="311.81104"
           width="223.22835"
           id="rect9870-7-0"
           style="display:inline;fill:#ffffff;fill-opacity:1;stroke:#000000;stroke-width:1.0005666;stroke-miterlimit:4;stroke-dasharray:none;stroke-opacity:1"
           rx="10.677567"
           ry="10.664032" />
      </g>
      <g
         id="g9888-2-1"
         style="display:inline;opacity:1"
         transform="matrix(0.28096287,0,0,0.2813195,-122.15529,51.236572)" />
      <g
         transform="matrix(0.28096287,0,0,0.2813195,-114.68403,45.636767)"
         id="g9894-0-0"
         style="display:inline;opacity:1" />
      <path
         id="path9902-6-7"
         d="m -117.31786,70.921416 c 0,-8.44e-4 -0.62506,-0.897348 -1.46823,-1.952386 -0.56409,-0.706025 -1.01503,-1.470519 -1.05698,-2.129012 -0.0481,-0.752214 0.40711,-1.506862 1.23121,-1.543439 0.82361,-0.03655 1.1579,0.57999 1.294,1.088309 0.1361,-0.508319 0.47041,-1.124861 1.294,-1.088309 0.82409,0.03658 1.27931,0.791225 1.23121,1.543439 -0.0419,0.658493 -0.4929,1.422987 -1.05696,2.129012 -0.84319,1.055038 -1.46772,1.951654 -1.46825,1.952386 z"
         style="display:inline;opacity:1;fill:#d40000;stroke-width:0.28114113"
         inkscape:connector-curvature="0" />
      <path
         id="path9904-6-0"
         d="m -64.273619,119.27029 c 0,8.4e-4 -0.625058,0.89735 -1.468228,1.95239 -0.564089,0.70602 -1.015034,1.47051 -1.056982,2.12901 -0.04807,0.75221 0.407115,1.50686 1.231207,1.54344 0.823615,0.0366 1.157904,-0.57999 1.294003,-1.08831 0.136098,0.50832 0.470416,1.12486 1.294002,1.08831 0.824092,-0.0366 1.279308,-0.79123 1.231207,-1.54344 -0.04192,-0.6585 -0.492893,-1.42299 -1.056953,-2.12901 -0.843198,-1.05504 -1.467722,-1.95166 -1.468256,-1.95239 z"
         style="display:inline;opacity:1;fill:#d40000;stroke-width:0.28114113"
         inkscape:connector-curvature="0" />
      <path
         style="opacity:1;fill:#d40000;fill-opacity:1;stroke-width:0.28114113;stroke-miterlimit:4;stroke-dasharray:none"
         inkscape:connector-curvature="0"
         id="path19-3-8-2-9"
         d="m -117.25324,64.411833 v -0.81999 h 0.73907 v -1.352584 h -3.69683 v -0.954405 l 4.00027,-6.155467 0.65346,0.0034 v 6.152176 h 1.13172 v 0.954376 h -1.13172 l -0.0213,1.352584 h 0.6195 v 0.821059 h -2.29415 z m 0.73907,-7.028908 -2.53979,3.902323 h 2.53979 z m 0,0" />
      <path
         style="opacity:1;fill:#d40000;fill-opacity:1;stroke-width:0.28114113"
         inkscape:connector-curvature="0"
         id="path19-4-46-0-1-9"
         d="m -64.339056,125.77988 v 0.81997 h -0.739073 v 1.35258 h 3.696825 v 0.95438 l -4.000265,6.15552 -0.653463,-0.003 v -6.15221 h -1.131719 v -0.95438 h 1.131719 l 0.02135,-1.35258 h -0.619495 v -0.82106 h 2.294146 z m -0.739073,7.02888 2.539792,-3.90232 h -2.539792 z m 0,0" />
    </g>
  </g>
</svg>
