<?xml version="1.0" encoding="UTF-8" standalone="no"?>
<!-- Created with Inkscape (http://www.inkscape.org/) -->

<svg
   xmlns:dc="http://purl.org/dc/elements/1.1/"
   xmlns:cc="http://creativecommons.org/ns#"
   xmlns:rdf="http://www.w3.org/1999/02/22-rdf-syntax-ns#"
   xmlns:svg="http://www.w3.org/2000/svg"
   xmlns="http://www.w3.org/2000/svg"
   xmlns:sodipodi="http://sodipodi.sourceforge.net/DTD/sodipodi-0.dtd"
   xmlns:inkscape="http://www.inkscape.org/namespaces/inkscape"
   width="63mm"
   height="88mm"
   viewBox="0 0 63 88"
   version="1.1"
   id="svg821"
   inkscape:version="0.92.1 r15371"
   sodipodi:docname="h05.svg">
  <defs
     id="defs815" />
  <sodipodi:namedview
     id="base"
     pagecolor="#ffffff"
     bordercolor="#666666"
     borderopacity="1.0"
     inkscape:pageopacity="0.0"
     inkscape:pageshadow="2"
     inkscape:zoom="0.5"
     inkscape:cx="579.94489"
     inkscape:cy="-68.50392"
     inkscape:document-units="mm"
     inkscape:current-layer="layer1"
     showgrid="false"
     fit-margin-top="0"
     fit-margin-left="0"
     fit-margin-right="0"
     fit-margin-bottom="0"
     inkscape:window-width="789"
     inkscape:window-height="711"
     inkscape:window-x="927"
     inkscape:window-y="253"
     inkscape:window-maximized="0" />
  <metadata
     id="metadata818">
    <rdf:RDF>
      <cc:Work
         rdf:about="">
        <dc:format>image/svg+xml</dc:format>
        <dc:type
           rdf:resource="http://purl.org/dc/dcmitype/StillImage" />
        <dc:title></dc:title>
      </cc:Work>
    </rdf:RDF>
  </metadata>
  <g
     inkscape:label="レイヤー 1"
     inkscape:groupmode="layer"
     id="layer1"
     transform="translate(140.56667,-42.708325)">
    <g
       id="g42">
      <g
         transform="matrix(0.28096287,0,0,0.2813195,-213.59813,-61.316675)"
         id="g9936-1-0"
         inkscape:label="5D"
         style="display:inline;opacity:1">
        <rect
           y="370.27557"
           x="260.43304"
           height="311.81104"
           width="223.22835"
           id="rect9938-9-5"
           style="display:inline;fill:#ffffff;fill-opacity:1;stroke:#000000;stroke-width:1.0005666;stroke-miterlimit:4;stroke-dasharray:none;stroke-opacity:1"
           rx="10.677567"
           ry="10.664032" />
      </g>
      <g
         id="g9956-4-1"
         style="display:inline;opacity:1"
         transform="matrix(0.28096287,0,0,0.2813195,-140.42613,42.849072)" />
      <g
         transform="matrix(0.28096287,0,0,0.2813195,-132.95487,37.249267)"
         id="g9962-7-4"
         style="display:inline;opacity:1" />
      <path
         id="path9970-5-6"
         d="m -135.5887,62.533916 c 0,0 -0.62506,-0.897348 -1.46823,-1.952386 -0.56409,-0.706025 -1.01504,-1.470519 -1.05698,-2.129012 -0.0481,-0.752214 0.40711,-1.506862 1.2312,-1.543439 0.82362,-0.03655 1.15791,0.57999 1.29401,1.088309 0.13609,-0.508319 0.47041,-1.124861 1.294,-1.088309 0.82409,0.03658 1.27931,0.791225 1.23121,1.543439 -0.0419,0.658493 -0.4929,1.422987 -1.05696,2.129012 -0.8432,1.055038 -1.46825,1.952386 -1.46825,1.952386 z"
         style="display:inline;opacity:1;fill:#d40000;stroke-width:0.28114113"
         inkscape:connector-curvature="0"
         sodipodi:nodetypes="cccscsccc" />
      <path
         id="path9972-9-9"
         d="m -82.544461,110.88279 c 0,0 -0.625058,0.89735 -1.468228,1.95239 -0.564089,0.70602 -1.015034,1.47051 -1.056982,2.12901 -0.04807,0.75221 0.407115,1.50686 1.231207,1.54344 0.823615,0.0365 1.157904,-0.57999 1.294003,-1.08831 0.136098,0.50832 0.470416,1.12486 1.294002,1.08831 0.824092,-0.0366 1.279308,-0.79123 1.231207,-1.54344 -0.04192,-0.6585 -0.492893,-1.42299 -1.056953,-2.12901 -0.843198,-1.05504 -1.468256,-1.95239 -1.468256,-1.95239 z"
         style="display:inline;opacity:1;fill:#d40000;stroke-width:0.28114113"
         inkscape:connector-curvature="0"
         sodipodi:nodetypes="cccscsccc" />
      <path
         style="opacity:1;fill:#d40000;fill-opacity:1;stroke-width:0.28114113;stroke-miterlimit:4;stroke-dasharray:none"
         inkscape:connector-curvature="0"
         id="path21-9-5-1-8"
         d="m -138.51153,53.622033 0.90886,-0.0087 c 0.17338,0.56036 0.55701,1.129891 1.07791,1.287936 1.47163,0.352578 2.41842,-0.486288 2.73017,-1.453324 0.37821,-1.173018 -0.008,-2.820144 -1.02158,-3.404782 -0.83949,-0.484826 -2.08682,-0.0759 -2.65971,0.961156 l -0.63649,-0.397138 0.34171,-3.865274 h 4.15811 v 0.913641 h -3.36953 l -0.0535,1.610273 c 0.72536,-0.519428 1.84011,-0.513914 2.56508,-0.149549 1.37304,0.667908 2.01096,2.186443 1.74438,3.976141 -0.36988,1.780134 -1.18555,2.788805 -3.02529,2.932869 -2.04637,0.01885 -2.76883,-1.416135 -2.76015,-2.403088 v 0 z m 0,0" />
      <path
         style="opacity:1;fill:#d40000;fill-opacity:1;stroke-width:0.28114113"
         inkscape:connector-curvature="0"
         id="path21-3-0-6-3-8"
         d="m -79.622445,119.79466 -0.908859,0.009 c -0.173382,-0.56036 -0.557009,-1.1299 -1.077914,-1.28794 -1.471627,-0.35258 -2.418416,0.48629 -2.730173,1.45332 -0.378204,1.17302 0.0084,2.82012 1.021581,3.40478 0.839489,0.48483 2.086824,0.0759 2.659707,-0.96115 l 0.636494,0.39714 -0.341707,3.86527 h -4.15811 v -0.91364 h 3.369531 l 0.05347,-1.6103 c -0.725362,0.51946 -1.84011,0.51394 -2.565078,0.14958 -1.373038,-0.66791 -2.010964,-2.18647 -1.744386,-3.97615 0.369887,-1.78013 1.185551,-2.7888 3.025295,-2.93286 2.046365,-0.0189 2.768833,1.41613 2.760152,2.40308 v 0 z m 0,0" />
    </g>
  </g>
</svg>
