<?xml version="1.0" encoding="UTF-8" standalone="no"?>
<!-- Created with Inkscape (http://www.inkscape.org/) -->

<svg
   xmlns:dc="http://purl.org/dc/elements/1.1/"
   xmlns:cc="http://creativecommons.org/ns#"
   xmlns:rdf="http://www.w3.org/1999/02/22-rdf-syntax-ns#"
   xmlns:svg="http://www.w3.org/2000/svg"
   xmlns="http://www.w3.org/2000/svg"
   xmlns:sodipodi="http://sodipodi.sourceforge.net/DTD/sodipodi-0.dtd"
   xmlns:inkscape="http://www.inkscape.org/namespaces/inkscape"
   width="63mm"
   height="88mm"
   viewBox="0 0 63 88"
   version="1.1"
   id="svg821"
   inkscape:version="0.92.1 r15371"
   sodipodi:docname="h06.svg">
  <defs
     id="defs815" />
  <sodipodi:namedview
     id="base"
     pagecolor="#ffffff"
     bordercolor="#666666"
     borderopacity="1.0"
     inkscape:pageopacity="0.0"
     inkscape:pageshadow="2"
     inkscape:zoom="0.5"
     inkscape:cx="587"
     inkscape:cy="293.79529"
     inkscape:document-units="mm"
     inkscape:current-layer="layer1"
     showgrid="false"
     fit-margin-top="0"
     fit-margin-left="0"
     fit-margin-right="0"
     fit-margin-bottom="0"
     inkscape:window-width="789"
     inkscape:window-height="711"
     inkscape:window-x="927"
     inkscape:window-y="253"
     inkscape:window-maximized="0" />
  <metadata
     id="metadata818">
    <rdf:RDF>
      <cc:Work
         rdf:about="">
        <dc:format>image/svg+xml</dc:format>
        <dc:type
           rdf:resource="http://purl.org/dc/dcmitype/StillImage" />
        <dc:title></dc:title>
      </cc:Work>
    </rdf:RDF>
  </metadata>
  <g
     inkscape:label="レイヤー 1"
     inkscape:groupmode="layer"
     id="layer1"
     transform="translate(142.43334,-138.56666)">
    <g
       id="g44">
      <g
         transform="matrix(0.28096287,0,0,0.2813195,-215.46479,34.541655)"
         id="g10004-9-9"
         inkscape:label="5D"
         style="display:inline;opacity:1">
        <rect
           y="370.27557"
           x="260.43304"
           height="311.81104"
           width="223.22835"
           id="rect10006-6-1"
           style="display:inline;fill:#ffffff;fill-opacity:1;stroke:#000000;stroke-width:1.0005666;stroke-miterlimit:4;stroke-dasharray:none;stroke-opacity:1"
           rx="10.677567"
           ry="10.664032" />
      </g>
      <g
         id="g10024-8-8"
         style="display:inline;opacity:1"
         transform="matrix(0.28096287,0,0,0.2813195,-142.29279,138.7074)" />
      <g
         transform="matrix(0.28096287,0,0,0.2813195,-134.82153,133.1076)"
         id="g10030-0-6"
         style="display:inline;opacity:1" />
      <path
         id="path10038-5-0"
         d="m -137.45536,158.39225 c 0,0 -0.62506,-0.89735 -1.46823,-1.95239 -0.56409,-0.70602 -1.01504,-1.47052 -1.05698,-2.12901 -0.0481,-0.75222 0.40711,-1.50686 1.2312,-1.54344 0.82362,-0.0366 1.15791,0.57999 1.29401,1.08831 0.13609,-0.50832 0.47041,-1.12486 1.294,-1.08831 0.82409,0.0366 1.27931,0.79122 1.23121,1.54344 -0.0419,0.65849 -0.4929,1.42299 -1.05696,2.12901 -0.8432,1.05504 -1.46825,1.95239 -1.46825,1.95239 z"
         style="display:inline;opacity:1;fill:#d40000;stroke-width:0.28114113"
         inkscape:connector-curvature="0"
         sodipodi:nodetypes="cccscsccc" />
      <path
         id="path10040-7-6"
         d="m -84.411121,206.74112 c 0,0 -0.625058,0.89735 -1.468228,1.95239 -0.564089,0.70602 -1.015034,1.47051 -1.056982,2.12901 -0.04807,0.75221 0.407115,1.50686 1.231207,1.54344 0.823615,0.0366 1.157904,-0.57999 1.294003,-1.08831 0.136098,0.50832 0.470416,1.12486 1.294002,1.08831 0.824092,-0.0366 1.279308,-0.79123 1.231207,-1.54344 -0.04192,-0.6585 -0.492893,-1.42299 -1.056953,-2.12901 -0.843198,-1.05504 -1.468256,-1.95239 -1.468256,-1.95239 z"
         style="display:inline;opacity:1;fill:#d40000;stroke-width:0.28114113"
         inkscape:connector-curvature="0"
         sodipodi:nodetypes="cccscsccc" />
      <path
         style="opacity:1;fill:#d40000;fill-opacity:1;stroke-width:0.28114113;stroke-miterlimit:4;stroke-dasharray:none"
         inkscape:connector-curvature="0"
         id="path23-5-2-7-3"
         d="m -140.17857,149.02775 c -0.11415,-0.78137 -0.11126,-2.80124 -0.018,-3.39876 0.2879,-1.83052 0.98615,-2.66821 2.1558,-2.94156 1.13607,-0.26636 2.732,0.0302 3.08202,1.56011 l -0.94968,0.0183 c -0.51366,-1.03442 -1.81336,-0.75813 -2.54558,-0.30797 -0.5841,0.35843 -0.84817,1.85519 -0.73511,1.9473 0,0 1.10466,-0.81929 1.97559,-0.75889 1.86104,0.19414 2.62866,1.81026 2.56362,3.33611 -0.0592,1.8357 -0.64046,3.30371 -2.61313,3.40132 -1.87551,-0.0726 -2.73486,-1.09633 -2.91547,-2.85609 v 0 z m 4.62552,-0.4848 c 0.0101,-1.27353 -0.56712,-2.22802 -1.66055,-2.33264 -1.09235,-0.10536 -2.19449,0.96222 -2.11826,2.26043 0.0762,1.30371 0.58013,2.40041 1.90513,2.3945 1.42504,-0.006 1.86682,-1.41571 1.87368,-2.32229 z m 0,0" />
      <path
         style="opacity:1;fill:#d40000;fill-opacity:1;stroke-width:0.28114113"
         inkscape:connector-curvature="0"
         id="path23-6-5-1-7-1"
         d="m -81.688703,216.10562 c 0.114155,0.78136 0.111233,2.80124 0.01798,3.39876 -0.287903,1.83052 -0.986152,2.6682 -2.155828,2.94156 -1.136074,0.26635 -2.731999,-0.0302 -3.082022,-1.56011 l 0.949682,-0.0183 c 0.513685,1.03441 1.813391,0.75813 2.545608,0.30796 0.584094,-0.35843 0.848143,-1.85519 0.735083,-1.94729 0,0 -1.104661,0.81928 -1.97559,0.75889 -1.861014,-0.19414 -2.628661,-1.81027 -2.563618,-3.33612 0.05923,-1.83569 0.640455,-3.3037 2.613123,-3.40132 1.87554,0.0726 2.734865,1.09633 2.915496,2.8561 v 0 z m -4.625548,0.4848 c -0.01011,1.27353 0.567124,2.22802 1.660575,2.33264 1.092328,0.10535 2.194461,-0.96222 2.118235,-2.26043 -0.0762,-1.30372 -0.580104,-2.40041 -1.905096,-2.39451 -1.425044,0.006 -1.86683,1.41572 -1.873714,2.3223 z m 0,0" />
    </g>
  </g>
</svg>
