<?xml version="1.0" encoding="UTF-8" standalone="no"?>
<!-- Created with Inkscape (http://www.inkscape.org/) -->

<svg
   xmlns:dc="http://purl.org/dc/elements/1.1/"
   xmlns:cc="http://creativecommons.org/ns#"
   xmlns:rdf="http://www.w3.org/1999/02/22-rdf-syntax-ns#"
   xmlns:svg="http://www.w3.org/2000/svg"
   xmlns="http://www.w3.org/2000/svg"
   xmlns:sodipodi="http://sodipodi.sourceforge.net/DTD/sodipodi-0.dtd"
   xmlns:inkscape="http://www.inkscape.org/namespaces/inkscape"
   width="63mm"
   height="88mm"
   viewBox="0 0 63 88"
   version="1.1"
   id="svg821"
   inkscape:version="0.92.1 r15371"
   sodipodi:docname="h07.svg">
  <defs
     id="defs815" />
  <sodipodi:namedview
     id="base"
     pagecolor="#ffffff"
     bordercolor="#666666"
     borderopacity="1.0"
     inkscape:pageopacity="0.0"
     inkscape:pageshadow="2"
     inkscape:zoom="0.5"
     inkscape:cx="487.66646"
     inkscape:cy="-155.9055"
     inkscape:document-units="mm"
     inkscape:current-layer="layer1"
     showgrid="false"
     fit-margin-top="0"
     fit-margin-left="0"
     fit-margin-right="0"
     fit-margin-bottom="0"
     inkscape:window-width="789"
     inkscape:window-height="711"
     inkscape:window-x="927"
     inkscape:window-y="253"
     inkscape:window-maximized="0" />
  <metadata
     id="metadata818">
    <rdf:RDF>
      <cc:Work
         rdf:about="">
        <dc:format>image/svg+xml</dc:format>
        <dc:type
           rdf:resource="http://purl.org/dc/dcmitype/StillImage" />
        <dc:title></dc:title>
      </cc:Work>
    </rdf:RDF>
  </metadata>
  <g
     inkscape:label="レイヤー 1"
     inkscape:groupmode="layer"
     id="layer1"
     transform="translate(161.7625,-19.58332)">
    <g
       id="g43">
      <rect
         ry="3.0000002"
         rx="2.9999998"
         style="display:inline;opacity:1;fill:#ffffff;fill-opacity:1;stroke:#000000;stroke-width:0.28130043;stroke-miterlimit:4;stroke-dasharray:none;stroke-opacity:1"
         id="rect10074-2-8"
         width="62.718876"
         height="87.718521"
         x="-161.62195"
         y="19.72406" />
      <g
         id="g10092-4-5"
         style="display:inline;opacity:1"
         transform="matrix(0.28096287,0,0,0.2813195,-161.62195,19.724062)" />
      <g
         transform="matrix(0.28096287,0,0,0.2813195,-154.15069,14.124257)"
         id="g10098-2-4"
         style="display:inline;opacity:1" />
      <path
         id="path10106-2-3"
         d="m -156.78452,39.408905 c 0,0 -0.62506,-0.897348 -1.46823,-1.952386 -0.56409,-0.706025 -1.01504,-1.470519 -1.05698,-2.129012 -0.0481,-0.752214 0.40711,-1.506862 1.2312,-1.543439 0.82362,-0.03655 1.15791,0.57999 1.29401,1.088309 0.13609,-0.508319 0.47041,-1.124861 1.294,-1.088309 0.82409,0.03658 1.27931,0.791225 1.23121,1.543439 -0.0419,0.658493 -0.4929,1.422987 -1.05696,2.129012 -0.8432,1.055038 -1.46825,1.952386 -1.46825,1.952386 z"
         style="display:inline;opacity:1;fill:#d40000;stroke-width:0.28114113"
         inkscape:connector-curvature="0"
         sodipodi:nodetypes="cccscsccc" />
      <path
         id="path10108-3-1"
         d="m -103.74028,87.75778 c 0,0 -0.62506,0.897347 -1.46823,1.952385 -0.56409,0.706025 -1.01503,1.470519 -1.05698,2.129012 -0.0481,0.752214 0.40711,1.506862 1.23121,1.54344 0.82361,0.03655 1.1579,-0.579991 1.294,-1.08831 0.1361,0.508319 0.47042,1.124861 1.294,1.08831 0.82409,-0.03658 1.27931,-0.791226 1.23121,-1.54344 -0.0419,-0.658493 -0.4929,-1.422987 -1.05696,-2.129012 -0.84319,-1.055038 -1.46825,-1.952385 -1.46825,-1.952385 z"
         style="display:inline;opacity:1;fill:#d40000;stroke:none;stroke-width:0.28114113;stroke-opacity:1"
         inkscape:connector-curvature="0"
         sodipodi:nodetypes="cccscsccc" />
      <path
         style="opacity:1;fill:#d40000;fill-opacity:1;stroke-width:0.28114113;stroke-miterlimit:4;stroke-dasharray:none"
         inkscape:connector-curvature="0"
         id="path25-43-2-3-9"
         d="m -158.21016,32.899408 c 0.60978,-3.227663 1.25888,-5.650781 2.96318,-8.280555 h -3.46419 v 1.131973 h -0.91971 v -2.133949 h 5.06697 l 0.62495,1.001976 c -1.81013,1.978491 -3.46675,8.374121 -3.17342,8.280555 z m 0,0" />
      <path
         style="opacity:1;fill:#d40000;fill-opacity:1;stroke-width:0.28114113"
         inkscape:connector-curvature="0"
         id="path25-7-0-2-8-2"
         d="m -102.31543,94.267265 c -0.60978,3.227635 -1.25889,5.65078 -2.96318,8.280555 h 3.46419 v -1.132 h 0.9197 v 2.13398 h -5.06696 l -0.62495,-1.00198 c 1.81013,-1.97849 3.46674,-8.374122 3.17342,-8.280555 z m 0,0" />
    </g>
  </g>
</svg>
