<?xml version="1.0" encoding="UTF-8" standalone="no"?>
<!-- Created with Inkscape (http://www.inkscape.org/) -->

<svg
   xmlns:dc="http://purl.org/dc/elements/1.1/"
   xmlns:cc="http://creativecommons.org/ns#"
   xmlns:rdf="http://www.w3.org/1999/02/22-rdf-syntax-ns#"
   xmlns:svg="http://www.w3.org/2000/svg"
   xmlns="http://www.w3.org/2000/svg"
   xmlns:sodipodi="http://sodipodi.sourceforge.net/DTD/sodipodi-0.dtd"
   xmlns:inkscape="http://www.inkscape.org/namespaces/inkscape"
   width="63mm"
   height="88mm"
   viewBox="0 0 63 88"
   version="1.1"
   id="svg821"
   inkscape:version="0.92.1 r15371"
   sodipodi:docname="h08.svg">
  <defs
     id="defs815" />
  <sodipodi:namedview
     id="base"
     pagecolor="#ffffff"
     bordercolor="#666666"
     borderopacity="1.0"
     inkscape:pageopacity="0.0"
     inkscape:pageshadow="2"
     inkscape:zoom="0.5"
     inkscape:cx="559.11023"
     inkscape:cy="-55.606298"
     inkscape:document-units="mm"
     inkscape:current-layer="layer1"
     showgrid="false"
     fit-margin-top="0"
     fit-margin-left="0"
     fit-margin-right="0"
     fit-margin-bottom="0"
     inkscape:window-width="789"
     inkscape:window-height="711"
     inkscape:window-x="927"
     inkscape:window-y="253"
     inkscape:window-maximized="0" />
  <metadata
     id="metadata818">
    <rdf:RDF>
      <cc:Work
         rdf:about="">
        <dc:format>image/svg+xml</dc:format>
        <dc:type
           rdf:resource="http://purl.org/dc/dcmitype/StillImage" />
        <dc:title></dc:title>
      </cc:Work>
    </rdf:RDF>
  </metadata>
  <g
     inkscape:label="レイヤー 1"
     inkscape:groupmode="layer"
     id="layer1"
     transform="translate(135.05417,-46.120815)">
    <g
       id="g48">
      <g
         transform="matrix(0.28096287,0,0,0.2813195,-208.08562,-57.904185)"
         id="g10140-6-7"
         inkscape:label="5D"
         style="display:inline;opacity:1">
        <rect
           y="370.27557"
           x="260.43304"
           height="311.81104"
           width="223.22835"
           id="rect10142-4-2"
           style="display:inline;fill:#ffffff;fill-opacity:1;stroke:#000000;stroke-width:1.0005666;stroke-miterlimit:4;stroke-dasharray:none;stroke-opacity:1"
           rx="10.677567"
           ry="10.664032" />
      </g>
      <g
         id="g10160-2-4"
         style="display:inline;opacity:1"
         transform="matrix(0.28096287,0,0,0.2813195,-134.91362,46.261562)" />
      <g
         transform="matrix(0.28096287,0,0,0.2813195,-127.44237,40.661757)"
         id="g10166-2-7"
         style="display:inline;opacity:1" />
      <path
         id="path10174-9-0"
         d="m -130.07619,65.946406 c 0,0 -0.62506,-0.897348 -1.46823,-1.952386 -0.56409,-0.706025 -1.01504,-1.470519 -1.05698,-2.129012 -0.0481,-0.752214 0.40711,-1.506862 1.2312,-1.543439 0.82362,-0.03655 1.15791,0.57999 1.29401,1.088309 0.13609,-0.508319 0.47041,-1.124861 1.294,-1.088309 0.82409,0.03658 1.27931,0.791225 1.23121,1.543439 -0.0419,0.658493 -0.4929,1.422987 -1.05696,2.129012 -0.8432,1.055038 -1.46825,1.952386 -1.46825,1.952386 z"
         style="display:inline;opacity:1;fill:#d40000;stroke-width:0.28114113"
         inkscape:connector-curvature="0"
         sodipodi:nodetypes="cccscsccc" />
      <path
         id="path10176-9-9"
         d="m -77.031951,114.29528 c 0,8.4e-4 -0.625058,0.89735 -1.468228,1.95239 -0.564089,0.70602 -1.015034,1.47051 -1.056982,2.12901 -0.04807,0.75221 0.407115,1.50686 1.231207,1.54344 0.823615,0.0366 1.157904,-0.57999 1.294003,-1.08831 0.136098,0.50832 0.470416,1.12486 1.294002,1.08831 0.824092,-0.0366 1.279308,-0.79123 1.231207,-1.54344 -0.04192,-0.6585 -0.492893,-1.42299 -1.056953,-2.12901 -0.843198,-1.05504 -1.467722,-1.95166 -1.468256,-1.95239 z"
         style="display:inline;opacity:1;fill:#d40000;stroke-width:0.28114113"
         inkscape:connector-curvature="0" />
      <path
         style="opacity:1;fill:#d40000;fill-opacity:1;stroke-width:0.28114113;stroke-miterlimit:4;stroke-dasharray:none"
         inkscape:connector-curvature="0"
         id="path27-00-0-7-4"
         d="m -133.08843,56.718658 c 0.0441,-1.246274 0.49416,-1.713742 1.38026,-2.365813 -0.70693,-0.510566 -1.00495,-1.263209 -0.94426,-1.903829 0.14557,-1.551281 1.34196,-2.326738 2.64746,-2.293598 1.30656,0.03463 2.43106,1.071658 2.51883,2.198934 0.0762,0.97992 -0.21457,1.45293 -0.90886,1.968308 0.82398,0.696603 1.35028,1.154141 1.33078,2.381622 -0.0194,1.227482 -1.06237,2.688149 -2.88009,2.73271 -1.81769,0.04456 -3.1893,-1.472089 -3.14412,-2.718334 z m 5.07419,0.0045 c 0.0777,-1.128372 -0.91861,-1.889482 -2.04313,-1.900538 -1.09489,-0.01182 -2.07418,0.923937 -2.07418,1.936997 0,1.087863 1.27405,1.679112 2.09694,1.6817 1.00025,0.0045 1.9528,-0.746735 2.02037,-1.718159 z m -0.3598,-4.036457 c 0.0214,-0.949312 -0.85359,-1.630471 -1.75666,-1.603211 -0.80299,0.02476 -1.65226,0.637667 -1.65369,1.431916 0,0.994296 0.96665,1.490881 1.79206,1.510039 0.74919,0.01688 1.60132,-0.620732 1.61829,-1.338744 z m 0,0" />
      <path
         style="opacity:1;fill:#d40000;fill-opacity:1;stroke-width:0.28114113"
         inkscape:connector-curvature="0"
         id="path27-0-1-0-8-9"
         d="m -80.044182,123.52305 c 0.04406,1.24627 0.494157,1.71374 1.380258,2.36581 -0.706931,0.51057 -1.004948,1.26318 -0.94426,1.90383 0.145567,1.55128 1.341963,2.32674 2.647457,2.29357 1.306562,-0.0346 2.431059,-1.07163 2.518832,-2.1989 0.07623,-0.97992 -0.214571,-1.45293 -0.908859,-1.96831 0.82398,-0.6966 1.35028,-1.15414 1.330781,-2.38162 -0.01939,-1.22748 -1.062377,-2.68815 -2.880094,-2.73271 -1.81769,-0.0446 -3.189294,1.47209 -3.144115,2.71833 z m 5.074189,-0.004 c 0.07766,1.12837 -0.918608,1.88948 -2.043134,1.90054 -1.094884,0.0118 -2.07418,-0.92394 -2.07418,-1.937 0,-1.08786 1.274054,-1.67911 2.096938,-1.6817 1.000256,-0.004 1.952805,0.74674 2.020376,1.71816 z m -0.359801,4.03646 c 0.02135,0.94931 -0.853593,1.63047 -1.756664,1.60321 -0.802992,-0.0248 -1.652258,-0.63767 -1.653691,-1.43192 0,-0.99429 0.966653,-1.49088 1.792065,-1.51004 0.749188,-0.0169 1.60132,0.62073 1.61829,1.33875 z m 0,0" />
    </g>
  </g>
</svg>
