<?xml version="1.0" encoding="UTF-8" standalone="no"?>
<!-- Created with Inkscape (http://www.inkscape.org/) -->

<svg
   xmlns:dc="http://purl.org/dc/elements/1.1/"
   xmlns:cc="http://creativecommons.org/ns#"
   xmlns:rdf="http://www.w3.org/1999/02/22-rdf-syntax-ns#"
   xmlns:svg="http://www.w3.org/2000/svg"
   xmlns="http://www.w3.org/2000/svg"
   xmlns:sodipodi="http://sodipodi.sourceforge.net/DTD/sodipodi-0.dtd"
   xmlns:inkscape="http://www.inkscape.org/namespaces/inkscape"
   width="63mm"
   height="88mm"
   viewBox="0 0 63 88"
   version="1.1"
   id="svg821"
   inkscape:version="0.92.1 r15371"
   sodipodi:docname="h09.svg">
  <defs
     id="defs815" />
  <sodipodi:namedview
     id="base"
     pagecolor="#ffffff"
     bordercolor="#666666"
     borderopacity="1.0"
     inkscape:pageopacity="0.0"
     inkscape:pageshadow="2"
     inkscape:zoom="0.5"
     inkscape:cx="119.0551"
     inkscape:cy="166.29923"
     inkscape:document-units="mm"
     inkscape:current-layer="layer1"
     showgrid="false"
     fit-margin-top="0"
     fit-margin-left="0"
     fit-margin-right="0"
     fit-margin-bottom="0"
     inkscape:window-width="789"
     inkscape:window-height="711"
     inkscape:window-x="927"
     inkscape:window-y="253"
     inkscape:window-maximized="0" />
  <metadata
     id="metadata818">
    <rdf:RDF>
      <cc:Work
         rdf:about="">
        <dc:format>image/svg+xml</dc:format>
        <dc:type
           rdf:resource="http://purl.org/dc/dcmitype/StillImage" />
        <dc:title></dc:title>
      </cc:Work>
    </rdf:RDF>
  </metadata>
  <g
     inkscape:label="レイヤー 1"
     inkscape:groupmode="layer"
     id="layer1"
     transform="translate(18.622918,-104.83332)">
    <g
       id="g50">
      <g
         transform="matrix(0.28096287,0,0,0.2813195,-91.654372,0.80831535)"
         id="g10208-4-1"
         inkscape:label="5D"
         style="display:inline;opacity:1">
        <rect
           y="370.27557"
           x="260.43304"
           height="311.81104"
           width="223.22835"
           id="rect10210-5-4"
           style="display:inline;fill:#ffffff;fill-opacity:1;stroke:#000000;stroke-width:1.0005666;stroke-miterlimit:4;stroke-dasharray:none;stroke-opacity:1"
           rx="10.677567"
           ry="10.664032" />
      </g>
      <g
         id="g10228-2-6"
         style="display:inline;opacity:1"
         transform="matrix(0.28096287,0,0,0.2813195,-18.482369,104.97406)" />
      <g
         transform="matrix(0.28096287,0,0,0.2813195,-11.011117,99.374257)"
         id="g10234-4-4"
         style="display:inline;opacity:1" />
      <path
         id="path10242-3-8"
         d="m -13.644945,124.65891 c 0,-8.5e-4 -0.625058,-0.89735 -1.468227,-1.95239 -0.564089,-0.70602 -1.015034,-1.47052 -1.056982,-2.12901 -0.04807,-0.75222 0.407115,-1.50686 1.231207,-1.54344 0.823614,-0.0366 1.157904,0.57999 1.294002,1.08831 0.136099,-0.50832 0.470417,-1.12486 1.294003,-1.08831 0.824092,0.0366 1.279308,0.79122 1.231207,1.54344 -0.04192,0.65849 -0.492893,1.42299 -1.056954,2.12901 -0.843197,1.05504 -1.467722,1.95165 -1.468256,1.95239 z"
         style="display:inline;opacity:1;fill:#d40000;stroke-width:0.28114113"
         inkscape:connector-curvature="0" />
      <path
         id="path10244-4-5"
         d="m 39.399299,173.00778 c 0,0 -0.625058,0.89735 -1.468228,1.95239 -0.564089,0.70602 -1.015034,1.47051 -1.056982,2.12901 -0.04807,0.75221 0.407115,1.50686 1.231207,1.54344 0.823615,0.0366 1.157904,-0.57999 1.294003,-1.08831 0.136098,0.50832 0.470416,1.12486 1.294002,1.08831 0.824092,-0.0366 1.279308,-0.79123 1.231207,-1.54344 -0.04192,-0.6585 -0.492893,-1.42299 -1.056953,-2.12901 -0.843198,-1.05504 -1.468256,-1.95239 -1.468256,-1.95239 z"
         style="display:inline;opacity:1;fill:#d40000;stroke-width:0.28114113"
         inkscape:connector-curvature="0"
         sodipodi:nodetypes="cccscsccc" />
      <path
         style="opacity:1;fill:#d40000;fill-opacity:1;stroke-width:0.28114113;stroke-miterlimit:4;stroke-dasharray:none"
         inkscape:connector-curvature="0"
         id="path29-5-8-5-4"
         d="m -16.235368,116.36083 0.84817,-0.26927 c 0.32041,0.85605 0.966653,1.10949 1.650826,1.05461 1.22747,-0.098 1.635288,-1.47198 1.72705,-2.68646 -0.478283,0.50797 -1.196761,0.76583 -1.809035,0.73967 -1.95716,-0.10499 -2.458173,-1.67346 -2.476238,-3.31524 -0.05347,-1.38429 0.518011,-2.38697 1.498375,-2.84743 0.519444,-0.23316 1.708619,-0.23316 2.230957,0.0431 1.19929,0.63359 1.64397,1.72797 1.563418,4.34112 0,2.14976 -0.45589,4.65351 -2.757285,4.70803 -1.328955,0.18418 -2.339325,-0.85164 -2.476238,-1.76813 z m 3.331629,-2.35568 c 0.399164,-0.25305 0.62385,-0.49065 0.80302,-0.84613 0.146663,-0.29209 0.197601,-0.44459 0.155316,-1.0487 -0.108732,-1.55854 -0.924367,-2.44334 -2.10812,-2.268 -0.660347,0.0995 -1.021553,0.4693 -1.228904,1.15701 -0.382559,1.27196 0.102945,2.75978 1.011804,3.10234 0.408913,0.15546 1.041051,0.11087 1.366884,-0.0965 z m 0,0" />
      <path
         style="opacity:1;fill:#d40000;fill-opacity:1;stroke-width:0.28114113"
         inkscape:connector-curvature="0"
         id="path29-6-2-3-6-6"
         d="m 41.988876,181.30584 -0.848171,0.26928 c -0.32041,-0.85606 -0.966652,-1.1095 -1.650825,-1.05461 -1.227471,0.098 -1.635288,1.47198 -1.727051,2.68646 0.478283,-0.50798 1.196762,-0.76584 1.809036,-0.73967 1.957159,0.10498 2.458172,1.67345 2.476238,3.31523 0.05347,1.38429 -0.518011,2.38697 -1.498375,2.84744 -0.519444,0.23315 -1.708619,0.23315 -2.230957,-0.0431 -1.199262,-0.63359 -1.643942,-1.72798 -1.56339,-4.34113 0,-2.14976 0.455862,-4.6535 2.757257,-4.70802 1.328954,-0.18418 2.339325,0.85164 2.476238,1.76812 z m -3.331629,2.35569 c -0.399164,0.25304 -0.62385,0.49065 -0.80302,0.84612 -0.146663,0.29209 -0.197574,0.4446 -0.155317,1.0487 0.108733,1.55854 0.924368,2.44335 2.108121,2.268 0.660347,-0.0995 1.021553,-0.4693 1.228903,-1.15701 0.382559,-1.27196 -0.102944,-2.75977 -1.011803,-3.10233 -0.408913,-0.15546 -1.041052,-0.11087 -1.366884,0.0965 z m 0,0" />
    </g>
  </g>
</svg>
