<?xml version="1.0" encoding="UTF-8" standalone="no"?>
<!-- Created with Inkscape (http://www.inkscape.org/) -->

<svg
   xmlns:dc="http://purl.org/dc/elements/1.1/"
   xmlns:cc="http://creativecommons.org/ns#"
   xmlns:rdf="http://www.w3.org/1999/02/22-rdf-syntax-ns#"
   xmlns:svg="http://www.w3.org/2000/svg"
   xmlns="http://www.w3.org/2000/svg"
   xmlns:sodipodi="http://sodipodi.sourceforge.net/DTD/sodipodi-0.dtd"
   xmlns:inkscape="http://www.inkscape.org/namespaces/inkscape"
   width="63mm"
   height="88mm"
   viewBox="0 0 63 88"
   version="1.1"
   id="svg821"
   inkscape:version="0.92.1 r15371"
   sodipodi:docname="h10.svg">
  <defs
     id="defs815" />
  <sodipodi:namedview
     id="base"
     pagecolor="#ffffff"
     bordercolor="#666666"
     borderopacity="1.0"
     inkscape:pageopacity="0.0"
     inkscape:pageshadow="2"
     inkscape:zoom="0.5"
     inkscape:cx="119.0551"
     inkscape:cy="166.29922"
     inkscape:document-units="mm"
     inkscape:current-layer="layer1"
     showgrid="false"
     fit-margin-top="0"
     fit-margin-left="0"
     fit-margin-right="0"
     fit-margin-bottom="0"
     inkscape:window-width="789"
     inkscape:window-height="711"
     inkscape:window-x="927"
     inkscape:window-y="253"
     inkscape:window-maximized="0" />
  <metadata
     id="metadata818">
    <rdf:RDF>
      <cc:Work
         rdf:about="">
        <dc:format>image/svg+xml</dc:format>
        <dc:type
           rdf:resource="http://purl.org/dc/dcmitype/StillImage" />
        <dc:title></dc:title>
      </cc:Work>
    </rdf:RDF>
  </metadata>
  <g
     inkscape:label="レイヤー 1"
     inkscape:groupmode="layer"
     id="layer1"
     transform="translate(18.622919,-104.83332)">
    <g
       id="g73">
      <g
         transform="matrix(0.28096287,0,0,0.2813195,-91.654373,0.80831535)"
         id="g10276-9-9"
         inkscape:label="5D"
         style="display:inline;opacity:1">
        <rect
           y="370.27557"
           x="260.43304"
           height="311.81104"
           width="223.22835"
           id="rect10278-0-6"
           style="display:inline;fill:#ffffff;fill-opacity:1;stroke:#000000;stroke-width:1.0005666;stroke-miterlimit:4;stroke-dasharray:none;stroke-opacity:1"
           rx="10.677567"
           ry="10.664032" />
      </g>
      <g
         id="g10296-8-7"
         style="display:inline;opacity:1"
         transform="matrix(0.28096287,0,0,0.2813195,-18.48237,104.97406)" />
      <g
         transform="matrix(0.28096287,0,0,0.2813195,-11.011118,99.374257)"
         id="g10302-2-0"
         style="display:inline;opacity:1" />
      <path
         id="path10310-7-8"
         d="m -13.644946,124.65891 c 0,0 -0.625058,-0.89735 -1.468227,-1.95239 -0.564089,-0.70602 -1.015034,-1.47052 -1.056982,-2.12901 -0.04807,-0.75222 0.407115,-1.50686 1.231207,-1.54344 0.823614,-0.0366 1.157904,0.57999 1.294002,1.08831 0.136099,-0.50832 0.470417,-1.12486 1.294003,-1.08831 0.824092,0.0366 1.279308,0.79122 1.231207,1.54344 -0.04192,0.65849 -0.492893,1.42299 -1.056954,2.12901 -0.843197,1.05504 -1.468256,1.95239 -1.468256,1.95239 z"
         style="display:inline;opacity:1;fill:#d40000;stroke-width:0.28114113"
         inkscape:connector-curvature="0"
         sodipodi:nodetypes="cccscsccc" />
      <path
         id="path10312-3-5"
         d="m 39.399298,173.00778 c 0,0 -0.625058,0.89735 -1.468228,1.95239 -0.564089,0.70602 -1.015034,1.47051 -1.056982,2.12901 -0.04807,0.75221 0.407115,1.50686 1.231207,1.54344 0.823615,0.0366 1.157904,-0.57999 1.294003,-1.08831 0.136098,0.50832 0.470416,1.12486 1.294002,1.08831 0.824092,-0.0366 1.279308,-0.79123 1.231207,-1.54344 -0.04192,-0.6585 -0.492893,-1.42299 -1.056953,-2.12901 -0.843198,-1.05504 -1.468256,-1.95239 -1.468256,-1.95239 z"
         style="display:inline;opacity:1;fill:#d40000;stroke:none;stroke-width:0.28114113;stroke-opacity:1"
         inkscape:connector-curvature="0"
         sodipodi:nodetypes="cccscsccc" />
      <g
         style="opacity:1;fill:#d40000;fill-opacity:1;stroke-width:1.00001979;stroke-miterlimit:4;stroke-dasharray:none"
         transform="matrix(0.28096287,0,0,0.28131396,-308.26343,-38.015323)"
         id="g7724-24-8-9-7">
        <g
           style="fill:#d40000;fill-opacity:1;stroke-width:1.00001979;stroke-miterlimit:4;stroke-dasharray:none"
           id="g8345-9-7-5-1">
          <path
             style="fill:#d40000;fill-opacity:1;stroke-width:1.00001979;stroke-miterlimit:4;stroke-dasharray:none"
             inkscape:connector-curvature="0"
             id="path31-8-2-9-8"
             d="m 1038.5828,555.12975 v -33 h 3.1988 v 33 z m 0,0" />
          <path
             style="fill:#d40000;fill-opacity:1;stroke-width:1.00001979;stroke-miterlimit:4;stroke-dasharray:none"
             inkscape:connector-curvature="0"
             id="path33-2-3-1-6"
             d="m 1051.2635,522.1291 c -3.0793,0 -5.5542,2.81264 -5.5542,6.30617 v 20.38896 c 0,3.49354 2.4762,6.30487 5.5542,6.30487 h 1.7974 c 3.0792,0 5.5593,-2.81133 5.5593,-6.30487 v -20.38896 c 0,-3.49353 -2.4814,-6.30617 -5.5593,-6.30617 z m 0.9295,3.12035 c 1.818,0 3.2798,1.39453 3.2798,3.13868 v 20.65871 c 0,1.74415 -1.4618,3.15177 -3.2798,3.15177 -1.8179,0 -3.2849,-1.40762 -3.2849,-3.15177 v -20.65871 c 0,-1.74284 1.467,-3.13868 3.2849,-3.13868 z m 0,0" />
        </g>
      </g>
      <g
         style="opacity:1;fill:#d40000;fill-opacity:1"
         transform="matrix(-0.28096287,0,0,-0.28131396,332.52572,335.58938)"
         id="g7724-2-5-0-2-7">
        <g
           style="fill:#d40000;fill-opacity:1"
           id="g8345-5-0-9-6-9">
          <g
             transform="translate(-5.30767,-0.32920043)"
             id="g10963-5-1">
            <path
               d="m 1038.5828,555.12975 v -33 h 3.1988 v 33 z m 0,0"
               id="path31-1-3-2-1-5"
               inkscape:connector-curvature="0"
               style="fill:#d40000;fill-opacity:1" />
            <path
               d="m 1051.2635,522.1291 c -3.0793,0 -5.5542,2.81264 -5.5542,6.30617 v 20.38896 c 0,3.49354 2.4762,6.30487 5.5542,6.30487 h 1.7974 c 3.0792,0 5.5593,-2.81133 5.5593,-6.30487 v -20.38896 c 0,-3.49353 -2.4814,-6.30617 -5.5593,-6.30617 z m 0.9295,3.12035 c 1.818,0 3.2798,1.39453 3.2798,3.13868 v 20.65871 c 0,1.74415 -1.4618,3.15177 -3.2798,3.15177 -1.8179,0 -3.2849,-1.40762 -3.2849,-3.15177 v -20.65871 c 0,-1.74284 1.467,-3.13868 3.2849,-3.13868 z m 0,0"
               id="path33-5-5-3-3-1"
               inkscape:connector-curvature="0"
               style="fill:#d40000;fill-opacity:1" />
          </g>
        </g>
      </g>
    </g>
  </g>
</svg>
