<?xml version="1.0" encoding="UTF-8" standalone="no"?>
<!-- Created with Inkscape (http://www.inkscape.org/) -->

<svg
   xmlns:dc="http://purl.org/dc/elements/1.1/"
   xmlns:cc="http://creativecommons.org/ns#"
   xmlns:rdf="http://www.w3.org/1999/02/22-rdf-syntax-ns#"
   xmlns:svg="http://www.w3.org/2000/svg"
   xmlns="http://www.w3.org/2000/svg"
   xmlns:sodipodi="http://sodipodi.sourceforge.net/DTD/sodipodi-0.dtd"
   xmlns:inkscape="http://www.inkscape.org/namespaces/inkscape"
   width="63.000004mm"
   height="88mm"
   viewBox="0 0 63.000004 88"
   version="1.1"
   id="svg821"
   inkscape:version="0.92.1 r15371"
   sodipodi:docname="h11.svg">
  <defs
     id="defs815" />
  <sodipodi:namedview
     id="base"
     pagecolor="#ffffff"
     bordercolor="#666666"
     borderopacity="1.0"
     inkscape:pageopacity="0.0"
     inkscape:pageshadow="2"
     inkscape:zoom="0.5"
     inkscape:cx="119.05512"
     inkscape:cy="166.2992"
     inkscape:document-units="mm"
     inkscape:current-layer="layer1"
     showgrid="false"
     fit-margin-top="0"
     fit-margin-left="0"
     fit-margin-right="0"
     fit-margin-bottom="0"
     inkscape:window-width="789"
     inkscape:window-height="711"
     inkscape:window-x="927"
     inkscape:window-y="253"
     inkscape:window-maximized="0" />
  <metadata
     id="metadata818">
    <rdf:RDF>
      <cc:Work
         rdf:about="">
        <dc:format>image/svg+xml</dc:format>
        <dc:type
           rdf:resource="http://purl.org/dc/dcmitype/StillImage" />
        <dc:title></dc:title>
      </cc:Work>
    </rdf:RDF>
  </metadata>
  <g
     inkscape:label="レイヤー 1"
     inkscape:groupmode="layer"
     id="layer1"
     transform="translate(18.622924,-104.83332)">
    <g
       id="g49">
      <rect
         ry="2.9999998"
         rx="2.9999998"
         style="display:inline;opacity:1;fill:#ffffff;fill-opacity:1;stroke:#000000;stroke-width:0.28130031;stroke-miterlimit:4;stroke-dasharray:none;stroke-opacity:1"
         id="rect10346-5-7"
         width="62.718704"
         height="87.718697"
         x="-18.482277"
         y="104.97397" />
      <path
         sodipodi:nodetypes="cccscsccc"
         id="path10378-7-1"
         d="m -13.644854,124.65885 c 0,0 -0.625064,-0.89735 -1.468229,-1.95239 -0.564076,-0.70603 -1.015038,-1.47052 -1.056976,-2.12902 -0.04806,-0.75221 0.407105,-1.50686 1.231191,-1.54344 0.823635,-0.0366 1.157927,0.57999 1.294014,1.08831 0.136087,-0.50832 0.470407,-1.12486 1.293985,-1.08831 0.824115,0.0366 1.27931,0.79123 1.231219,1.54344 -0.04191,0.6585 -0.492899,1.42299 -1.056947,2.12902 -0.843193,1.05504 -1.468257,1.95239 -1.468257,1.95239 z"
         style="display:inline;opacity:1;fill:#d40000;stroke:none;stroke-width:0.28222212;stroke-opacity:1"
         inkscape:connector-curvature="0" />
      <path
         sodipodi:nodetypes="cccscsccc"
         id="path10380-5-9"
         d="m 39.39923,173.00782 c 0,0 -0.625036,0.89735 -1.468201,1.95239 -0.564104,0.70602 -1.015037,1.47052 -1.057004,2.12901 -0.04806,0.75222 0.407133,1.50687 1.23122,1.54345 0.823606,0.0366 1.157898,-0.58 1.293985,-1.08832 0.136115,0.50832 0.470435,1.12487 1.294013,1.08832 0.824087,-0.0366 1.27931,-0.79123 1.231191,-1.54345 -0.04191,-0.65849 -0.492871,-1.42299 -1.056947,-2.12901 -0.843193,-1.05504 -1.468257,-1.95239 -1.468257,-1.95239 z"
         style="display:inline;opacity:1;fill:#d40000;stroke-width:0.28222212"
         inkscape:connector-curvature="0" />
      <path
         style="opacity:1;fill:#d40000;fill-opacity:1;stroke-width:0.28222212;stroke-miterlimit:4;stroke-dasharray:none"
         inkscape:connector-curvature="0"
         id="path35-67-2-8-6"
         d="m -13.675249,108.86679 v 0.97173 h 0.94245 c 0,0 0.02286,0.93677 0.03104,2.92371 0.0073,1.92949 0.04662,2.88651 -0.07623,3.4361 -0.330142,1.26644 -2.16303,1.27345 -2.527152,0.36285 -0.211666,-0.5297 -0.155334,-0.94153 -0.165071,-1.47494 h -1.01326 c 0,0 0.0059,0.26855 0.0073,0.59713 0.0059,1.4241 0.476841,2.1052 1.578944,2.37372 1.133176,0.3065 2.458149,-0.16097 2.929205,-1.13048 0.280669,-0.55257 0.248524,-0.59049 0.255382,-3.93156 0.0042,-2.22896 0.03793,-3.15653 0.03793,-3.15653 h 0.86769 v -0.97173 h -2.868161 z m 0,0" />
      <path
         style="opacity:1;fill:#d40000;fill-opacity:1;stroke-width:0.28222212"
         inkscape:connector-curvature="0"
         id="path35-6-7-4-8-8"
         d="M 39.429258,188.79987 V 187.8281 H 38.48678 c 0,0 -0.02286,-0.93674 -0.03105,-2.9237 -0.0073,-1.92949 -0.04659,-2.88649 0.07623,-3.43607 0.330171,-1.26645 2.16303,-1.27345 2.527152,-0.36285 0.211666,0.5297 0.155335,0.94152 0.165072,1.47493 h 1.013288 c 0,0 -0.0059,-0.26854 -0.0073,-0.59713 -0.0059,-1.42409 -0.476842,-2.1052 -1.578945,-2.37372 -1.133175,-0.3065 -2.458148,0.16097 -2.929204,1.13049 -0.280669,0.55257 -0.248524,0.59049 -0.255382,3.93156 -0.0042,2.22895 -0.03793,3.15649 -0.03793,3.15649 h -0.86769 v 0.97177 h 2.868189 z m 0,0" />
    </g>
  </g>
</svg>
