<?xml version="1.0" encoding="UTF-8" standalone="no"?>
<!-- Created with Inkscape (http://www.inkscape.org/) -->

<svg
   xmlns:dc="http://purl.org/dc/elements/1.1/"
   xmlns:cc="http://creativecommons.org/ns#"
   xmlns:rdf="http://www.w3.org/1999/02/22-rdf-syntax-ns#"
   xmlns:svg="http://www.w3.org/2000/svg"
   xmlns="http://www.w3.org/2000/svg"
   xmlns:sodipodi="http://sodipodi.sourceforge.net/DTD/sodipodi-0.dtd"
   xmlns:inkscape="http://www.inkscape.org/namespaces/inkscape"
   width="63.000004mm"
   height="88mm"
   viewBox="0 0 63.000004 88"
   version="1.1"
   id="svg821"
   inkscape:version="0.92.1 r15371"
   sodipodi:docname="h12.svg">
  <defs
     id="defs815" />
  <sodipodi:namedview
     id="base"
     pagecolor="#ffffff"
     bordercolor="#666666"
     borderopacity="1.0"
     inkscape:pageopacity="0.0"
     inkscape:pageshadow="2"
     inkscape:zoom="0.5"
     inkscape:cx="88.110258"
     inkscape:cy="26.59841"
     inkscape:document-units="mm"
     inkscape:current-layer="layer1"
     showgrid="false"
     fit-margin-top="0"
     fit-margin-left="0"
     fit-margin-right="0"
     fit-margin-bottom="0"
     inkscape:window-width="789"
     inkscape:window-height="711"
     inkscape:window-x="927"
     inkscape:window-y="253"
     inkscape:window-maximized="0" />
  <metadata
     id="metadata818">
    <rdf:RDF>
      <cc:Work
         rdf:about="">
        <dc:format>image/svg+xml</dc:format>
        <dc:type
           rdf:resource="http://purl.org/dc/dcmitype/StillImage" />
        <dc:title></dc:title>
      </cc:Work>
    </rdf:RDF>
  </metadata>
  <g
     inkscape:label="レイヤー 1"
     inkscape:groupmode="layer"
     id="layer1"
     transform="translate(10.435429,-67.870818)">
    <g
       id="g35">
      <rect
         y="68.011467"
         x="-10.294779"
         height="87.718697"
         width="62.718704"
         id="rect10414-2-6"
         style="display:inline;fill:#ffffff;fill-opacity:1;stroke:#000000;stroke-width:0.28130031;stroke-miterlimit:4;stroke-dasharray:none;stroke-opacity:1"
         rx="2.9999998"
         ry="2.9999998" />
      <path
         inkscape:connector-curvature="0"
         style="display:inline;opacity:1;fill:#d40000;stroke-width:0.28222212"
         d="m -5.4573559,87.696347 c 0,0 -0.6250641,-0.89735 -1.4682289,-1.952389 -0.564076,-0.706026 -1.0150376,-1.470522 -1.0569757,-2.129016 -0.048062,-0.752216 0.4071044,-1.506866 1.231191,-1.543442 0.8236351,-0.03655 1.1579264,0.57999 1.2940136,1.08831 0.1360871,-0.50832 0.4704066,-1.124864 1.2939853,-1.08831 0.8241148,0.03658 1.2793097,0.791226 1.2312192,1.543442 -0.04191,0.658494 -0.4928997,1.42299 -1.0569475,2.129016 -0.843193,1.055039 -1.468257,1.952389 -1.468257,1.952389 z"
         id="path10446-4-8"
         sodipodi:nodetypes="cccscsccc" />
      <path
         inkscape:connector-curvature="0"
         style="display:inline;opacity:1;fill:#d40000;stroke-width:0.28222212"
         d="m 47.586728,136.04532 c 0,0 -0.625036,0.89735 -1.4682,1.95239 -0.564105,0.70602 -1.015038,1.47052 -1.057004,2.12901 -0.04806,0.75222 0.407132,1.50687 1.231219,1.54345 0.823607,0.0365 1.157898,-0.58 1.293985,-1.08832 0.136116,0.50832 0.470435,1.12487 1.294014,1.08832 0.824086,-0.0366 1.279309,-0.79123 1.231191,-1.54345 -0.04191,-0.65849 -0.492872,-1.42299 -1.056948,-2.12901 -0.843193,-1.05504 -1.468257,-1.95239 -1.468257,-1.95239 z"
         id="path10448-8-7"
         sodipodi:nodetypes="cccscsccc" />
      <path
         style="opacity:1;fill:#d40000;fill-opacity:1;stroke-width:0.28222212;stroke-miterlimit:4;stroke-dasharray:none"
         inkscape:connector-curvature="0"
         id="path37-2-5-5-0"
         d="m -7.4999336,78.115893 h -0.774839 v -1.057624 h 0.774839 c 0,0 0.00593,-0.569898 0.028222,-1.575223 0.048034,-2.142898 0.1014869,-2.47556 0.7210194,-3.065349 1.2234581,-1.165563 3.2723576,-0.215855 3.248143,1.536909 -0.035419,2.473731 -0.00988,4.832123 -0.081985,5.166246 -0.1282696,0.588325 -0.1412518,0.621491 -0.088871,0.729041 0.1072724,0.215883 1.0327611,0.309452 1.0327611,0.249025 v 1.041811 c -0.7069365,0.05489 -1.0006161,-0.01154 -1.5662725,-0.415903 -0.3529179,0.341128 -1.4279558,0.683721 -2.2829739,0.280701 -0.6502382,-0.306499 -1.1429404,-1.098159 -1.0099859,-2.889634 v 0 z m 2.6189021,1.846358 C -5.265022,79.40673 -5.9112809,78.6486 -6.5192141,78.379292 c -0.037931,0.638794 0.017215,1.174428 0.2413275,1.462498 0.356869,0.458638 0.9337579,0.563625 1.3968551,0.120461 z m 0.3185997,-6.110047 c -0.2850154,-0.808232 -1.0172107,-1.082321 -1.5521897,-0.576536 -0.3344888,0.314628 -0.3879698,0.645799 -0.3951946,2.444614 -0.00423,1.109584 -0.00423,1.575955 -0.00423,1.575955 1.0414536,0.338176 2.0149482,1.553873 2.0066227,1.538035 l 0.0254,-3.355643 c 0.02032,-0.544467 -0.00677,-1.089693 -0.080179,-1.626425 v 0 z m 0,0" />
      <path
         style="opacity:1;fill:#d40000;fill-opacity:1;stroke-width:0.28222212"
         inkscape:connector-curvature="0"
         id="path37-3-27-3-0-9"
         d="m 49.628516,145.62574 h 0.774867 v 1.05765 h -0.774867 c 0,0 -0.0059,0.5699 -0.02822,1.57522 -0.04801,2.1429 -0.101458,2.47556 -0.720991,3.06535 -1.223458,1.16556 -3.272357,0.21586 -3.248143,-1.53691 0.03542,-2.47373 0.0099,-4.83212 0.08199,-5.16627 0.128269,-0.5883 0.141251,-0.62147 0.08884,-0.72902 -0.107272,-0.21588 -1.032761,-0.30945 -1.032761,-0.24902 v -1.04181 c 0.706965,-0.0549 1.000644,0.0115 1.566301,0.4159 0.352918,-0.34113 1.427955,-0.68372 2.282974,-0.2807 0.650238,0.3065 1.14294,1.09816 1.009957,2.88961 v 0 z m -2.618874,-1.84633 c 0.38399,0.55552 1.030249,1.31365 1.638154,1.58293 0.03796,-0.63877 -0.01722,-1.1744 -0.241299,-1.46247 -0.356869,-0.45864 -0.933758,-0.56363 -1.396855,-0.12046 z m -0.3186,6.11004 c 0.285015,0.80824 1.017211,1.08232 1.55219,0.57651 0.33446,-0.3146 0.387969,-0.64577 0.395194,-2.44458 0.0042,-1.10959 0.0042,-1.57599 0.0042,-1.57599 -1.041454,-0.33817 -2.014949,-1.55384 -2.006651,-1.538 l -0.0254,3.35564 c -0.02032,0.54447 0.0068,1.08969 0.08018,1.62642 v 0 z m 0,0" />
    </g>
  </g>
</svg>
