<?xml version="1.0" encoding="UTF-8" standalone="no"?>
<!-- Created with Inkscape (http://www.inkscape.org/) -->

<svg
   xmlns:dc="http://purl.org/dc/elements/1.1/"
   xmlns:cc="http://creativecommons.org/ns#"
   xmlns:rdf="http://www.w3.org/1999/02/22-rdf-syntax-ns#"
   xmlns:svg="http://www.w3.org/2000/svg"
   xmlns="http://www.w3.org/2000/svg"
   xmlns:sodipodi="http://sodipodi.sourceforge.net/DTD/sodipodi-0.dtd"
   xmlns:inkscape="http://www.inkscape.org/namespaces/inkscape"
   width="63.000004mm"
   height="88mm"
   viewBox="0 0 63.000004 88"
   version="1.1"
   id="svg821"
   inkscape:version="0.92.1 r15371"
   sodipodi:docname="h13.svg">
  <defs
     id="defs815" />
  <sodipodi:namedview
     id="base"
     pagecolor="#ffffff"
     bordercolor="#666666"
     borderopacity="1.0"
     inkscape:pageopacity="0.0"
     inkscape:pageshadow="2"
     inkscape:zoom="0.5"
     inkscape:cx="-418.83463"
     inkscape:cy="-67.102393"
     inkscape:document-units="mm"
     inkscape:current-layer="layer1"
     showgrid="false"
     fit-margin-top="0"
     fit-margin-left="0"
     fit-margin-right="0"
     fit-margin-bottom="0"
     inkscape:window-width="789"
     inkscape:window-height="711"
     inkscape:window-x="927"
     inkscape:window-y="253"
     inkscape:window-maximized="0" />
  <metadata
     id="metadata818">
    <rdf:RDF>
      <cc:Work
         rdf:about="">
        <dc:format>image/svg+xml</dc:format>
        <dc:type
           rdf:resource="http://purl.org/dc/dcmitype/StillImage" />
        <dc:title></dc:title>
      </cc:Work>
    </rdf:RDF>
  </metadata>
  <g
     inkscape:label="レイヤー 1"
     inkscape:groupmode="layer"
     id="layer1"
     transform="translate(-123.69374,-43.079148)">
    <g
       id="g3712">
      <rect
         ry="2.9999998"
         rx="2.9999998"
         style="display:inline;fill:#ffffff;fill-opacity:1;stroke:#000000;stroke-width:0.28130031;stroke-miterlimit:4;stroke-dasharray:none;stroke-opacity:1"
         id="rect6355-6-85-90-3-5"
         width="62.718704"
         height="87.718697"
         x="123.83439"
         y="43.219799" />
      <path
         sodipodi:nodetypes="ccccccccc"
         id="path163-0-2-7-7-1-8-7-00-1-2"
         d="m 128.67178,62.904682 c 0,0 -0.62503,-0.897347 -1.4682,-1.952377 -0.5641,-0.706029 -1.01503,-1.470545 -1.057,-2.12903 -0.0481,-0.752222 0.40713,-1.506863 1.23122,-1.543434 0.82361,-0.03657 1.1579,0.579996 1.29398,1.088313 0.13612,-0.508317 0.47044,-1.124886 1.29402,-1.088313 0.82408,0.03657 1.27931,0.791212 1.23119,1.543434 -0.0419,0.658485 -0.49287,1.423001 -1.05695,2.12903 -0.84319,1.05503 -1.46826,1.952377 -1.46826,1.952377 z"
         style="display:inline;opacity:1;fill:#d40000;stroke-width:0.28222212"
         inkscape:connector-curvature="0" />
      <path
         sodipodi:nodetypes="cccscsccc"
         id="path163-0-2-7-7-1-8-1-9-4-6-8"
         d="m 181.7159,111.25365 c 0,0 -0.62507,0.89735 -1.46823,1.95239 -0.56408,0.70603 -1.01504,1.47053 -1.05698,2.12902 -0.0481,0.75222 0.40711,1.50687 1.23119,1.54344 0.82364,0.0365 1.15793,-0.57999 1.29402,-1.08831 0.13608,0.50832 0.4704,1.12486 1.29398,1.08831 0.82412,-0.0366 1.27931,-0.79122 1.23122,-1.54344 -0.0419,-0.65849 -0.4929,-1.42299 -1.05695,-2.12902 -0.84319,-1.05504 -1.46825,-1.95239 -1.46825,-1.95239 z"
         style="display:inline;opacity:1;fill:#d40000;stroke:none;stroke-width:0.28222212;stroke-opacity:1"
         inkscape:connector-curvature="0" />
      <path
         style="opacity:1;fill:#d40000;fill-opacity:1;stroke-width:0.28222212;stroke-miterlimit:4;stroke-dasharray:none"
         inkscape:connector-curvature="0"
         id="path39-51-8-0-0"
         d="m 129.35242,55.72822 h 0.93271 l -1.37016,-3.427884 -1.04687,1.447981 0.007,1.979903 h 0.73513 v 1.021079 h -2.59079 V 55.72822 h 0.8536 v -7.371823 l -0.8536,0.0034 v -0.892516 h 2.62872 v 0.92273 h -0.72539 l -0.0155,3.592908 2.29458,-3.623122 h -0.80989 v -0.892516 h 2.7967 v 0.892516 h -0.73798 l -1.88931,2.96081 1.84991,4.409155 h 0.82109 l 0.004,1.02108 h -2.87581 l -0.009,-1.022541 z m 0,0" />
      <path
         style="opacity:1;fill:#d40000;fill-opacity:1;stroke-width:0.28222212"
         inkscape:connector-curvature="0"
         id="path39-3-9-6-0-8"
         d="m 181.49142,118.78474 h -0.93269 l 1.37016,3.42788 1.04687,-1.44801 -0.007,-1.97987 h -0.73513 v -1.02108 h 2.59077 v 1.02108 h -0.85358 v 7.37182 l 0.85358,-0.003 v 0.89252 h -2.6287 v -0.92273 h 0.72537 l 0.0155,-3.59291 -2.2946,3.62312 h 0.80992 v 0.89252 h -2.7967 v -0.89252 h 0.73798 l 1.8893,-2.96081 -1.84993,-4.40916 h -0.82107 l -0.004,-1.02108 h 2.8758 l 0.009,1.02255 z m 0,0" />
    </g>
  </g>
</svg>
