<?xml version="1.0" encoding="UTF-8" standalone="no"?>
<!-- Created with Inkscape (http://www.inkscape.org/) -->

<svg
   xmlns:dc="http://purl.org/dc/elements/1.1/"
   xmlns:cc="http://creativecommons.org/ns#"
   xmlns:rdf="http://www.w3.org/1999/02/22-rdf-syntax-ns#"
   xmlns:svg="http://www.w3.org/2000/svg"
   xmlns="http://www.w3.org/2000/svg"
   xmlns:sodipodi="http://sodipodi.sourceforge.net/DTD/sodipodi-0.dtd"
   xmlns:inkscape="http://www.inkscape.org/namespaces/inkscape"
   width="63mm"
   height="88mm"
   viewBox="0 0 63 88"
   version="1.1"
   id="svg821"
   inkscape:version="0.92.1 r15371"
   sodipodi:docname="s01.svg">
  <defs
     id="defs815" />
  <sodipodi:namedview
     id="base"
     pagecolor="#ffffff"
     bordercolor="#666666"
     borderopacity="1.0"
     inkscape:pageopacity="0.0"
     inkscape:pageshadow="2"
     inkscape:zoom="0.5"
     inkscape:cx="146.11024"
     inkscape:cy="28.598432"
     inkscape:document-units="mm"
     inkscape:current-layer="layer1"
     showgrid="false"
     fit-margin-top="0"
     fit-margin-left="0"
     fit-margin-right="0"
     fit-margin-bottom="0"
     inkscape:window-width="757"
     inkscape:window-height="712"
     inkscape:window-x="913"
     inkscape:window-y="192"
     inkscape:window-maximized="0" />
  <metadata
     id="metadata818">
    <rdf:RDF>
      <cc:Work
         rdf:about="">
        <dc:format>image/svg+xml</dc:format>
        <dc:type
           rdf:resource="http://purl.org/dc/dcmitype/StillImage" />
        <dc:title></dc:title>
      </cc:Work>
    </rdf:RDF>
  </metadata>
  <g
     inkscape:label="レイヤー 1"
     inkscape:groupmode="layer"
     id="layer1"
     transform="translate(-67.175,-68.400001)">
    <g
       id="g25">
      <rect
         ry="3.0000002"
         rx="2.9999998"
         style="display:inline;opacity:1;fill:#ffffff;fill-opacity:1;stroke:#000000;stroke-width:0.28130043;stroke-miterlimit:4;stroke-dasharray:none;stroke-opacity:1"
         id="rect6355-6-85-62-9-7"
         width="62.718876"
         height="87.718521"
         x="67.315559"
         y="68.540741" />
      <path
         style="display:inline;opacity:1;stroke-width:0.28114113"
         sodipodi:nodetypes="cccccccccccc"
         inkscape:connector-curvature="0"
         id="path153-0-1-2-5-5-5-3-4"
         d="m 72.152985,82.599196 c -1.211119,1.542233 -2.506976,2.429729 -2.528498,3.632929 -0.0073,0.389614 0.228676,1.051831 0.967608,1.178586 0.479407,0.08185 1.139445,-0.264615 1.15324,-0.968505 -0.0028,-0.140139 0.166162,-0.136496 0.164589,0.05553 -0.02248,0.555224 -0.219404,1.201654 -0.55021,1.727853 0.528856,0 1.057685,0 1.586541,0 -0.330806,-0.526199 -0.527648,-1.172629 -0.550209,-1.727853 -0.0028,-0.192023 0.166695,-0.195666 0.164588,-0.05553 0.01377,0.70389 0.673833,1.05036 1.15324,0.968505 0.738932,-0.126755 0.974829,-0.788972 0.967608,-1.178586 -0.02163,-1.2032 -1.317407,-2.090696 -2.528497,-3.632929 z" />
      <path
         style="display:inline;opacity:1;stroke-width:0.28114113"
         sodipodi:nodetypes="cccccccccccc"
         inkscape:connector-curvature="0"
         id="path153-0-1-2-5-6-5-9-1-9"
         d="m 125.19723,142.20085 c -1.21112,-1.54223 -2.50698,-2.42973 -2.5285,-3.63293 -0.007,-0.38961 0.22868,-1.05183 0.96761,-1.17858 0.47941,-0.0819 1.13944,0.26461 1.15324,0.9685 -0.003,0.14014 0.16616,0.1365 0.16459,-0.0555 -0.0225,-0.55522 -0.21941,-1.20165 -0.55021,-1.72785 0.52885,0 1.05768,0 1.58654,0 -0.33081,0.5262 -0.52765,1.17263 -0.55021,1.72785 -0.003,0.19203 0.1667,0.19567 0.16459,0.0555 0.0138,-0.70389 0.67383,-1.05036 1.15324,-0.9685 0.73893,0.12675 0.97483,0.78897 0.96761,1.17858 -0.0216,1.2032 -1.31741,2.0907 -2.5285,3.63293 z" />
      <path
         inkscape:connector-curvature="0"
         id="path41-4-9-2"
         d="m 69.317083,81.717116 v -0.793799 h 0.756436 l 1.611435,-8.489744 h 0.917175 l 1.775095,8.489744 h 0.610842 v 0.793799 h -2.081429 v -0.793799 h 0.561729 l -0.224321,-1.301018 h -2.099832 l -0.1622,1.301018 h 0.561701 v 0.793799 z M 73.064875,78.69552 72.152026,74.151535 71.297,78.69552 Z m 0,0"
         style="display:inline;opacity:1;stroke-width:0.28114113" />
      <path
         inkscape:connector-curvature="0"
         id="path41-4-2-4-0"
         d="m 122.36133,143.08293 v 0.7938 h 0.75643 l 1.61144,8.48974 h 0.91717 l 1.7751,-8.48974 h 0.61084 v -0.7938 h -2.08143 v 0.7938 h 0.56173 l -0.22432,1.30102 h -2.09983 l -0.1622,-1.30102 h 0.5617 v -0.7938 z m 3.74779,3.0216 -0.91285,4.54398 -0.85503,-4.54398 z m 0,0"
         style="display:inline;opacity:1;stroke-width:0.28114113" />
    </g>
  </g>
</svg>
