<?xml version="1.0" encoding="UTF-8" standalone="no"?>
<!-- Created with Inkscape (http://www.inkscape.org/) -->

<svg
   xmlns:dc="http://purl.org/dc/elements/1.1/"
   xmlns:cc="http://creativecommons.org/ns#"
   xmlns:rdf="http://www.w3.org/1999/02/22-rdf-syntax-ns#"
   xmlns:svg="http://www.w3.org/2000/svg"
   xmlns="http://www.w3.org/2000/svg"
   xmlns:sodipodi="http://sodipodi.sourceforge.net/DTD/sodipodi-0.dtd"
   xmlns:inkscape="http://www.inkscape.org/namespaces/inkscape"
   width="63mm"
   height="88mm"
   viewBox="0 0 63 88"
   version="1.1"
   id="svg821"
   inkscape:version="0.92.1 r15371"
   sodipodi:docname="s02.svg">
  <defs
     id="defs815" />
  <sodipodi:namedview
     id="base"
     pagecolor="#ffffff"
     bordercolor="#666666"
     borderopacity="1.0"
     inkscape:pageopacity="0.0"
     inkscape:pageshadow="2"
     inkscape:zoom="0.5"
     inkscape:cx="119.05512"
     inkscape:cy="166.29922"
     inkscape:document-units="mm"
     inkscape:current-layer="layer1"
     showgrid="false"
     fit-margin-top="0"
     fit-margin-left="0"
     fit-margin-right="0"
     fit-margin-bottom="0"
     inkscape:window-width="757"
     inkscape:window-height="712"
     inkscape:window-x="913"
     inkscape:window-y="192"
     inkscape:window-maximized="0" />
  <metadata
     id="metadata818">
    <rdf:RDF>
      <cc:Work
         rdf:about="">
        <dc:format>image/svg+xml</dc:format>
        <dc:type
           rdf:resource="http://purl.org/dc/dcmitype/StillImage" />
        <dc:title></dc:title>
      </cc:Work>
    </rdf:RDF>
  </metadata>
  <g
     inkscape:label="レイヤー 1"
     inkscape:groupmode="layer"
     id="layer1"
     transform="translate(-74.333332,-104.83333)">
    <g
       id="g27">
      <rect
         y="104.97407"
         x="74.473892"
         height="87.718521"
         width="62.718876"
         id="rect6716-2-0"
         style="display:inline;opacity:1;fill:#ffffff;fill-opacity:1;stroke:#000000;stroke-width:0.28130043;stroke-miterlimit:4;stroke-dasharray:none;stroke-opacity:1"
         rx="2.9999998"
         ry="3.0000002" />
      <path
         d="m 79.311321,119.03253 c -1.211118,1.54223 -2.506975,2.42972 -2.528497,3.63293 -0.0073,0.38961 0.228675,1.05183 0.967608,1.17858 0.479407,0.0819 1.139445,-0.26461 1.15324,-0.9685 -0.0028,-0.14014 0.166161,-0.1365 0.164588,0.0555 -0.02248,0.55523 -0.219404,1.20166 -0.55021,1.72786 0.528857,0 1.057685,0 1.586542,0 -0.330806,-0.5262 -0.527649,-1.17263 -0.55021,-1.72786 -0.0028,-0.19202 0.166695,-0.19566 0.164588,-0.0555 0.01377,0.70389 0.673833,1.05036 1.15324,0.9685 0.738933,-0.12675 0.974829,-0.78897 0.967608,-1.17858 -0.02163,-1.20321 -1.317406,-2.0907 -2.528497,-3.63293 z"
         id="path6748-4-0"
         inkscape:connector-curvature="0"
         sodipodi:nodetypes="cccccccccccc"
         style="display:inline;opacity:1;stroke-width:0.28114113" />
      <path
         d="m 132.35557,178.63418 c -1.21112,-1.54223 -2.50698,-2.42973 -2.5285,-3.63293 -0.007,-0.38961 0.22867,-1.05183 0.96761,-1.17858 0.4794,-0.0819 1.13944,0.26461 1.15324,0.9685 -0.003,0.14014 0.16616,0.1365 0.16458,-0.0555 -0.0225,-0.55522 -0.2194,-1.20165 -0.5502,-1.72785 0.52885,0 1.05768,0 1.58654,0 -0.33081,0.5262 -0.52765,1.17263 -0.55021,1.72785 -0.003,0.19203 0.16669,0.19567 0.16458,0.0555 0.0138,-0.70389 0.67384,-1.05036 1.15324,-0.9685 0.73894,0.12675 0.97483,0.78897 0.96761,1.17858 -0.0216,1.2032 -1.3174,2.0907 -2.52849,3.63293 z"
         id="path6752-9-1"
         inkscape:connector-curvature="0"
         sodipodi:nodetypes="cccccccccccc"
         style="display:inline;opacity:1;stroke-width:0.28114113" />
      <path
         style="opacity:1;stroke-width:0.28114113"
         inkscape:connector-curvature="0"
         id="path15-3-8-9"
         d="m 76.672122,118.13053 0.04518,-0.57246 c 0.142673,-1.76902 0.52231,-2.36581 2.67561,-4.21256 1.045407,-0.89519 1.388209,-1.33689 1.436254,-1.84931 0.136913,-1.20869 -0.931251,-1.58594 -1.626972,-1.59145 -0.901638,-0.008 -1.921758,0.54117 -1.434821,1.818 l -1.011803,0.30317 c -0.203361,-1.19099 0.0059,-2.30831 0.952576,-2.80416 1.264305,-0.64653 2.885489,-0.39309 3.704046,0.62551 0.550153,0.68336 0.675856,1.62904 0.380733,2.36914 -0.862247,1.89057 -3.787127,2.72238 -4.028446,4.90989 h 3.232647 v -1.21789 H 81.9497 v 2.24204 l -5.277578,-0.02 z m 0,0" />
      <path
         inkscape:connector-curvature="0"
         id="path15-3-5-1-4"
         d="m 134.99394,179.53618 -0.0452,0.57246 c -0.14268,1.76902 -0.52231,2.36581 -2.67561,4.21256 -1.04541,0.89518 -1.38821,1.33688 -1.43626,1.84931 -0.13691,1.20869 0.93125,1.58594 1.62697,1.59145 0.90164,0.008 1.92176,-0.54117 1.43483,-1.818 l 1.0118,-0.30318 c 0.20336,1.191 -0.006,2.30831 -0.95258,2.80417 -1.2643,0.64653 -2.88549,0.39309 -3.70404,-0.62552 -0.55016,-0.68335 -0.67586,-1.62903 -0.38074,-2.36913 0.86225,-1.89058 3.78713,-2.72238 4.02845,-4.9099 h -3.23265 v 1.21789 h -0.95257 v -2.24203 l 5.27757,0.02 z m 0,0"
         style="display:inline;opacity:1;stroke-width:0.28114113" />
    </g>
  </g>
</svg>
