<?xml version="1.0" encoding="UTF-8" standalone="no"?>
<!-- Created with Inkscape (http://www.inkscape.org/) -->

<svg
   xmlns:dc="http://purl.org/dc/elements/1.1/"
   xmlns:cc="http://creativecommons.org/ns#"
   xmlns:rdf="http://www.w3.org/1999/02/22-rdf-syntax-ns#"
   xmlns:svg="http://www.w3.org/2000/svg"
   xmlns="http://www.w3.org/2000/svg"
   xmlns:sodipodi="http://sodipodi.sourceforge.net/DTD/sodipodi-0.dtd"
   xmlns:inkscape="http://www.inkscape.org/namespaces/inkscape"
   width="63mm"
   height="88mm"
   viewBox="0 0 63 88"
   version="1.1"
   id="svg821"
   inkscape:version="0.92.1 r15371"
   sodipodi:docname="s03.svg">
  <defs
     id="defs815" />
  <sodipodi:namedview
     id="base"
     pagecolor="#ffffff"
     bordercolor="#666666"
     borderopacity="1.0"
     inkscape:pageopacity="0.0"
     inkscape:pageshadow="2"
     inkscape:zoom="0.5"
     inkscape:cx="119.05512"
     inkscape:cy="166.29922"
     inkscape:document-units="mm"
     inkscape:current-layer="layer1"
     showgrid="false"
     fit-margin-top="0"
     fit-margin-left="0"
     fit-margin-right="0"
     fit-margin-bottom="0"
     inkscape:window-width="757"
     inkscape:window-height="712"
     inkscape:window-x="913"
     inkscape:window-y="192"
     inkscape:window-maximized="0" />
  <metadata
     id="metadata818">
    <rdf:RDF>
      <cc:Work
         rdf:about="">
        <dc:format>image/svg+xml</dc:format>
        <dc:type
           rdf:resource="http://purl.org/dc/dcmitype/StillImage" />
        <dc:title></dc:title>
      </cc:Work>
    </rdf:RDF>
  </metadata>
  <g
     inkscape:label="レイヤー 1"
     inkscape:groupmode="layer"
     id="layer1"
     transform="translate(-74.333334,-104.83333)">
    <g
       id="g29">
      <rect
         ry="3.0000002"
         rx="2.9999998"
         style="display:inline;opacity:1;fill:#ffffff;fill-opacity:1;stroke:#000000;stroke-width:0.28130043;stroke-miterlimit:4;stroke-dasharray:none;stroke-opacity:1"
         id="rect6784-5-9"
         width="62.718876"
         height="87.718521"
         x="74.473892"
         y="104.97407" />
      <path
         style="display:inline;opacity:1;stroke-width:0.28114113"
         sodipodi:nodetypes="cccccccccccc"
         inkscape:connector-curvature="0"
         id="path6816-2-4"
         d="m 79.311309,119.03253 c -1.211121,1.54223 -2.506978,2.42972 -2.5285,3.63293 -0.0073,0.38961 0.228676,1.05183 0.967608,1.17858 0.479407,0.0819 1.139445,-0.26461 1.153241,-0.9685 -0.0028,-0.14014 0.166161,-0.1365 0.164588,0.0555 -0.02248,0.55523 -0.219404,1.20166 -0.55021,1.72786 0.528856,0 1.057688,0 1.586544,0 -0.330806,-0.5262 -0.527648,-1.17263 -0.55021,-1.72786 -0.0028,-0.19202 0.166696,-0.19566 0.164588,-0.0555 0.01377,0.70389 0.673834,1.05036 1.153241,0.9685 0.738932,-0.12675 0.974828,-0.78897 0.967608,-1.17858 -0.02163,-1.20321 -1.317407,-2.0907 -2.528498,-3.63293 z" />
      <path
         style="display:inline;opacity:1;stroke-width:0.28114113"
         sodipodi:nodetypes="cccccccccccc"
         inkscape:connector-curvature="0"
         id="path6820-0-2"
         d="m 132.35555,178.63418 c -1.21111,-1.54223 -2.50697,-2.42973 -2.52849,-3.63293 -0.007,-0.38961 0.22867,-1.05183 0.9676,-1.17858 0.47941,-0.0819 1.13945,0.26461 1.15324,0.9685 -0.003,0.14014 0.16617,0.1365 0.16459,-0.0555 -0.0225,-0.55522 -0.2194,-1.20165 -0.55021,-1.72785 0.52886,0 1.05769,0 1.58654,0 -0.3308,0.5262 -0.52764,1.17263 -0.55021,1.72785 -0.003,0.19203 0.1667,0.19567 0.16459,0.0555 0.0138,-0.70389 0.67384,-1.05036 1.15324,-0.9685 0.73894,0.12675 0.97483,0.78897 0.96761,1.17858 -0.0216,1.2032 -1.31741,2.0907 -2.5285,3.63293 z" />
      <path
         style="opacity:1;stroke-width:0.28114113"
         inkscape:connector-curvature="0"
         id="path17-9-11-4"
         d="m 76.301778,116.11547 0.713815,-0.52568 c 0.619495,1.01005 1.312321,1.67532 2.372166,1.56113 1.590138,-0.10941 2.249024,-1.77845 1.916336,-3.03603 -0.321843,-1.12826 -1.638548,-1.67787 -2.685384,-1.07633 -0.247079,0.14255 -0.485476,0.25896 -0.532088,0.25896 -0.1098,0 -0.35834,-0.49507 -0.324371,-0.64611 0.702575,-1.02735 2.408663,-2.82715 2.408663,-2.82715 h -2.66552 v 1.20526 h -1.022986 v -2.16262 h 5.209639 v 0.73377 c 0,0 -1.395795,1.44947 -1.85708,2.2433 1.136073,0.0416 2.051788,0.76248 2.380514,1.90219 0.191813,0.60006 0.105839,1.97256 -0.14523,2.56415 -0.419365,0.98611 -1.56485,1.78618 -2.612027,1.83223 -1.758122,0.11824 -2.690807,-1.11504 -3.156447,-2.02707 z m 0,0" />
      <path
         inkscape:connector-curvature="0"
         id="path17-9-1-0-8"
         d="m 135.36427,181.55124 -0.71381,0.52568 c -0.6195,-1.01005 -1.31232,-1.67532 -2.37217,-1.56113 -1.59014,0.1094 -2.24902,1.77844 -1.91634,3.03603 0.32185,1.12826 1.63855,1.67787 2.68539,1.07633 0.24708,-0.14255 0.48548,-0.25896 0.53209,-0.25896 0.1098,0 0.35834,0.49507 0.32437,0.64611 -0.70258,1.02735 -2.40867,2.82715 -2.40867,2.82715 h 2.66553 v -1.20526 h 1.02298 v 2.16261 H 129.974 v -0.73376 c 0,0 1.3958,-1.44947 1.85708,-2.2433 -1.13607,-0.0416 -2.05179,-0.76249 -2.38051,-1.9022 -0.19182,-0.60005 -0.10584,-1.97255 0.14523,-2.56414 0.41936,-0.98611 1.56485,-1.78618 2.61202,-1.83223 1.75813,-0.11824 2.69081,1.11503 3.15645,2.02707 z m 0,0"
         style="display:inline;opacity:1;stroke-width:0.28114113" />
    </g>
  </g>
</svg>
