<?xml version="1.0" encoding="UTF-8" standalone="no"?>
<!-- Created with Inkscape (http://www.inkscape.org/) -->

<svg
   xmlns:dc="http://purl.org/dc/elements/1.1/"
   xmlns:cc="http://creativecommons.org/ns#"
   xmlns:rdf="http://www.w3.org/1999/02/22-rdf-syntax-ns#"
   xmlns:svg="http://www.w3.org/2000/svg"
   xmlns="http://www.w3.org/2000/svg"
   xmlns:sodipodi="http://sodipodi.sourceforge.net/DTD/sodipodi-0.dtd"
   xmlns:inkscape="http://www.inkscape.org/namespaces/inkscape"
   width="63mm"
   height="88mm"
   viewBox="0 0 63 88"
   version="1.1"
   id="svg821"
   inkscape:version="0.92.1 r15371"
   sodipodi:docname="s04.svg">
  <defs
     id="defs815" />
  <sodipodi:namedview
     id="base"
     pagecolor="#ffffff"
     bordercolor="#666666"
     borderopacity="1.0"
     inkscape:pageopacity="0.0"
     inkscape:pageshadow="2"
     inkscape:zoom="0.5"
     inkscape:cx="119.05512"
     inkscape:cy="166.29923"
     inkscape:document-units="mm"
     inkscape:current-layer="layer1"
     showgrid="false"
     fit-margin-top="0"
     fit-margin-left="0"
     fit-margin-right="0"
     fit-margin-bottom="0"
     inkscape:window-width="757"
     inkscape:window-height="712"
     inkscape:window-x="913"
     inkscape:window-y="192"
     inkscape:window-maximized="0" />
  <metadata
     id="metadata818">
    <rdf:RDF>
      <cc:Work
         rdf:about="">
        <dc:format>image/svg+xml</dc:format>
        <dc:type
           rdf:resource="http://purl.org/dc/dcmitype/StillImage" />
        <dc:title></dc:title>
      </cc:Work>
    </rdf:RDF>
  </metadata>
  <g
     inkscape:label="レイヤー 1"
     inkscape:groupmode="layer"
     id="layer1"
     transform="translate(-74.333334,-104.83333)">
    <g
       id="g42">
      <rect
         y="104.97407"
         x="74.4739"
         height="87.718521"
         width="62.718876"
         id="rect6852-0-4"
         style="display:inline;opacity:1;fill:#ffffff;fill-opacity:1;stroke:#000000;stroke-width:0.28130043;stroke-miterlimit:4;stroke-dasharray:none;stroke-opacity:1"
         rx="2.9999998"
         ry="3.0000002" />
      <path
         d="m 79.31133,119.03253 c -1.211119,1.54223 -2.506976,2.42972 -2.528497,3.63293 -0.0073,0.38961 0.228675,1.05183 0.967608,1.17858 0.479407,0.0819 1.139445,-0.26461 1.15324,-0.9685 -0.0028,-0.14014 0.166161,-0.1365 0.164588,0.0555 -0.02248,0.55523 -0.219404,1.20166 -0.55021,1.72786 0.528857,0 1.057685,0 1.586542,0 -0.330806,-0.5262 -0.527649,-1.17263 -0.55021,-1.72786 -0.0028,-0.19202 0.166695,-0.19566 0.164588,-0.0555 0.01377,0.70389 0.673833,1.05036 1.15324,0.9685 0.738933,-0.12675 0.974829,-0.78897 0.967608,-1.17858 -0.02163,-1.20321 -1.317407,-2.0907 -2.528497,-3.63293 z"
         id="path6884-6-5"
         inkscape:connector-curvature="0"
         sodipodi:nodetypes="cccccccccccc"
         style="display:inline;opacity:1;stroke-width:0.28114113" />
      <path
         d="m 132.35557,178.63418 c -1.21111,-1.54223 -2.50697,-2.42973 -2.52849,-3.63293 -0.007,-0.38961 0.22867,-1.05183 0.96761,-1.17858 0.4794,-0.0819 1.13944,0.26461 1.15324,0.9685 -0.003,0.14014 0.16616,0.1365 0.16458,-0.0555 -0.0225,-0.55522 -0.2194,-1.20165 -0.55021,-1.72785 0.52886,0 1.05769,0 1.58655,0 -0.33081,0.5262 -0.52765,1.17263 -0.55021,1.72785 -0.003,0.19203 0.16669,0.19567 0.16458,0.0555 0.0138,-0.70389 0.67384,-1.05036 1.15324,-0.9685 0.73894,0.12675 0.97483,0.78897 0.96761,1.17858 -0.0216,1.2032 -1.31741,2.0907 -2.5285,3.63293 z"
         id="path6888-1-5"
         inkscape:connector-curvature="0"
         sodipodi:nodetypes="cccccccccccc"
         style="display:inline;opacity:1;stroke-width:0.28114113" />
      <path
         style="opacity:1;stroke-width:0.28114113"
         inkscape:connector-curvature="0"
         id="path19-08-0-9"
         d="m 79.375951,118.14929 v -0.81993 h 0.739073 v -1.35259 h -3.696825 v -0.9544 l 4.000265,-6.1555 0.653464,0.003 v 6.15218 h 1.131718 v 0.9544 h -1.131718 l -0.02135,1.35259 h 0.619495 v 0.82105 h -2.294146 z m 0.739073,-7.02885 -2.539792,3.9023 h 2.539792 z m 0,0" />
      <path
         inkscape:connector-curvature="0"
         id="path19-08-1-1-4"
         d="m 132.29053,179.51741 v 0.81994 h -0.73907 v 1.35258 h 3.69682 v 0.95441 l -4.00026,6.15549 -0.65346,-0.003 v -6.15218 h -1.13172 v -0.9544 h 1.13172 l 0.0214,-1.35259 h -0.6195 v -0.82106 h 2.29415 z m -0.73907,7.02886 2.53979,-3.9023 h -2.53979 z m 0,0"
         style="display:inline;opacity:1;stroke-width:0.28114113" />
    </g>
  </g>
</svg>
