<?xml version="1.0" encoding="UTF-8" standalone="no"?>
<!-- Created with Inkscape (http://www.inkscape.org/) -->

<svg
   xmlns:dc="http://purl.org/dc/elements/1.1/"
   xmlns:cc="http://creativecommons.org/ns#"
   xmlns:rdf="http://www.w3.org/1999/02/22-rdf-syntax-ns#"
   xmlns:svg="http://www.w3.org/2000/svg"
   xmlns="http://www.w3.org/2000/svg"
   xmlns:sodipodi="http://sodipodi.sourceforge.net/DTD/sodipodi-0.dtd"
   xmlns:inkscape="http://www.inkscape.org/namespaces/inkscape"
   width="63mm"
   height="88mm"
   viewBox="0 0 63 88"
   version="1.1"
   id="svg821"
   inkscape:version="0.92.1 r15371"
   sodipodi:docname="s05.svg">
  <defs
     id="defs815" />
  <sodipodi:namedview
     id="base"
     pagecolor="#ffffff"
     bordercolor="#666666"
     borderopacity="1.0"
     inkscape:pageopacity="0.0"
     inkscape:pageshadow="2"
     inkscape:zoom="0.5"
     inkscape:cx="119.05511"
     inkscape:cy="166.2992"
     inkscape:document-units="mm"
     inkscape:current-layer="layer1"
     showgrid="false"
     fit-margin-top="0"
     fit-margin-left="0"
     fit-margin-right="0"
     fit-margin-bottom="0"
     inkscape:window-width="757"
     inkscape:window-height="712"
     inkscape:window-x="913"
     inkscape:window-y="192"
     inkscape:window-maximized="0" />
  <metadata
     id="metadata818">
    <rdf:RDF>
      <cc:Work
         rdf:about="">
        <dc:format>image/svg+xml</dc:format>
        <dc:type
           rdf:resource="http://purl.org/dc/dcmitype/StillImage" />
        <dc:title></dc:title>
      </cc:Work>
    </rdf:RDF>
  </metadata>
  <g
     inkscape:label="レイヤー 1"
     inkscape:groupmode="layer"
     id="layer1"
     transform="translate(-74.333337,-104.83331)">
    <g
       id="g45">
      <rect
         transform="scale(-1)"
         ry="3.0000002"
         rx="2.9999998"
         style="display:inline;opacity:1;fill:#ffffff;fill-opacity:1;stroke:#000000;stroke-width:0.28130043;stroke-miterlimit:4;stroke-dasharray:none;stroke-opacity:1"
         id="rect6920-5-5"
         width="62.718876"
         height="87.718521"
         x="-137.19278"
         y="-192.69258" />
      <path
         style="display:inline;opacity:1;stroke-width:0.28114113"
         sodipodi:nodetypes="cccccccccccc"
         inkscape:connector-curvature="0"
         id="path6952-6-0"
         d="m 132.35538,178.63412 c 1.21112,-1.54223 2.50697,-2.42973 2.52849,-3.63293 0.007,-0.38961 -0.22867,-1.05183 -0.9676,-1.17858 -0.47941,-0.0819 -1.13945,0.26461 -1.15324,0.9685 0.003,0.14014 -0.16616,0.1365 -0.16459,-0.0555 0.0225,-0.55523 0.2194,-1.20166 0.55021,-1.72786 -0.52886,0 -1.05769,0 -1.58654,0 0.3308,0.5262 0.52765,1.17263 0.55021,1.72786 0.003,0.19202 -0.1667,0.19566 -0.16459,0.0555 -0.0138,-0.70389 -0.67383,-1.05036 -1.15324,-0.9685 -0.73893,0.12675 -0.97483,0.78897 -0.96761,1.17858 0.0216,1.2032 1.31741,2.0907 2.5285,3.63293 z" />
      <path
         style="display:inline;opacity:1;stroke-width:0.28114113"
         sodipodi:nodetypes="cccccccccccc"
         inkscape:connector-curvature="0"
         id="path6956-5-0"
         d="m 79.311133,119.03247 c 1.211119,1.54223 2.506976,2.42973 2.528497,3.63293 0.0073,0.38961 -0.228675,1.05183 -0.967608,1.17858 -0.479407,0.0819 -1.139445,-0.26461 -1.15324,-0.9685 0.0028,-0.14014 -0.166161,-0.1365 -0.164588,0.0555 0.02248,0.55522 0.219404,1.20165 0.55021,1.72785 -0.528857,0 -1.057685,0 -1.586542,0 0.330806,-0.5262 0.527649,-1.17263 0.55021,-1.72785 0.0028,-0.19203 -0.166695,-0.19567 -0.164588,-0.0555 -0.01377,0.70389 -0.673833,1.05036 -1.15324,0.9685 -0.738933,-0.12675 -0.974829,-0.78897 -0.967608,-1.17858 0.02163,-1.2032 1.317407,-2.0907 2.528497,-3.63293 z" />
      <path
         style="opacity:1;stroke-width:0.28114113"
         inkscape:connector-curvature="0"
         id="path21-4-5-5"
         d="m 135.27821,181.91959 -0.90886,0.009 c -0.17338,-0.56034 -0.55701,-1.1299 -1.07792,-1.28794 -1.47162,-0.35255 -2.41841,0.48629 -2.73017,1.45335 -0.3782,1.17299 0.008,2.82012 1.02158,3.40478 0.83949,0.4848 2.08683,0.0759 2.65971,-0.96115 l 0.63649,0.39714 -0.3417,3.86524 h -4.15811 v -0.91364 h 3.36953 l 0.0535,-1.61027 c -0.72536,0.51945 -1.84011,0.51391 -2.56507,0.14957 -1.37304,-0.6679 -2.01097,-2.18647 -1.74439,-3.97617 0.36989,-1.7801 1.18555,-2.7888 3.0253,-2.93284 2.04636,-0.0188 2.76883,1.41614 2.76015,2.40309 v 0 z m 0,0" />
      <path
         inkscape:connector-curvature="0"
         id="path21-4-9-2-8"
         d="m 76.389119,115.747 0.908859,-0.009 c 0.173382,0.56033 0.557009,1.12989 1.077914,1.28793 1.471627,0.35255 2.418416,-0.48629 2.730172,-1.45335 0.378204,-1.17299 -0.0084,-2.82012 -1.021581,-3.40478 -0.839489,-0.4848 -2.086823,-0.0759 -2.659707,0.96115 l -0.636493,-0.39713 0.341707,-3.86525 h 4.15811 v 0.91364 h -3.369531 l -0.05347,1.61027 c 0.725362,-0.51945 1.840111,-0.51391 2.565079,-0.14957 1.373038,0.66791 2.010964,2.18647 1.744386,3.97617 -0.369887,1.7801 -1.185551,2.7888 -3.025296,2.93284 -2.046365,0.0189 -2.768833,-1.41614 -2.760151,-2.40309 v 0 z m 0,0"
         style="display:inline;opacity:1;stroke-width:0.28114113" />
    </g>
  </g>
</svg>
