<?xml version="1.0" encoding="UTF-8" standalone="no"?>
<!-- Created with Inkscape (http://www.inkscape.org/) -->

<svg
   xmlns:dc="http://purl.org/dc/elements/1.1/"
   xmlns:cc="http://creativecommons.org/ns#"
   xmlns:rdf="http://www.w3.org/1999/02/22-rdf-syntax-ns#"
   xmlns:svg="http://www.w3.org/2000/svg"
   xmlns="http://www.w3.org/2000/svg"
   xmlns:sodipodi="http://sodipodi.sourceforge.net/DTD/sodipodi-0.dtd"
   xmlns:inkscape="http://www.inkscape.org/namespaces/inkscape"
   width="63mm"
   height="88mm"
   viewBox="0 0 63 88"
   version="1.1"
   id="svg821"
   inkscape:version="0.92.1 r15371"
   sodipodi:docname="s06.svg">
  <defs
     id="defs815" />
  <sodipodi:namedview
     id="base"
     pagecolor="#ffffff"
     bordercolor="#666666"
     borderopacity="1.0"
     inkscape:pageopacity="0.0"
     inkscape:pageshadow="2"
     inkscape:zoom="0.5"
     inkscape:cx="285.88976"
     inkscape:cy="258.59842"
     inkscape:document-units="mm"
     inkscape:current-layer="layer1"
     showgrid="false"
     fit-margin-top="0"
     fit-margin-left="0"
     fit-margin-right="0"
     fit-margin-bottom="0"
     inkscape:window-width="757"
     inkscape:window-height="712"
     inkscape:window-x="913"
     inkscape:window-y="192"
     inkscape:window-maximized="0" />
  <metadata
     id="metadata818">
    <rdf:RDF>
      <cc:Work
         rdf:about="">
        <dc:format>image/svg+xml</dc:format>
        <dc:type
           rdf:resource="http://purl.org/dc/dcmitype/StillImage" />
        <dc:title></dc:title>
      </cc:Work>
    </rdf:RDF>
  </metadata>
  <g
     inkscape:label="レイヤー 1"
     inkscape:groupmode="layer"
     id="layer1"
     transform="translate(58.766663,-129.25414)">
    <g
       id="g35">
      <rect
         y="129.39488"
         x="-58.626102"
         height="87.718521"
         width="62.718876"
         id="rect6988-1-0"
         style="display:inline;opacity:1;fill:#ffffff;fill-opacity:1;stroke:#000000;stroke-width:0.28130043;stroke-miterlimit:4;stroke-dasharray:none;stroke-opacity:1"
         rx="2.9999998"
         ry="3.0000002" />
      <path
         d="m -53.788707,143.45334 c -1.211119,1.54223 -2.506976,2.42972 -2.528497,3.63293 -0.0073,0.38961 0.228675,1.05183 0.967608,1.17858 0.479407,0.0819 1.139445,-0.26461 1.15324,-0.9685 -0.0028,-0.14014 0.166161,-0.1365 0.164588,0.0555 -0.02248,0.55523 -0.219404,1.20166 -0.55021,1.72786 0.528857,0 1.057685,0 1.586541,0 -0.330805,-0.5262 -0.527648,-1.17263 -0.550209,-1.72786 -0.0028,-0.19202 0.166695,-0.19566 0.164588,-0.0555 0.01377,0.70389 0.673833,1.05036 1.15324,0.9685 0.738932,-0.12675 0.974829,-0.78897 0.967608,-1.17858 -0.02163,-1.20321 -1.317407,-2.0907 -2.528497,-3.63293 z"
         id="path7020-0-8"
         inkscape:connector-curvature="0"
         sodipodi:nodetypes="cccccccccccc"
         style="display:inline;opacity:1;stroke-width:0.28114113" />
      <path
         d="m -0.74446253,203.05499 c -1.21111857,-1.54223 -2.50697547,-2.42973 -2.52849727,-3.63293 -0.0073,-0.38961 0.2286757,-1.05183 0.967608,-1.17858 0.479407,-0.0819 1.139445,0.26461 1.1532402,0.9685 -0.00281,0.14014 0.16616149,0.1365 0.16458809,-0.0555 -0.022477,-0.55522 -0.21940389,-1.20165 -0.55020959,-1.72785 0.5288564,0 1.05768473,0 1.58654114,0 -0.33080568,0.5262 -0.52764827,1.17263 -0.55020959,1.72785 -0.00281,0.19203 0.16669527,0.19567 0.16458805,0.0555 0.0137672,-0.70389 0.67383325,-1.05036 1.1532402,-0.9685 0.7389323,0.12675 0.9748288,0.78897 0.967608,1.17858 -0.021634,1.2032 -1.31740678,2.0907 -2.52849723,3.63293 z"
         id="path7024-7-1"
         inkscape:connector-curvature="0"
         sodipodi:nodetypes="cccccccccccc"
         style="display:inline;opacity:1;stroke-width:0.28114113" />
      <path
         style="opacity:1;stroke-width:0.28114113"
         inkscape:connector-curvature="0"
         id="path23-1-9-8"
         d="m -56.511912,139.71507 c -0.114155,-0.78134 -0.111261,-2.80121 -0.01798,-3.39874 0.287902,-1.83051 0.986151,-2.66823 2.1558,-2.94159 1.136073,-0.26632 2.731998,0.0302 3.082022,1.56015 l -0.949683,0.0186 c -0.513656,-1.03444 -1.813362,-0.75815 -2.545579,-0.30799 -0.584094,0.35846 -0.848171,1.85522 -0.735112,1.9473 0,0 1.104662,-0.81929 1.975591,-0.75886 1.861042,0.19414 2.62866,1.81023 2.563617,3.33611 -0.05923,1.83567 -0.640454,3.30368 -2.613123,3.40132 -1.875511,-0.0726 -2.734864,-1.09633 -2.915467,-2.85612 v 0 z m 4.62552,-0.4848 c 0.01011,-1.27351 -0.567123,-2.228 -1.660547,-2.33262 -1.092355,-0.10535 -2.194488,0.96223 -2.118263,2.2604 0.07623,1.30375 0.580132,2.40042 1.905125,2.39454 1.425044,-0.006 1.86683,-1.41571 1.873685,-2.32232 z m 0,0" />
      <path
         inkscape:connector-curvature="0"
         id="path23-1-5-6-4"
         d="m 1.9779272,206.79326 c 0.1141552,0.78134 0.1112613,2.80121 0.017982,3.39873 -0.2879026,1.83052 -0.9861516,2.66823 -2.15579998,2.94159 -1.13607332,0.26633 -2.73199862,-0.0302 -3.08202222,-1.56014 l 0.9496826,-0.0186 c 0.5136563,1.03444 1.81336247,0.75816 2.54557981,0.30799 0.58409371,-0.35845 0.84817069,-1.85522 0.73511125,-1.94729 0,0 -1.10466171,0.81929 -1.97559042,0.75886 -1.86104184,-0.19414 -2.62866054,-1.81024 -2.56361764,-3.33611 0.059227,-1.83567 0.6404549,-3.30368 2.6131233,-3.40133 1.87551145,0.0726 2.7348645,1.09634 2.9154674,2.85613 v 0 z m -4.6255198,0.4848 c -0.010115,1.2735 0.5671235,2.22799 1.66054673,2.33261 1.09235554,0.10536 2.19448857,-0.96222 2.11826337,-2.2604 -0.076253,-1.30374 -0.58016023,-2.40041 -1.90512494,-2.39453 -1.42504366,0.006 -1.86682966,1.41571 -1.87368516,2.32232 z m 0,0"
         style="display:inline;opacity:1;stroke-width:0.28114113" />
    </g>
  </g>
</svg>
