<?xml version="1.0" encoding="UTF-8" standalone="no"?>
<!-- Created with Inkscape (http://www.inkscape.org/) -->

<svg
   xmlns:dc="http://purl.org/dc/elements/1.1/"
   xmlns:cc="http://creativecommons.org/ns#"
   xmlns:rdf="http://www.w3.org/1999/02/22-rdf-syntax-ns#"
   xmlns:svg="http://www.w3.org/2000/svg"
   xmlns="http://www.w3.org/2000/svg"
   xmlns:sodipodi="http://sodipodi.sourceforge.net/DTD/sodipodi-0.dtd"
   xmlns:inkscape="http://www.inkscape.org/namespaces/inkscape"
   width="63mm"
   height="88mm"
   viewBox="0 0 63 88"
   version="1.1"
   id="svg821"
   inkscape:version="0.92.1 r15371"
   sodipodi:docname="s07.svg">
  <defs
     id="defs815" />
  <sodipodi:namedview
     id="base"
     pagecolor="#ffffff"
     bordercolor="#666666"
     borderopacity="1.0"
     inkscape:pageopacity="0.0"
     inkscape:pageshadow="2"
     inkscape:zoom="0.5"
     inkscape:cx="187.16533"
     inkscape:cy="154.89764"
     inkscape:document-units="mm"
     inkscape:current-layer="layer1"
     showgrid="false"
     fit-margin-top="0"
     fit-margin-left="0"
     fit-margin-right="0"
     fit-margin-bottom="0"
     inkscape:window-width="757"
     inkscape:window-height="712"
     inkscape:window-x="913"
     inkscape:window-y="192"
     inkscape:window-maximized="0" />
  <metadata
     id="metadata818">
    <rdf:RDF>
      <cc:Work
         rdf:about="">
        <dc:format>image/svg+xml</dc:format>
        <dc:type
           rdf:resource="http://purl.org/dc/dcmitype/StillImage" />
        <dc:title></dc:title>
      </cc:Work>
    </rdf:RDF>
  </metadata>
  <g
     inkscape:label="レイヤー 1"
     inkscape:groupmode="layer"
     id="layer1"
     transform="translate(-56.312507,-101.81664)">
    <g
       id="g37">
      <rect
         ry="3.0000002"
         rx="2.9999998"
         style="display:inline;opacity:1;fill:#ffffff;fill-opacity:1;stroke:#000000;stroke-width:0.28130043;stroke-miterlimit:4;stroke-dasharray:none;stroke-opacity:1"
         id="rect7056-4-2"
         width="62.718876"
         height="87.718521"
         x="56.453068"
         y="101.95738" />
      <path
         style="display:inline;opacity:1;stroke-width:0.28114113"
         sodipodi:nodetypes="cccccccccccc"
         inkscape:connector-curvature="0"
         id="path7088-9-3"
         d="m 61.290522,116.01584 c -1.211119,1.54223 -2.506976,2.42972 -2.528498,3.63293 -0.0073,0.38961 0.228676,1.05183 0.967608,1.17858 0.479407,0.0819 1.139445,-0.26461 1.153241,-0.9685 -0.0028,-0.14014 0.166161,-0.1365 0.164588,0.0555 -0.02248,0.55523 -0.219404,1.20166 -0.55021,1.72786 0.528856,0 1.057685,0 1.586541,0 -0.330806,-0.5262 -0.527648,-1.17263 -0.550209,-1.72786 -0.0028,-0.19202 0.166695,-0.19566 0.164588,-0.0555 0.01377,0.70389 0.673833,1.05036 1.15324,0.9685 0.738932,-0.12675 0.974829,-0.78897 0.967608,-1.17858 -0.02163,-1.20321 -1.317407,-2.0907 -2.528497,-3.63293 z" />
      <path
         style="display:inline;opacity:1;stroke-width:0.28114113"
         sodipodi:nodetypes="cccccccccccc"
         inkscape:connector-curvature="0"
         id="path7092-7-0"
         d="m 114.33477,175.61749 c -1.21112,-1.54223 -2.50698,-2.42973 -2.5285,-3.63293 -0.007,-0.38961 0.22867,-1.05183 0.96761,-1.17858 0.4794,-0.0819 1.13944,0.26461 1.15324,0.9685 -0.003,0.14014 0.16616,0.1365 0.16459,-0.0555 -0.0225,-0.55522 -0.21941,-1.20165 -0.55021,-1.72785 0.52885,0 1.05768,0 1.58654,0 -0.33081,0.5262 -0.52765,1.17263 -0.55021,1.72785 -0.003,0.19203 0.16669,0.19567 0.16459,0.0555 0.0138,-0.70389 0.67383,-1.05036 1.15324,-0.9685 0.73893,0.12675 0.97482,0.78897 0.9676,1.17858 -0.0216,1.2032 -1.3174,2.0907 -2.52849,3.63293 z" />
      <path
         style="opacity:1;stroke-width:0.28114113"
         inkscape:connector-curvature="0"
         id="path25-4-6-4"
         d="m 59.86486,115.13274 c 0.609773,-3.22766 1.258882,-5.65078 2.963175,-8.28058 h -3.464188 v 1.132 h -0.919704 v -2.13395 h 5.066969 l 0.624945,1.00195 c -1.810131,1.97852 -3.466744,8.37412 -3.173419,8.28058 z m 0,0" />
      <path
         inkscape:connector-curvature="0"
         id="path25-4-1-9-1"
         d="m 115.75959,176.50058 c -0.60978,3.22767 -1.25892,5.65078 -2.96318,8.28059 h 3.46419 v -1.132 h 0.9197 v 2.13394 h -5.06697 l -0.62494,-1.00194 c 1.81013,-1.97852 3.46674,-8.37413 3.17339,-8.28059 z m 0,0"
         style="display:inline;opacity:1;stroke-width:0.28114113" />
    </g>
  </g>
</svg>
