<?xml version="1.0" encoding="UTF-8" standalone="no"?>
<!-- Created with Inkscape (http://www.inkscape.org/) -->

<svg
   xmlns:dc="http://purl.org/dc/elements/1.1/"
   xmlns:cc="http://creativecommons.org/ns#"
   xmlns:rdf="http://www.w3.org/1999/02/22-rdf-syntax-ns#"
   xmlns:svg="http://www.w3.org/2000/svg"
   xmlns="http://www.w3.org/2000/svg"
   xmlns:sodipodi="http://sodipodi.sourceforge.net/DTD/sodipodi-0.dtd"
   xmlns:inkscape="http://www.inkscape.org/namespaces/inkscape"
   width="63mm"
   height="88mm"
   viewBox="0 0 63 88"
   version="1.1"
   id="svg821"
   inkscape:version="0.92.1 r15371"
   sodipodi:docname="s08.svg">
  <defs
     id="defs815" />
  <sodipodi:namedview
     id="base"
     pagecolor="#ffffff"
     bordercolor="#666666"
     borderopacity="1.0"
     inkscape:pageopacity="0.0"
     inkscape:pageshadow="2"
     inkscape:zoom="0.5"
     inkscape:cx="496.22046"
     inkscape:cy="-64.803142"
     inkscape:document-units="mm"
     inkscape:current-layer="layer1"
     showgrid="false"
     fit-margin-top="0"
     fit-margin-left="0"
     fit-margin-right="0"
     fit-margin-bottom="0"
     inkscape:window-width="757"
     inkscape:window-height="712"
     inkscape:window-x="913"
     inkscape:window-y="192"
     inkscape:window-maximized="0" />
  <metadata
     id="metadata818">
    <rdf:RDF>
      <cc:Work
         rdf:about="">
        <dc:format>image/svg+xml</dc:format>
        <dc:type
           rdf:resource="http://purl.org/dc/dcmitype/StillImage" />
        <dc:title></dc:title>
      </cc:Work>
    </rdf:RDF>
  </metadata>
  <g
     inkscape:label="レイヤー 1"
     inkscape:groupmode="layer"
     id="layer1"
     transform="translate(25.458329,-43.687471)">
    <g
       id="g39">
      <rect
         y="43.828209"
         x="-25.317768"
         height="87.718521"
         width="62.718876"
         id="rect7125-2-7"
         style="display:inline;opacity:1;fill:#ffffff;fill-opacity:1;stroke:#000000;stroke-width:0.28130043;stroke-miterlimit:4;stroke-dasharray:none;stroke-opacity:1"
         rx="2.9999998"
         ry="3.0000002" />
      <path
         d="m -20.480374,57.886666 c -1.211119,1.542233 -2.506976,2.429729 -2.528497,3.632929 -0.0073,0.389614 0.228675,1.051831 0.967608,1.178586 0.479407,0.08186 1.139445,-0.264615 1.15324,-0.968505 -0.0028,-0.140139 0.166161,-0.136496 0.164588,0.05553 -0.02248,0.555224 -0.219404,1.201654 -0.55021,1.727853 0.528857,0 1.057685,0 1.586541,0 -0.330805,-0.526199 -0.527648,-1.172629 -0.550209,-1.727853 -0.0028,-0.192023 0.166695,-0.195666 0.164588,-0.05553 0.01377,0.70389 0.673833,1.05036 1.15324,0.968505 0.738932,-0.126755 0.974829,-0.788972 0.967608,-1.178586 -0.02163,-1.2032 -1.317407,-2.090696 -2.528497,-3.632929 z"
         id="path7157-2-9"
         inkscape:connector-curvature="0"
         sodipodi:nodetypes="cccccccccccc"
         style="display:inline;opacity:1;stroke-width:0.28114113" />
      <path
         d="m 32.56387,117.48832 c -1.211118,-1.54223 -2.506975,-2.42973 -2.528497,-3.63293 -0.0073,-0.38961 0.228676,-1.05183 0.967608,-1.17858 0.479407,-0.0819 1.139445,0.26461 1.15324,0.9685 -0.0028,0.14014 0.166162,0.1365 0.164588,-0.0555 -0.02248,-0.55522 -0.219403,-1.20165 -0.550209,-1.72785 0.528856,0 1.057685,0 1.586541,0 -0.330806,0.5262 -0.527648,1.17263 -0.55021,1.72785 -0.0028,0.19203 0.166696,0.19567 0.164588,0.0555 0.01377,-0.70389 0.673834,-1.05036 1.153241,-0.9685 0.738932,0.12675 0.974828,0.78897 0.967608,1.17858 -0.02163,1.2032 -1.317407,2.0907 -2.528498,3.63293 z"
         id="path7162-7-0"
         inkscape:connector-curvature="0"
         sodipodi:nodetypes="cccccccccccc"
         style="display:inline;opacity:1;stroke-width:0.28114113" />
      <path
         style="opacity:1;stroke-width:0.28114113"
         inkscape:connector-curvature="0"
         id="path27-43-30-7"
         d="m -23.492605,54.28527 c 0.04406,-1.246245 0.494157,-1.713742 1.380258,-2.365784 -0.706931,-0.510595 -1.004948,-1.263209 -0.94426,-1.90383 0.145567,-1.551308 1.341963,-2.326765 2.647457,-2.293598 1.306562,0.03463 2.431059,1.071631 2.518832,2.198906 0.07623,0.97992 -0.214571,1.452931 -0.908859,1.968308 0.82398,0.696632 1.35028,1.15417 1.330781,2.381623 -0.01939,1.227481 -1.062377,2.688148 -2.880094,2.732737 -1.817689,0.04456 -3.189294,-1.472088 -3.144115,-2.718362 z m 5.074189,0.0045 c 0.07766,-1.128372 -0.918608,-1.889454 -2.043134,-1.90051 -1.094884,-0.01181 -2.07418,0.92391 -2.07418,1.936997 0,1.087835 1.274054,1.679112 2.096938,1.6817 1.000256,0.0045 1.952805,-0.746734 2.020376,-1.718187 z m -0.359801,-4.036428 c 0.02135,-0.949341 -0.853593,-1.6305 -1.756664,-1.60324 -0.802992,0.02476 -1.652258,0.637695 -1.653691,1.431944 0,0.994268 0.966653,1.490853 1.792065,1.510011 0.749188,0.01688 1.60132,-0.620731 1.61829,-1.338715 z m 0,0" />
      <path
         inkscape:connector-curvature="0"
         id="path27-43-3-4-8"
         d="m 29.551611,121.08972 c 0.04406,1.24624 0.494186,1.71374 1.380287,2.36578 -0.706931,0.5106 -1.004948,1.26321 -0.94426,1.90383 0.145566,1.55131 1.341963,2.32677 2.647457,2.2936 1.306561,-0.0346 2.431059,-1.07163 2.518832,-2.19891 0.07622,-0.97992 -0.214572,-1.45293 -0.908859,-1.96831 0.82398,-0.69663 1.350279,-1.15416 1.330781,-2.38162 -0.01939,-1.22748 -1.062377,-2.68815 -2.880095,-2.73274 -1.817689,-0.0446 -3.189293,1.47209 -3.144115,2.71837 v 0 z m 5.07419,-0.004 c 0.07766,1.12837 -0.918608,1.88945 -2.043134,1.90051 -1.094884,0.0118 -2.07418,-0.92391 -2.07418,-1.937 0,-1.08784 1.274054,-1.67911 2.096966,-1.6817 1.000228,-0.004 1.952804,0.74673 2.020376,1.71819 v 0 z M 34.266,125.12164 c 0.02135,0.94934 -0.853594,1.6305 -1.756664,1.60324 -0.802992,-0.0247 -1.652259,-0.63769 -1.653692,-1.43194 0,-0.99427 0.966653,-1.49085 1.792066,-1.51001 0.749187,-0.0169 1.60132,0.62073 1.61829,1.33871 z m 0,0"
         style="display:inline;opacity:1;stroke-width:0.28114113" />
    </g>
  </g>
</svg>
