<?xml version="1.0" encoding="UTF-8" standalone="no"?>
<!-- Created with Inkscape (http://www.inkscape.org/) -->

<svg
   xmlns:dc="http://purl.org/dc/elements/1.1/"
   xmlns:cc="http://creativecommons.org/ns#"
   xmlns:rdf="http://www.w3.org/1999/02/22-rdf-syntax-ns#"
   xmlns:svg="http://www.w3.org/2000/svg"
   xmlns="http://www.w3.org/2000/svg"
   xmlns:sodipodi="http://sodipodi.sourceforge.net/DTD/sodipodi-0.dtd"
   xmlns:inkscape="http://www.inkscape.org/namespaces/inkscape"
   width="63mm"
   height="88mm"
   viewBox="0 0 63 88"
   version="1.1"
   id="svg821"
   inkscape:version="0.92.1 r15371"
   sodipodi:docname="s09.svg">
  <defs
     id="defs815" />
  <sodipodi:namedview
     id="base"
     pagecolor="#ffffff"
     bordercolor="#666666"
     borderopacity="1.0"
     inkscape:pageopacity="0.0"
     inkscape:pageshadow="2"
     inkscape:zoom="0.5"
     inkscape:cx="221.27557"
     inkscape:cy="349.49609"
     inkscape:document-units="mm"
     inkscape:current-layer="layer1"
     showgrid="false"
     fit-margin-top="0"
     fit-margin-left="0"
     fit-margin-right="0"
     fit-margin-bottom="0"
     inkscape:window-width="757"
     inkscape:window-height="712"
     inkscape:window-x="913"
     inkscape:window-y="192"
     inkscape:window-maximized="0" />
  <metadata
     id="metadata818">
    <rdf:RDF>
      <cc:Work
         rdf:about="">
        <dc:format>image/svg+xml</dc:format>
        <dc:type
           rdf:resource="http://purl.org/dc/dcmitype/StillImage" />
        <dc:title></dc:title>
      </cc:Work>
    </rdf:RDF>
  </metadata>
  <g
     inkscape:label="レイヤー 1"
     inkscape:groupmode="layer"
     id="layer1"
     transform="translate(-47.287507,-153.30414)">
    <g
       id="g41">
      <rect
         ry="3.0000002"
         rx="2.9999998"
         style="display:inline;opacity:1;fill:#ffffff;fill-opacity:1;stroke:#000000;stroke-width:0.28130043;stroke-miterlimit:4;stroke-dasharray:none;stroke-opacity:1"
         id="rect7195-8-7"
         width="62.718876"
         height="87.718521"
         x="47.428066"
         y="153.44489" />
      <path
         style="display:inline;opacity:1;stroke-width:0.28114113"
         sodipodi:nodetypes="cccccccccccc"
         inkscape:connector-curvature="0"
         id="path7227-2-8"
         d="m 52.265498,167.50334 c -1.211118,1.54223 -2.506975,2.42972 -2.528497,3.63293 -0.0073,0.38961 0.228676,1.05183 0.967608,1.17858 0.479407,0.0819 1.139445,-0.26461 1.15324,-0.9685 -0.0028,-0.14014 0.166162,-0.1365 0.164588,0.0555 -0.02248,0.55523 -0.219404,1.20166 -0.550209,1.72786 0.528856,0 1.057684,0 1.586541,0 -0.330806,-0.5262 -0.527648,-1.17263 -0.55021,-1.72786 -0.0028,-0.19202 0.166696,-0.19566 0.164588,-0.0555 0.01377,0.70389 0.673834,1.05036 1.153241,0.9685 0.738932,-0.12675 0.974828,-0.78897 0.967608,-1.17858 -0.02164,-1.20321 -1.317407,-2.0907 -2.528498,-3.63293 z" />
      <path
         style="display:inline;opacity:1;stroke-width:0.28114113"
         sodipodi:nodetypes="cccccccccccc"
         inkscape:connector-curvature="0"
         id="path7231-7-8"
         d="m 105.30974,227.10499 c -1.21112,-1.54223 -2.50697,-2.42973 -2.52849,-3.63293 -0.007,-0.38961 0.22867,-1.05183 0.9676,-1.17858 0.47941,-0.0819 1.13945,0.26461 1.15324,0.9685 -0.003,0.14014 0.16617,0.1365 0.16459,-0.0555 -0.0225,-0.55522 -0.2194,-1.20165 -0.55021,-1.72785 0.52886,0 1.05769,0 1.58654,0 -0.3308,0.5262 -0.52764,1.17263 -0.55021,1.72785 -0.003,0.19203 0.1667,0.19567 0.16459,0.0555 0.0138,-0.70389 0.67384,-1.05036 1.15324,-0.9685 0.73893,0.12675 0.97483,0.78897 0.96761,1.17858 -0.0216,1.2032 -1.31741,2.0907 -2.5285,3.63293 z" />
      <path
         style="opacity:1;stroke-width:0.28114113"
         inkscape:connector-curvature="0"
         id="path29-33-4-4"
         d="m 49.675077,164.83165 0.848171,-0.26925 c 0.32041,0.85606 0.966652,1.1095 1.650797,1.05461 1.227499,-0.098 1.635288,-1.47197 1.727079,-2.68646 -0.478283,0.50798 -1.196762,0.76581 -1.809064,0.73968 -1.957159,-0.10499 -2.458172,-1.67346 -2.476238,-3.31524 -0.05347,-1.38432 0.518011,-2.387 1.498403,-2.84743 0.519444,-0.23319 1.708591,-0.23319 2.230957,0.0431 1.19929,0.63356 1.64397,1.72798 1.56339,4.34113 0,2.14973 -0.45589,4.6535 -2.757285,4.70802 -1.328954,0.18418 -2.339325,-0.85166 -2.476238,-1.76815 v 0 z m 3.331629,-2.35565 c 0.399164,-0.25308 0.62385,-0.49065 0.80302,-0.84613 0.146663,-0.29212 0.197602,-0.44462 0.155317,-1.04873 -0.108761,-1.55854 -0.924368,-2.44332 -2.108149,-2.268 -0.660347,0.0995 -1.021553,0.4693 -1.228904,1.15704 -0.382559,1.27196 0.102945,2.75975 1.011832,3.10234 0.408885,0.15543 1.041052,0.11087 1.366856,-0.0965 v 0 z m 0,0" />
      <path
         inkscape:connector-curvature="0"
         id="path29-33-3-8-6"
         d="m 107.89929,229.77668 -0.84817,0.26925 c -0.32044,-0.85605 -0.96665,-1.10949 -1.65079,-1.05461 -1.2275,0.098 -1.63529,1.47198 -1.72708,2.68646 0.47828,-0.50798 1.19679,-0.7658 1.80906,-0.73967 1.95716,0.10499 2.45817,1.67346 2.47624,3.31524 0.0535,1.38431 -0.51801,2.38699 -1.4984,2.84743 -0.51945,0.23318 -1.7086,0.23318 -2.23093,-0.0431 -1.19932,-0.63356 -1.644,-1.72798 -1.56342,-4.34112 0,-2.14974 0.45589,-4.65351 2.75728,-4.70803 1.32896,-0.18418 2.33933,0.85167 2.47624,1.76815 v 0 z m -3.33163,2.35566 c -0.39919,0.25307 -0.62387,0.49065 -0.80302,0.84612 -0.14666,0.29213 -0.19763,0.44463 -0.15531,1.04873 0.10876,1.55854 0.92437,2.44332 2.10815,2.268 0.66034,-0.0995 1.02155,-0.46929 1.2289,-1.15704 0.38256,-1.27195 -0.10295,-2.75974 -1.0118,-3.10233 -0.40892,-0.15543 -1.04108,-0.11087 -1.36689,0.0965 v 0 z m 0,0"
         style="display:inline;opacity:1;stroke-width:0.28114113" />
    </g>
  </g>
</svg>
