<?xml version="1.0" encoding="UTF-8" standalone="no"?>
<!-- Created with Inkscape (http://www.inkscape.org/) -->

<svg
   xmlns:dc="http://purl.org/dc/elements/1.1/"
   xmlns:cc="http://creativecommons.org/ns#"
   xmlns:rdf="http://www.w3.org/1999/02/22-rdf-syntax-ns#"
   xmlns:svg="http://www.w3.org/2000/svg"
   xmlns="http://www.w3.org/2000/svg"
   xmlns:sodipodi="http://sodipodi.sourceforge.net/DTD/sodipodi-0.dtd"
   xmlns:inkscape="http://www.inkscape.org/namespaces/inkscape"
   width="63mm"
   height="88mm"
   viewBox="0 0 63 88"
   version="1.1"
   id="svg821"
   inkscape:version="0.92.1 r15371"
   sodipodi:docname="s10.svg">
  <defs
     id="defs815" />
  <sodipodi:namedview
     id="base"
     pagecolor="#ffffff"
     bordercolor="#666666"
     borderopacity="1.0"
     inkscape:pageopacity="0.0"
     inkscape:pageshadow="2"
     inkscape:zoom="0.5"
     inkscape:cx="60.330691"
     inkscape:cy="-122.2047"
     inkscape:document-units="mm"
     inkscape:current-layer="layer1"
     showgrid="false"
     fit-margin-top="0"
     fit-margin-left="0"
     fit-margin-right="0"
     fit-margin-bottom="0"
     inkscape:window-width="757"
     inkscape:window-height="712"
     inkscape:window-x="913"
     inkscape:window-y="192"
     inkscape:window-maximized="0" />
  <metadata
     id="metadata818">
    <rdf:RDF>
      <cc:Work
         rdf:about="">
        <dc:format>image/svg+xml</dc:format>
        <dc:type
           rdf:resource="http://purl.org/dc/dcmitype/StillImage" />
        <dc:title></dc:title>
      </cc:Work>
    </rdf:RDF>
  </metadata>
  <g
     inkscape:label="レイヤー 1"
     inkscape:groupmode="layer"
     id="layer1"
     transform="translate(-89.870839,-28.499969)">
    <g
       id="g72">
      <rect
         y="28.640711"
         x="90.011398"
         height="87.718521"
         width="62.718876"
         id="rect7263-6-4"
         style="display:inline;opacity:1;fill:#ffffff;fill-opacity:1;stroke:#000000;stroke-width:0.28130043;stroke-miterlimit:4;stroke-dasharray:none;stroke-opacity:1"
         rx="2.9999998"
         ry="3.0000002" />
      <path
         d="m 94.848801,42.699166 c -1.211119,1.542233 -2.506976,2.429729 -2.528498,3.632929 -0.0073,0.389614 0.228676,1.051831 0.967609,1.178586 0.479406,0.08186 1.139444,-0.264615 1.15324,-0.968505 -0.0028,-0.140139 0.166161,-0.136496 0.164588,0.05553 -0.02248,0.555224 -0.219404,1.201654 -0.55021,1.727853 0.528857,0 1.057685,0 1.586541,0 -0.330805,-0.526199 -0.527648,-1.172629 -0.550209,-1.727853 -0.0028,-0.192023 0.166695,-0.195666 0.164588,-0.05553 0.01377,0.70389 0.673833,1.05036 1.15324,0.968505 0.738932,-0.126755 0.974829,-0.788972 0.967608,-1.178586 -0.02163,-1.2032 -1.317407,-2.090696 -2.528497,-3.632929 z"
         id="path7295-4-8"
         inkscape:connector-curvature="0"
         sodipodi:nodetypes="cccccccccccc"
         style="display:inline;opacity:1;stroke-width:0.28114113" />
      <path
         d="m 147.89305,102.30082 c -1.21112,-1.54223 -2.50698,-2.429728 -2.5285,-3.632928 -0.007,-0.389614 0.22867,-1.051831 0.96761,-1.178586 0.4794,-0.08186 1.13944,0.264615 1.15324,0.968505 -0.003,0.140139 0.16616,0.136496 0.16458,-0.05553 -0.0225,-0.555223 -0.2194,-1.201654 -0.55021,-1.727853 0.52886,0 1.05769,0 1.58655,0 -0.33081,0.526199 -0.52765,1.17263 -0.55021,1.727853 -0.003,0.192023 0.16669,0.195666 0.16458,0.05553 0.0138,-0.70389 0.67384,-1.05036 1.15324,-0.968505 0.73894,0.126755 0.97483,0.788972 0.96761,1.178586 -0.0216,1.2032 -1.3174,2.090698 -2.52849,3.632928 z"
         id="path7299-3-5"
         inkscape:connector-curvature="0"
         sodipodi:nodetypes="cccccccccccc"
         style="display:inline;opacity:1;stroke-width:0.28114113" />
      <path
         style="opacity:1;stroke-width:0.28114113"
         inkscape:connector-curvature="0"
         id="path31-5-4-7"
         d="m 92.033497,41.817083 v -9.28336 h 0.898744 v 9.28336 z m 0,0" />
      <path
         style="opacity:1;stroke-width:0.28114113"
         inkscape:connector-curvature="0"
         id="path33-4-6-8"
         d="m 95.596302,32.53354 c -0.865169,0 -1.560524,0.791236 -1.560524,1.774015 v 5.735699 c 0,0.982781 0.695721,1.773646 1.560524,1.773646 h 0.505003 c 0.865141,0 1.561957,-0.790865 1.561957,-1.773646 v -5.735699 c 0,-0.982779 -0.697181,-1.774015 -1.561957,-1.774015 z m 0.261155,0.877798 c 0.510791,0 0.921502,0.392303 0.921502,0.882955 v 5.811583 c 0,0.490655 -0.410711,0.886637 -0.921502,0.886637 -0.510762,0 -0.922935,-0.395982 -0.922935,-0.886637 v -5.811583 c 0,-0.490283 0.412173,-0.882955 0.922935,-0.882955 z m 0,0" />
      <g
         id="g8583-6-9"
         transform="matrix(-0.28096287,0,0,0.2813195,1121.308,161.25703)">
        <path
           d="m 3454.5506,-206.43478 v 32.99935 h 3.1988 v -32.99935 z m 0,0"
           id="path31-5-5-6-7"
           inkscape:connector-curvature="0"
           style="opacity:1" />
        <path
           d="m 3467.2313,-173.43478 c -3.0793,0 -5.5542,-2.81259 -5.5542,-6.30605 v -20.38856 c 0,-3.49347 2.4762,-6.30474 5.5542,-6.30474 h 1.7974 c 3.0792,0 5.5593,2.81127 5.5593,6.30474 v 20.38856 c 0,3.49346 -2.4814,6.30605 -5.5593,6.30605 z m 0.9295,-3.12029 c 1.818,0 3.2798,-1.39451 3.2798,-3.13862 v -20.6583 c 0,-1.74412 -1.4618,-3.15171 -3.2798,-3.15171 -1.8179,0 -3.2849,1.40759 -3.2849,3.15171 v 20.6583 c 0,1.7428 1.467,3.13862 3.2849,3.13862 z m 0,0"
           id="path33-4-3-7-9"
           inkscape:connector-curvature="0"
           style="opacity:1" />
      </g>
    </g>
  </g>
</svg>
