<?xml version="1.0" encoding="UTF-8" standalone="no"?>
<!-- Created with Inkscape (http://www.inkscape.org/) -->

<svg
   xmlns:dc="http://purl.org/dc/elements/1.1/"
   xmlns:cc="http://creativecommons.org/ns#"
   xmlns:rdf="http://www.w3.org/1999/02/22-rdf-syntax-ns#"
   xmlns:svg="http://www.w3.org/2000/svg"
   xmlns="http://www.w3.org/2000/svg"
   xmlns:sodipodi="http://sodipodi.sourceforge.net/DTD/sodipodi-0.dtd"
   xmlns:inkscape="http://www.inkscape.org/namespaces/inkscape"
   width="63.000004mm"
   height="88mm"
   viewBox="0 0 63.000004 88"
   version="1.1"
   id="svg821"
   inkscape:version="0.92.1 r15371"
   sodipodi:docname="s11.svg">
  <defs
     id="defs815" />
  <sodipodi:namedview
     id="base"
     pagecolor="#ffffff"
     bordercolor="#666666"
     borderopacity="1.0"
     inkscape:pageopacity="0.0"
     inkscape:pageshadow="2"
     inkscape:zoom="0.5"
     inkscape:cx="119.05512"
     inkscape:cy="166.29923"
     inkscape:document-units="mm"
     inkscape:current-layer="layer1"
     showgrid="false"
     fit-margin-top="0"
     fit-margin-left="0"
     fit-margin-right="0"
     fit-margin-bottom="0"
     inkscape:window-width="757"
     inkscape:window-height="712"
     inkscape:window-x="913"
     inkscape:window-y="192"
     inkscape:window-maximized="0" />
  <metadata
     id="metadata818">
    <rdf:RDF>
      <cc:Work
         rdf:about="">
        <dc:format>image/svg+xml</dc:format>
        <dc:type
           rdf:resource="http://purl.org/dc/dcmitype/StillImage" />
        <dc:title></dc:title>
      </cc:Work>
    </rdf:RDF>
  </metadata>
  <g
     inkscape:label="レイヤー 1"
     inkscape:groupmode="layer"
     id="layer1"
     transform="translate(-74.333334,-104.8333)">
    <g
       id="g39">
      <rect
         y="104.97395"
         x="74.473984"
         height="87.718697"
         width="62.718704"
         id="rect7331-9-9"
         style="display:inline;opacity:1;fill:#ffffff;fill-opacity:1;stroke:#000000;stroke-width:0.28130031;stroke-miterlimit:4;stroke-dasharray:none;stroke-opacity:1"
         rx="2.9999998"
         ry="2.9999998" />
      <path
         d="m 79.311349,119.03243 c -1.211096,1.54224 -2.506944,2.42973 -2.528478,3.63294 -0.0073,0.38961 0.228684,1.05183 0.967596,1.17859 0.47941,0.0819 1.139441,-0.26462 1.153242,-0.96851 -0.0028,-0.14014 0.166172,-0.1365 0.164591,0.0555 -0.02258,0.55522 -0.219399,1.20165 -0.550219,1.72785 0.528855,0 1.057682,0 1.586536,0 -0.330791,-0.5262 -0.527641,-1.17263 -0.55019,-1.72785 -0.0028,-0.19203 0.16668,-0.19567 0.164591,-0.0555 0.01383,0.70389 0.673832,1.05036 1.153242,0.96851 0.738912,-0.12676 0.974821,-0.78898 0.967596,-1.17859 -0.02173,-1.20321 -1.31741,-2.0907 -2.528507,-3.63294 z"
         id="path7363-8-9"
         inkscape:connector-curvature="0"
         sodipodi:nodetypes="cccccccccccc"
         style="display:inline;opacity:1;stroke-width:0.28222212" />
      <path
         d="m 132.35546,178.6342 c -1.21112,-1.54223 -2.50697,-2.42973 -2.52848,-3.63293 -0.007,-0.38962 0.22866,-1.05184 0.9676,-1.17859 0.47941,-0.0819 1.13944,0.26461 1.15324,0.96851 -0.003,0.14013 0.16614,0.13649 0.16459,-0.0555 -0.0226,-0.55523 -0.21942,-1.20166 -0.55022,-1.72786 0.52886,0 1.05768,0 1.58654,0 -0.33079,0.5262 -0.52764,1.17263 -0.55022,1.72786 -0.003,0.19202 0.16671,0.19566 0.16459,0.0555 0.0138,-0.7039 0.67383,-1.05037 1.15324,-0.96851 0.73894,0.12675 0.97482,0.78897 0.9676,1.17859 -0.0217,1.2032 -1.31738,2.0907 -2.52848,3.63293 z"
         id="path7367-3-1"
         inkscape:connector-curvature="0"
         sodipodi:nodetypes="cccccccccccc"
         style="display:inline;opacity:1;stroke-width:0.28222212" />
      <path
         style="opacity:1;stroke-width:0.28222212"
         inkscape:connector-curvature="0"
         id="path35-7-9-2"
         d="m 79.280926,108.86679 v 0.97174 h 0.942478 c 0,0 0.02286,0.93673 0.03104,2.9237 0.0073,1.92949 0.0466,2.88648 -0.07623,3.4361 -0.330171,1.26642 -2.163058,1.27342 -2.527152,0.36284 -0.211666,-0.52972 -0.155335,-0.94155 -0.1651,-1.47493 H 76.47271 c 0,0 0.0059,0.26855 0.0073,0.5971 0.0059,1.4241 0.476814,2.10521 1.578917,2.37375 1.133175,0.30647 2.458177,-0.16097 2.929232,-1.13051 0.28067,-0.55254 0.248525,-0.59049 0.255382,-3.93156 0.0042,-2.22896 0.03793,-3.15649 0.03793,-3.15649 h 0.86769 v -0.97174 h -2.868188 z m 0,0" />
      <path
         inkscape:connector-curvature="0"
         id="path35-7-8-1-4"
         d="m 132.38504,188.79984 v -0.97173 h -0.94245 c 0,0 -0.0229,-0.93674 -0.031,-2.92371 -0.007,-1.92948 -0.0466,-2.88648 0.0762,-3.43609 0.33014,-1.26642 2.16303,-1.27343 2.52713,-0.36285 0.21169,0.52972 0.15539,0.94155 0.1651,1.47493 h 1.01325 c 0,0 -0.006,-0.26855 -0.007,-0.5971 -0.006,-1.4241 -0.47679,-2.1052 -1.57892,-2.37375 -1.13317,-0.30647 -2.45815,0.16097 -2.9292,1.13051 -0.28067,0.55254 -0.24853,0.59049 -0.25536,3.93156 -0.004,2.22896 -0.038,3.1565 -0.038,3.1565 h -0.86766 v 0.97173 h 2.86813 z m 0,0"
         style="display:inline;opacity:1;stroke-width:0.28222212" />
    </g>
  </g>
</svg>
