<?xml version="1.0" encoding="UTF-8" standalone="no"?>
<!-- Created with Inkscape (http://www.inkscape.org/) -->

<svg
   xmlns:dc="http://purl.org/dc/elements/1.1/"
   xmlns:cc="http://creativecommons.org/ns#"
   xmlns:rdf="http://www.w3.org/1999/02/22-rdf-syntax-ns#"
   xmlns:svg="http://www.w3.org/2000/svg"
   xmlns="http://www.w3.org/2000/svg"
   xmlns:sodipodi="http://sodipodi.sourceforge.net/DTD/sodipodi-0.dtd"
   xmlns:inkscape="http://www.inkscape.org/namespaces/inkscape"
   width="63.000004mm"
   height="88mm"
   viewBox="0 0 63.000004 88"
   version="1.1"
   id="svg821"
   inkscape:version="0.92.1 r15371"
   sodipodi:docname="s12.svg">
  <defs
     id="defs815" />
  <sodipodi:namedview
     id="base"
     pagecolor="#ffffff"
     bordercolor="#666666"
     borderopacity="1.0"
     inkscape:pageopacity="0.0"
     inkscape:pageshadow="2"
     inkscape:zoom="0.5"
     inkscape:cx="443.02055"
     inkscape:cy="106.59844"
     inkscape:document-units="mm"
     inkscape:current-layer="layer1"
     showgrid="false"
     fit-margin-top="0"
     fit-margin-left="0"
     fit-margin-right="0"
     fit-margin-bottom="0"
     inkscape:window-width="757"
     inkscape:window-height="712"
     inkscape:window-x="913"
     inkscape:window-y="192"
     inkscape:window-maximized="0" />
  <metadata
     id="metadata818">
    <rdf:RDF>
      <cc:Work
         rdf:about="">
        <dc:format>image/svg+xml</dc:format>
        <dc:type
           rdf:resource="http://purl.org/dc/dcmitype/StillImage" />
        <dc:title></dc:title>
      </cc:Work>
    </rdf:RDF>
  </metadata>
  <g
     inkscape:label="レイヤー 1"
     inkscape:groupmode="layer"
     id="layer1"
     transform="translate(61.412479,-4.3707997)">
    <g
       id="g35">
      <rect
         ry="2.9999998"
         rx="2.9999998"
         style="display:inline;opacity:1;fill:#ffffff;fill-opacity:1;stroke:#000000;stroke-width:0.28130031;stroke-miterlimit:4;stroke-dasharray:none;stroke-opacity:1"
         id="rect7399-8-3"
         width="62.718704"
         height="87.718697"
         x="-61.271828"
         y="4.5114503" />
      <path
         style="display:inline;opacity:1;stroke-width:0.28222212"
         sodipodi:nodetypes="cccccccccccc"
         inkscape:connector-curvature="0"
         id="path7431-0-1"
         d="m -56.434434,18.569929 c -1.211097,1.542238 -2.506973,2.429735 -2.528478,3.632939 -0.0073,0.389614 0.228684,1.051833 0.967596,1.178587 0.479409,0.08186 1.139441,-0.264617 1.153241,-0.968506 -0.0028,-0.140141 0.166172,-0.136497 0.164592,0.05553 -0.02258,0.555222 -0.219399,1.201654 -0.550219,1.727855 0.528855,0 1.057681,0 1.586536,0 -0.330792,-0.526201 -0.527641,-1.172633 -0.550191,-1.727855 -0.0028,-0.192024 0.16668,-0.195668 0.164592,-0.05553 0.01383,0.703889 0.673832,1.050362 1.153213,0.968506 0.73894,-0.126754 0.974849,-0.788973 0.967624,-1.178587 -0.02173,-1.203204 -1.317409,-2.090701 -2.528506,-3.632939 z" />
      <path
         style="display:inline;opacity:1;stroke-width:0.28222212"
         sodipodi:nodetypes="cccccccccccc"
         inkscape:connector-curvature="0"
         id="path7435-3-6"
         d="m -3.3903219,78.171702 c -1.211125,-1.542234 -2.506973,-2.429732 -2.5285065,-3.632935 -0.00734,-0.389614 0.228684,-1.051833 0.9676244,-1.178588 0.4794096,-0.08186 1.1394409,0.264615 1.1532415,0.968507 -0.00282,0.140138 0.1661438,0.136494 0.1645633,-0.05553 -0.022578,-0.555226 -0.2193989,-1.201657 -0.5501907,-1.727859 0.5288548,0 1.0576813,0 1.5865361,0 -0.33082,0.526202 -0.5276412,1.172633 -0.550219,1.727859 -0.00282,0.192021 0.1667083,0.195665 0.1645916,0.05553 0.013829,-0.703892 0.6738319,-1.050363 1.1532415,-0.968507 0.7389404,0.126755 0.97482104,0.788974 0.96759617,1.178588 -0.021731,1.203203 -1.31740967,2.090701 -2.52847837,3.632935 z" />
      <path
         style="opacity:1;stroke-width:0.28222212"
         inkscape:connector-curvature="0"
         id="path37-0-2-9"
         d="m -58.47704,14.615898 h -0.774839 v -1.05765 h 0.774839 c 0,0 0.0059,-0.56987 0.02822,-1.575224 0.04806,-2.1428721 0.101487,-2.4755309 0.721019,-3.0653201 1.223459,-1.165566 3.272358,-0.2158835 3.248143,1.5369091 -0.03542,2.473703 -0.0099,4.83212 -0.08199,5.166246 -0.12827,0.588325 -0.141252,0.621463 -0.08887,0.729041 0.107272,0.215855 1.032761,0.309423 1.032761,0.249022 v 1.041786 c -0.706937,0.05489 -1.000616,-0.01154 -1.566273,-0.415903 -0.352918,0.341128 -1.427927,0.683718 -2.282974,0.280701 -0.65021,-0.306471 -1.14294,-1.098162 -1.009986,-2.889608 v 0 z m 2.618902,1.84636 c -0.38399,-0.555521 -1.030249,-1.313679 -1.638183,-1.582959 -0.03793,0.638763 0.01722,1.174397 0.241328,1.462498 0.356869,0.458635 0.933758,0.563625 1.396855,0.120461 z m 0.3186,-6.110075 c -0.285016,-0.8082324 -1.017211,-1.0822933 -1.55219,-0.5765077 -0.334489,0.3145997 -0.38797,0.6457677 -0.395195,2.4446137 -0.0042,1.109582 -0.0042,1.575955 -0.0042,1.575955 1.041454,0.338176 2.014948,1.553842 2.006623,1.538004 l 0.0254,-3.35564 c 0.02032,-0.544467 -0.0068,-1.089665 -0.08018,-1.626425 v 0 z m 0,0" />
      <path
         inkscape:connector-curvature="0"
         id="path37-0-5-5-3"
         d="m -1.3485344,82.125734 h 0.77481074 v 1.057652 H -1.3485344 c 0,0 -0.00593,0.56987 -0.028222,1.575223 -0.048034,2.142871 -0.1014869,2.475532 -0.7209912,3.06532 -1.2234863,1.165565 -3.2723858,0.215885 -3.2481712,-1.536908 0.035419,-2.473705 0.00988,-4.832122 0.081985,-5.166246 0.1282697,-0.588324 0.1412519,-0.621463 0.088872,-0.72904 C -5.2823342,80.175876 -6.207823,80.082311 -6.207823,80.14271 v -1.041783 c 0.7069365,-0.05489 1.0006162,0.01154 1.5663008,0.415903 0.3528897,-0.341129 1.4279276,-0.683722 2.2829457,-0.280702 0.6502382,0.306469 1.1429404,1.09816 1.0100141,2.889606 v 0 z m -2.6189303,-1.846358 c 0.3840187,0.555522 1.0302494,1.313679 1.6381826,1.582959 0.03793,-0.638766 -0.017216,-1.174399 -0.2412994,-1.462498 -0.3568972,-0.458637 -0.933786,-0.563624 -1.3968832,-0.120461 z m -0.3185998,6.110074 c 0.2850437,0.808232 1.017239,1.082294 1.5522462,0.576509 0.3344606,-0.3146 0.3879415,-0.64577 0.3951664,-2.444615 0.00423,-1.109583 0.00423,-1.575956 0.00423,-1.575956 -1.0414535,-0.338173 -2.0149764,-1.553842 -2.0066226,-1.538004 l -0.0254,3.355642 c -0.02032,0.544467 0.00677,1.089665 0.080179,1.626424 v 0 z m 0,0"
         style="display:inline;opacity:1;stroke-width:0.28222212" />
    </g>
  </g>
</svg>
