<?xml version="1.0" encoding="UTF-8" standalone="no"?>
<!-- Created with Inkscape (http://www.inkscape.org/) -->

<svg
   xmlns:dc="http://purl.org/dc/elements/1.1/"
   xmlns:cc="http://creativecommons.org/ns#"
   xmlns:rdf="http://www.w3.org/1999/02/22-rdf-syntax-ns#"
   xmlns:svg="http://www.w3.org/2000/svg"
   xmlns="http://www.w3.org/2000/svg"
   xmlns:sodipodi="http://sodipodi.sourceforge.net/DTD/sodipodi-0.dtd"
   xmlns:inkscape="http://www.inkscape.org/namespaces/inkscape"
   width="63.000004mm"
   height="88mm"
   viewBox="0 0 63.000004 88"
   version="1.1"
   id="svg821"
   inkscape:version="0.92.1 r15371"
   sodipodi:docname="s13.svg">
  <defs
     id="defs815" />
  <sodipodi:namedview
     id="base"
     pagecolor="#ffffff"
     bordercolor="#666666"
     borderopacity="1.0"
     inkscape:pageopacity="0.0"
     inkscape:pageshadow="2"
     inkscape:zoom="0.5"
     inkscape:cx="295.16529"
     inkscape:cy="292.89763"
     inkscape:document-units="mm"
     inkscape:current-layer="layer1"
     showgrid="false"
     fit-margin-top="0"
     fit-margin-left="0"
     fit-margin-right="0"
     fit-margin-bottom="0"
     inkscape:window-width="757"
     inkscape:window-height="712"
     inkscape:window-x="913"
     inkscape:window-y="192"
     inkscape:window-maximized="0" />
  <metadata
     id="metadata818">
    <rdf:RDF>
      <cc:Work
         rdf:about="">
        <dc:format>image/svg+xml</dc:format>
        <dc:type
           rdf:resource="http://purl.org/dc/dcmitype/StillImage" />
        <dc:title></dc:title>
      </cc:Work>
    </rdf:RDF>
  </metadata>
  <g
     inkscape:label="レイヤー 1"
     inkscape:groupmode="layer"
     id="layer1"
     transform="translate(-27.737519,-138.32913)">
    <g
       id="g61">
      <rect
         y="138.46979"
         x="27.878168"
         height="87.718697"
         width="62.718704"
         id="rect7467-2-2"
         style="display:inline;opacity:1;fill:#ffffff;fill-opacity:1;stroke:#000000;stroke-width:0.28130031;stroke-miterlimit:4;stroke-dasharray:none;stroke-opacity:1"
         rx="2.9999998"
         ry="2.9999998" />
      <path
         d="m 32.715592,152.52826 c -1.211125,1.54224 -2.506973,2.42973 -2.528478,3.63294 -0.0073,0.38961 0.228656,1.05183 0.967596,1.17859 0.47941,0.0819 1.139441,-0.26462 1.153242,-0.96851 -0.0028,-0.14014 0.166143,-0.1365 0.164591,0.0555 -0.02258,0.55522 -0.219399,1.20165 -0.550219,1.72785 0.528855,0 1.057682,0 1.586536,0 -0.330791,-0.5262 -0.527641,-1.17263 -0.550219,-1.72785 -0.0028,-0.19203 0.166709,-0.19567 0.164592,-0.0555 0.01383,0.70389 0.673832,1.05036 1.153241,0.96851 0.738941,-0.12676 0.974821,-0.78898 0.967597,-1.17859 -0.02173,-1.20321 -1.317382,-2.0907 -2.528479,-3.63294 z"
         id="path7499-2-5"
         inkscape:connector-curvature="0"
         sodipodi:nodetypes="cccccccccccc"
         style="display:inline;opacity:1;stroke-width:0.28222212" />
      <path
         d="m 85.759705,212.13003 c -1.211126,-1.54223 -2.506973,-2.42973 -2.528507,-3.63293 -0.0073,-0.38962 0.228684,-1.05184 0.967596,-1.17859 0.47941,-0.0819 1.139441,0.26461 1.153242,0.96851 -0.0028,0.14013 0.166172,0.13649 0.164591,-0.0555 -0.02258,-0.55523 -0.219399,-1.20166 -0.55019,-1.72786 0.528854,0 1.057681,0 1.586536,0 -0.33082,0.5262 -0.52767,1.17263 -0.550219,1.72786 -0.0028,0.19202 0.16668,0.19566 0.164591,0.0555 0.01383,-0.7039 0.673832,-1.05037 1.153242,-0.96851 0.738912,0.12675 0.974821,0.78897 0.967596,1.17859 -0.02173,1.2032 -1.31741,2.0907 -2.528478,3.63293 z"
         id="path7503-7-0"
         inkscape:connector-curvature="0"
         sodipodi:nodetypes="cccccccccccc"
         style="display:inline;opacity:1;stroke-width:0.28222212" />
      <path
         style="opacity:1;stroke-width:0.28222212"
         inkscape:connector-curvature="0"
         id="path39-5-1-0"
         d="m 32.939253,150.62355 h 0.932685 l -1.370157,-3.42785 -1.046872,1.44798 0.0073,1.97987 h 0.73513 v 1.02108 h -2.590764 v -1.02108 h 0.853578 v -7.37182 l -0.853578,0.003 v -0.89249 h 2.628695 v 0.9227 h -0.725366 l -0.01552,3.59291 2.294602,-3.62312 h -0.80992 v -0.89249 h 2.796702 v 0.89249 h -0.737981 l -1.889303,2.96081 1.849905,4.40918 h 0.821095 l 0.0042,1.02108 h -2.875808 l -0.0087,-1.02254 z m 0,0" />
      <path
         inkscape:connector-curvature="0"
         id="path39-5-7-0-0"
         d="m 85.535169,214.03474 h -0.932713 l 1.370185,3.42786 1.046844,-1.44799 -0.0073,-1.97987 h -0.735159 v -1.02108 h 2.590821 v 1.02108 h -0.853635 v 7.37182 l 0.853635,-0.003 v 0.89249 h -2.628723 v -0.92271 h 0.725394 l 0.01552,-3.5929 -2.294602,3.62312 h 0.80992 v 0.89249 h -2.796702 v -0.89249 h 0.737981 l 1.889275,-2.96081 -1.849905,-4.40919 h -0.821067 l -0.0042,-1.02108 h 2.875836 l 0.0087,1.02255 z m 0,0"
         style="display:inline;opacity:1;stroke-width:0.28222212" />
    </g>
  </g>
</svg>
